%TF.GenerationSoftware,KiCad,Pcbnew,10.0.0*%
%TF.CreationDate,2026-04-08T17:06:56+02:00*%
%TF.ProjectId,rp_2040_extruder_board,72705f32-3034-4305-9f65-787472756465,rev?*%
%TF.SameCoordinates,Original*%
%TF.FileFunction,Soldermask,Top*%
%TF.FilePolarity,Negative*%
%FSLAX46Y46*%
G04 Gerber Fmt 4.6, Leading zero omitted, Abs format (unit mm)*
G04 Created by KiCad (PCBNEW 10.0.0) date 2026-04-08 17:06:56*
%MOMM*%
%LPD*%
G01*
G04 APERTURE LIST*
G04 Aperture macros list*
%AMRoundRect*
0 Rectangle with rounded corners*
0 $1 Rounding radius*
0 $2 $3 $4 $5 $6 $7 $8 $9 X,Y pos of 4 corners*
0 Add a 4 corners polygon primitive as box body*
4,1,4,$2,$3,$4,$5,$6,$7,$8,$9,$2,$3,0*
0 Add four circle primitives for the rounded corners*
1,1,$1+$1,$2,$3*
1,1,$1+$1,$4,$5*
1,1,$1+$1,$6,$7*
1,1,$1+$1,$8,$9*
0 Add four rect primitives between the rounded corners*
20,1,$1+$1,$2,$3,$4,$5,0*
20,1,$1+$1,$4,$5,$6,$7,0*
20,1,$1+$1,$6,$7,$8,$9,0*
20,1,$1+$1,$8,$9,$2,$3,0*%
G04 Aperture macros list end*
%ADD10RoundRect,0.250000X1.050000X-1.050000X1.050000X1.050000X-1.050000X1.050000X-1.050000X-1.050000X0*%
%ADD11C,2.600000*%
%ADD12O,1.700000X2.000000*%
%ADD13RoundRect,0.250000X0.600000X0.750000X-0.600000X0.750000X-0.600000X-0.750000X0.600000X-0.750000X0*%
%ADD14RoundRect,0.250000X-0.262500X-0.450000X0.262500X-0.450000X0.262500X0.450000X-0.262500X0.450000X0*%
%ADD15RoundRect,0.225000X-0.225000X-0.250000X0.225000X-0.250000X0.225000X0.250000X-0.225000X0.250000X0*%
%ADD16RoundRect,0.250000X-1.050000X1.050000X-1.050000X-1.050000X1.050000X-1.050000X1.050000X1.050000X0*%
%ADD17R,3.200000X3.200000*%
%ADD18RoundRect,0.050000X-0.050000X-0.387500X0.050000X-0.387500X0.050000X0.387500X-0.050000X0.387500X0*%
%ADD19RoundRect,0.050000X-0.387500X-0.050000X0.387500X-0.050000X0.387500X0.050000X-0.387500X0.050000X0*%
%ADD20O,1.700000X1.950000*%
%ADD21RoundRect,0.250000X-0.600000X-0.725000X0.600000X-0.725000X0.600000X0.725000X-0.600000X0.725000X0*%
%ADD22C,1.700000*%
%ADD23R,1.700000X1.700000*%
%ADD24RoundRect,0.250000X-0.450000X0.262500X-0.450000X-0.262500X0.450000X-0.262500X0.450000X0.262500X0*%
%ADD25RoundRect,0.250000X-0.450000X-0.350000X0.450000X-0.350000X0.450000X0.350000X-0.450000X0.350000X0*%
%ADD26C,0.787400*%
%ADD27C,0.990600*%
%ADD28C,2.374900*%
%ADD29O,2.150000X0.950000*%
%ADD30O,1.950000X0.950000*%
%ADD31RoundRect,0.062500X-0.312500X0.062500X-0.312500X-0.062500X0.312500X-0.062500X0.312500X0.062500X0*%
%ADD32RoundRect,0.075000X-0.300000X0.075000X-0.300000X-0.075000X0.300000X-0.075000X0.300000X0.075000X0*%
%ADD33RoundRect,0.375000X-0.625000X-0.375000X0.625000X-0.375000X0.625000X0.375000X-0.625000X0.375000X0*%
%ADD34RoundRect,0.500000X-0.500000X-1.400000X0.500000X-1.400000X0.500000X1.400000X-0.500000X1.400000X0*%
%ADD35RoundRect,0.162500X-0.650000X-0.162500X0.650000X-0.162500X0.650000X0.162500X-0.650000X0.162500X0*%
%ADD36RoundRect,0.100000X-0.712500X-0.100000X0.712500X-0.100000X0.712500X0.100000X-0.712500X0.100000X0*%
%ADD37RoundRect,0.150000X-0.587500X-0.150000X0.587500X-0.150000X0.587500X0.150000X-0.587500X0.150000X0*%
%ADD38C,2.000000*%
%ADD39RoundRect,0.250000X-0.375000X-0.850000X0.375000X-0.850000X0.375000X0.850000X-0.375000X0.850000X0*%
G04 APERTURE END LIST*
D10*
%TO.C,J11*%
X158335000Y-53000000D03*
D11*
X158335000Y-47920000D03*
%TD*%
D12*
%TO.C,J15*%
X132000000Y-71500000D03*
D13*
X134500000Y-71500000D03*
%TD*%
D14*
%TO.C,R7*%
X66807500Y-26260000D03*
X64982500Y-26260000D03*
%TD*%
D15*
%TO.C,C2*%
X76830000Y-34515000D03*
X75280000Y-34515000D03*
%TD*%
D11*
%TO.C,J14*%
X17920000Y-55080000D03*
D16*
X17920000Y-50000000D03*
%TD*%
D15*
%TO.C,C17*%
X114000000Y-61000000D03*
X112450000Y-61000000D03*
%TD*%
%TO.C,C12*%
X97785000Y-28800000D03*
X96235000Y-28800000D03*
%TD*%
%TO.C,C7*%
X32380000Y-30070000D03*
X30830000Y-30070000D03*
%TD*%
D17*
%TO.C,U2*%
X70200000Y-58700000D03*
D18*
X67600000Y-55262500D03*
X68000000Y-55262500D03*
X68400000Y-55262500D03*
X68800000Y-55262500D03*
X69200000Y-55262500D03*
X69600000Y-55262500D03*
X70000000Y-55262500D03*
X70400000Y-55262500D03*
X70800000Y-55262500D03*
X71200000Y-55262500D03*
X71600000Y-55262500D03*
X72000000Y-55262500D03*
X72400000Y-55262500D03*
X72800000Y-55262500D03*
D19*
X73637500Y-56100000D03*
X73637500Y-56500000D03*
X73637500Y-56900000D03*
X73637500Y-57300000D03*
X73637500Y-57700000D03*
X73637500Y-58100000D03*
X73637500Y-58500000D03*
X73637500Y-58900000D03*
X73637500Y-59300000D03*
X73637500Y-59700000D03*
X73637500Y-60100000D03*
X73637500Y-60500000D03*
X73637500Y-60900000D03*
X73637500Y-61300000D03*
D18*
X72800000Y-62137500D03*
X72400000Y-62137500D03*
X72000000Y-62137500D03*
X71600000Y-62137500D03*
X71200000Y-62137500D03*
X70800000Y-62137500D03*
X70400000Y-62137500D03*
X70000000Y-62137500D03*
X69600000Y-62137500D03*
X69200000Y-62137500D03*
X68800000Y-62137500D03*
X68400000Y-62137500D03*
X68000000Y-62137500D03*
X67600000Y-62137500D03*
D19*
X66762500Y-61300000D03*
X66762500Y-60900000D03*
X66762500Y-60500000D03*
X66762500Y-60100000D03*
X66762500Y-59700000D03*
X66762500Y-59300000D03*
X66762500Y-58900000D03*
X66762500Y-58500000D03*
X66762500Y-58100000D03*
X66762500Y-57700000D03*
X66762500Y-57300000D03*
X66762500Y-56900000D03*
X66762500Y-56500000D03*
X66762500Y-56100000D03*
%TD*%
D14*
%TO.C,R10*%
X87127500Y-26260000D03*
X85302500Y-26260000D03*
%TD*%
D15*
%TO.C,C10*%
X53335000Y-39595000D03*
X51785000Y-39595000D03*
%TD*%
%TO.C,C16*%
X56250000Y-63590000D03*
X54700000Y-63590000D03*
%TD*%
D14*
%TO.C,R2*%
X116337500Y-26890000D03*
X114512500Y-26890000D03*
%TD*%
%TO.C,R21*%
X44412500Y-55500000D03*
X42587500Y-55500000D03*
%TD*%
%TO.C,R4*%
X25412500Y-71000000D03*
X23587500Y-71000000D03*
%TD*%
D20*
%TO.C,J4*%
X46720000Y-16100000D03*
X44220000Y-16100000D03*
X41720000Y-16100000D03*
D21*
X39220000Y-16100000D03*
%TD*%
D14*
%TO.C,R5*%
X23137500Y-26670000D03*
X21312500Y-26670000D03*
%TD*%
%TO.C,R14*%
X111892500Y-25625000D03*
X110067500Y-25625000D03*
%TD*%
D22*
%TO.C,JP1*%
X32500000Y-77265000D03*
D23*
X32500000Y-74725000D03*
%TD*%
D24*
%TO.C,R18*%
X134500000Y-57912500D03*
X134500000Y-56087500D03*
%TD*%
D15*
%TO.C,C13*%
X109555000Y-61000000D03*
X108005000Y-61000000D03*
%TD*%
D20*
%TO.C,J3*%
X67680000Y-16100000D03*
X65180000Y-16100000D03*
X62680000Y-16100000D03*
D21*
X60180000Y-16100000D03*
%TD*%
D15*
%TO.C,C4*%
X75560000Y-28800000D03*
X74010000Y-28800000D03*
%TD*%
D25*
%TO.C,Y1*%
X60725000Y-64440000D03*
X62925000Y-64440000D03*
X62925000Y-62740000D03*
X60725000Y-62740000D03*
%TD*%
D12*
%TO.C,J19*%
X113500000Y-71500000D03*
D13*
X116000000Y-71500000D03*
%TD*%
D15*
%TO.C,C6*%
X81275000Y-34515000D03*
X79725000Y-34515000D03*
%TD*%
D26*
%TO.C,J18*%
X85555000Y-60349000D03*
X85555000Y-61619000D03*
X84285000Y-60349000D03*
X84285000Y-61619000D03*
X83015000Y-60349000D03*
X83015000Y-61619000D03*
D27*
X86825000Y-62000000D03*
X86825000Y-59968000D03*
D28*
X84920000Y-63524000D03*
X84920000Y-58444000D03*
X81745000Y-63524000D03*
D27*
X81745000Y-60984000D03*
D28*
X81745000Y-58444000D03*
%TD*%
D15*
%TO.C,C20*%
X63235000Y-68670000D03*
X61685000Y-68670000D03*
%TD*%
D14*
%TO.C,R19*%
X122052500Y-27530000D03*
X120227500Y-27530000D03*
%TD*%
D29*
%TO.C,J17*%
X13795000Y-80650000D03*
D30*
X16995000Y-80650000D03*
D29*
X13795000Y-71750000D03*
D30*
X16995000Y-71750000D03*
D31*
X15920000Y-73200000D03*
X15920000Y-74700000D03*
X15920000Y-75200000D03*
X15920000Y-75700000D03*
X15920000Y-76700000D03*
X15920000Y-77200000D03*
X15920000Y-77700000D03*
X15920000Y-79200000D03*
X17170000Y-79250000D03*
X17170000Y-77450000D03*
X17170000Y-76950000D03*
X17170000Y-76450000D03*
X17170000Y-75950000D03*
X17170000Y-75450000D03*
X17170000Y-74950000D03*
D32*
X17170000Y-79750000D03*
D31*
X17170000Y-73150000D03*
D32*
X17170000Y-72650000D03*
%TD*%
D14*
%TO.C,R3*%
X45852500Y-27530000D03*
X44027500Y-27530000D03*
%TD*%
D22*
%TO.C,J7*%
X107805000Y-43405000D03*
X105265000Y-43405000D03*
X107805000Y-40865000D03*
X105265000Y-40865000D03*
X107805000Y-38325000D03*
X105265000Y-38325000D03*
X107805000Y-35785000D03*
X105265000Y-35785000D03*
X107805000Y-33245000D03*
X105265000Y-33245000D03*
X107805000Y-30705000D03*
X105265000Y-30705000D03*
X107805000Y-28165000D03*
X105265000Y-28165000D03*
X107805000Y-25625000D03*
D23*
X105265000Y-25625000D03*
%TD*%
D24*
%TO.C,R9*%
X124975000Y-57912500D03*
X124975000Y-56087500D03*
%TD*%
D22*
%TO.C,J9*%
X41760000Y-44040000D03*
X39220000Y-44040000D03*
X41760000Y-41500000D03*
X39220000Y-41500000D03*
X41760000Y-38960000D03*
X39220000Y-38960000D03*
X41760000Y-36420000D03*
X39220000Y-36420000D03*
X41760000Y-33880000D03*
X39220000Y-33880000D03*
X41760000Y-31340000D03*
X39220000Y-31340000D03*
X41760000Y-28800000D03*
X39220000Y-28800000D03*
X41760000Y-26260000D03*
D23*
X39220000Y-26260000D03*
%TD*%
D33*
%TO.C,U3*%
X130705000Y-44010000D03*
D34*
X137005000Y-41710000D03*
D33*
X130705000Y-41710000D03*
X130705000Y-39410000D03*
%TD*%
D20*
%TO.C,J1*%
X88000000Y-16100000D03*
X85500000Y-16100000D03*
X83000000Y-16100000D03*
D21*
X80500000Y-16100000D03*
%TD*%
D15*
%TO.C,C14*%
X19500000Y-38715000D03*
X17950000Y-38715000D03*
%TD*%
D35*
%TO.C,U1*%
X88412500Y-50685000D03*
X88412500Y-51955000D03*
X88412500Y-53225000D03*
X88412500Y-54495000D03*
X81237500Y-54495000D03*
X81237500Y-53225000D03*
X81237500Y-51955000D03*
X81237500Y-50685000D03*
%TD*%
D14*
%TO.C,R17*%
X66807500Y-27530000D03*
X64982500Y-27530000D03*
%TD*%
D15*
%TO.C,C1*%
X117810000Y-61000000D03*
X116260000Y-61000000D03*
%TD*%
%TO.C,C18*%
X19500000Y-33000000D03*
X17950000Y-33000000D03*
%TD*%
%TO.C,C9*%
X106380000Y-61000000D03*
X104830000Y-61000000D03*
%TD*%
%TO.C,C15*%
X52065000Y-29435000D03*
X50515000Y-29435000D03*
%TD*%
D36*
%TO.C,U4*%
X20612500Y-16525000D03*
X20612500Y-17175000D03*
X20612500Y-17825000D03*
X20612500Y-18475000D03*
X16387500Y-18475000D03*
X16387500Y-17825000D03*
X16387500Y-17175000D03*
X16387500Y-16525000D03*
%TD*%
D15*
%TO.C,C11*%
X49525000Y-29435000D03*
X47975000Y-29435000D03*
%TD*%
D20*
%TO.C,J2*%
X112765000Y-16100000D03*
X110265000Y-16100000D03*
X107765000Y-16100000D03*
D21*
X105265000Y-16100000D03*
%TD*%
D22*
%TO.C,J8*%
X62720000Y-44040000D03*
X60180000Y-44040000D03*
X62720000Y-41500000D03*
X60180000Y-41500000D03*
X62720000Y-38960000D03*
X60180000Y-38960000D03*
X62720000Y-36420000D03*
X60180000Y-36420000D03*
X62720000Y-33880000D03*
X60180000Y-33880000D03*
X62720000Y-31340000D03*
X60180000Y-31340000D03*
X62720000Y-28800000D03*
X60180000Y-28800000D03*
X62720000Y-26260000D03*
D23*
X60180000Y-26260000D03*
%TD*%
D12*
%TO.C,J13*%
X141500000Y-71500000D03*
D13*
X144000000Y-71500000D03*
%TD*%
D24*
%TO.C,R12*%
X128150000Y-57912500D03*
X128150000Y-56087500D03*
%TD*%
D37*
%TO.C,Q1*%
X122077500Y-18640000D03*
X120202500Y-19590000D03*
X120202500Y-17690000D03*
%TD*%
D14*
%TO.C,R1*%
X45852500Y-26260000D03*
X44027500Y-26260000D03*
%TD*%
D15*
%TO.C,C8*%
X95245000Y-28800000D03*
X93695000Y-28800000D03*
%TD*%
D38*
%TO.C,SW1*%
X50515000Y-51080000D03*
X57015000Y-51080000D03*
X50515000Y-55580000D03*
X57015000Y-55580000D03*
%TD*%
D14*
%TO.C,R16*%
X23137500Y-21590000D03*
X21312500Y-21590000D03*
%TD*%
%TO.C,R6*%
X25412500Y-76000000D03*
X23587500Y-76000000D03*
%TD*%
%TO.C,R15*%
X120147500Y-24355000D03*
X118322500Y-24355000D03*
%TD*%
D22*
%TO.C,J6*%
X83040000Y-44040000D03*
X80500000Y-44040000D03*
X83040000Y-41500000D03*
X80500000Y-41500000D03*
X83040000Y-38960000D03*
X80500000Y-38960000D03*
X83040000Y-36420000D03*
X80500000Y-36420000D03*
X83040000Y-33880000D03*
X80500000Y-33880000D03*
X83040000Y-31340000D03*
X80500000Y-31340000D03*
X83040000Y-28800000D03*
X80500000Y-28800000D03*
X83040000Y-26260000D03*
D23*
X80500000Y-26260000D03*
%TD*%
D39*
%TO.C,L1*%
X23690000Y-16510000D03*
X25840000Y-16510000D03*
%TD*%
D15*
%TO.C,C19*%
X72385000Y-28800000D03*
X70835000Y-28800000D03*
%TD*%
D11*
%TO.C,J10*%
X158420000Y-35420000D03*
D10*
X158420000Y-40500000D03*
%TD*%
D14*
%TO.C,R13*%
X87127500Y-27530000D03*
X85302500Y-27530000D03*
%TD*%
D24*
%TO.C,R20*%
X131325000Y-57912500D03*
X131325000Y-56087500D03*
%TD*%
D11*
%TO.C,J12*%
X158420000Y-60920000D03*
D10*
X158420000Y-66000000D03*
%TD*%
D15*
%TO.C,C3*%
X29985000Y-22860000D03*
X28435000Y-22860000D03*
%TD*%
D37*
%TO.C,Q2*%
X124617500Y-24990000D03*
X122742500Y-25940000D03*
X122742500Y-24040000D03*
%TD*%
D14*
%TO.C,R11*%
X120147500Y-21180000D03*
X118322500Y-21180000D03*
%TD*%
D11*
%TO.C,J5*%
X158420000Y-22920000D03*
D10*
X158420000Y-28000000D03*
%TD*%
D14*
%TO.C,R8*%
X116972500Y-18640000D03*
X115147500Y-18640000D03*
%TD*%
D12*
%TO.C,J16*%
X122500000Y-71500000D03*
D13*
X125000000Y-71500000D03*
%TD*%
D15*
%TO.C,C5*%
X103205000Y-61000000D03*
X101655000Y-61000000D03*
%TD*%
M02*
