M48
; DRILL file KiCad 10.0.0 date 2026-04-08T17:06:58
; FORMAT={-:-/ absolute / metric / decimal}
; #@! TF.CreationDate,2026-04-08T17:06:58+02:00
; #@! TF.GenerationSoftware,Kicad,Pcbnew,10.0.0
; #@! TF.FileFunction,Plated,1,2,PTH
FMAT,2
METRIC
; #@! TA.AperFunction,Plated,PTH,ComponentDrill
T1C0.450
; #@! TA.AperFunction,Plated,PTH,ComponentDrill
T2C0.950
; #@! TA.AperFunction,Plated,PTH,ComponentDrill
T3C1.000
; #@! TA.AperFunction,Plated,PTH,ComponentDrill
T4C1.100
; #@! TA.AperFunction,Plated,PTH,ComponentDrill
T5C1.300
%
G90
G05
T2
X39.22Y-16.1
X41.72Y-16.1
X44.22Y-16.1
X46.72Y-16.1
X60.18Y-16.1
X62.68Y-16.1
X65.18Y-16.1
X67.68Y-16.1
X80.5Y-16.1
X83.0Y-16.1
X85.5Y-16.1
X88.0Y-16.1
X105.265Y-16.1
X107.765Y-16.1
X110.265Y-16.1
X112.765Y-16.1
T3
X32.5Y-74.725
X32.5Y-77.265
X39.22Y-26.26
X39.22Y-28.8
X39.22Y-31.34
X39.22Y-33.88
X39.22Y-36.42
X39.22Y-38.96
X39.22Y-41.5
X39.22Y-44.04
X41.76Y-26.26
X41.76Y-28.8
X41.76Y-31.34
X41.76Y-33.88
X41.76Y-36.42
X41.76Y-38.96
X41.76Y-41.5
X41.76Y-44.04
X60.18Y-26.26
X60.18Y-28.8
X60.18Y-31.34
X60.18Y-33.88
X60.18Y-36.42
X60.18Y-38.96
X60.18Y-41.5
X60.18Y-44.04
X62.72Y-26.26
X62.72Y-28.8
X62.72Y-31.34
X62.72Y-33.88
X62.72Y-36.42
X62.72Y-38.96
X62.72Y-41.5
X62.72Y-44.04
X80.5Y-26.26
X80.5Y-28.8
X80.5Y-31.34
X80.5Y-33.88
X80.5Y-36.42
X80.5Y-38.96
X80.5Y-41.5
X80.5Y-44.04
X83.04Y-26.26
X83.04Y-28.8
X83.04Y-31.34
X83.04Y-33.88
X83.04Y-36.42
X83.04Y-38.96
X83.04Y-41.5
X83.04Y-44.04
X105.265Y-25.625
X105.265Y-28.165
X105.265Y-30.705
X105.265Y-33.245
X105.265Y-35.785
X105.265Y-38.325
X105.265Y-40.865
X105.265Y-43.405
X107.805Y-25.625
X107.805Y-28.165
X107.805Y-30.705
X107.805Y-33.245
X107.805Y-35.785
X107.805Y-38.325
X107.805Y-40.865
X107.805Y-43.405
X113.5Y-71.5
X116.0Y-71.5
X122.5Y-71.5
X125.0Y-71.5
X132.0Y-71.5
X134.5Y-71.5
X141.5Y-71.5
X144.0Y-71.5
T4
X50.515Y-51.08
X50.515Y-55.58
X57.015Y-51.08
X57.015Y-55.58
T5
X17.92Y-50.0
X17.92Y-55.08
X158.335Y-47.92
X158.335Y-53.0
X158.42Y-22.92
X158.42Y-28.0
X158.42Y-35.42
X158.42Y-40.5
X158.42Y-60.92
X158.42Y-66.0
T1
G00X14.395Y-71.75
M15
G01X13.195Y-71.75
M16
G05
G00X14.395Y-80.65
M15
G01X13.195Y-80.65
M16
G05
G00X17.495Y-71.75
M15
G01X16.495Y-71.75
M16
G05
G00X17.495Y-80.65
M15
G01X16.495Y-80.65
M16
G05
M30
