%TF.GenerationSoftware,KiCad,Pcbnew,10.0.0*%
%TF.CreationDate,2026-04-08T17:33:32+02:00*%
%TF.ProjectId,rp_2040_extruder_board,72705f32-3034-4305-9f65-787472756465,rev?*%
%TF.SameCoordinates,Original*%
%TF.FileFunction,Soldermask,Bot*%
%TF.FilePolarity,Negative*%
%FSLAX46Y46*%
G04 Gerber Fmt 4.6, Leading zero omitted, Abs format (unit mm)*
G04 Created by KiCad (PCBNEW 10.0.0) date 2026-04-08 17:33:32*
%MOMM*%
%LPD*%
G01*
G04 APERTURE LIST*
G04 Aperture macros list*
%AMRoundRect*
0 Rectangle with rounded corners*
0 $1 Rounding radius*
0 $2 $3 $4 $5 $6 $7 $8 $9 X,Y pos of 4 corners*
0 Add a 4 corners polygon primitive as box body*
4,1,4,$2,$3,$4,$5,$6,$7,$8,$9,$2,$3,0*
0 Add four circle primitives for the rounded corners*
1,1,$1+$1,$2,$3*
1,1,$1+$1,$4,$5*
1,1,$1+$1,$6,$7*
1,1,$1+$1,$8,$9*
0 Add four rect primitives between the rounded corners*
20,1,$1+$1,$2,$3,$4,$5,0*
20,1,$1+$1,$4,$5,$6,$7,0*
20,1,$1+$1,$6,$7,$8,$9,0*
20,1,$1+$1,$8,$9,$2,$3,0*%
G04 Aperture macros list end*
%ADD10C,2.000000*%
%ADD11RoundRect,0.250000X1.050000X-1.050000X1.050000X1.050000X-1.050000X1.050000X-1.050000X-1.050000X0*%
%ADD12C,2.600000*%
%ADD13O,1.700000X2.000000*%
%ADD14RoundRect,0.250000X0.600000X0.750000X-0.600000X0.750000X-0.600000X-0.750000X0.600000X-0.750000X0*%
%ADD15RoundRect,0.250000X-1.050000X1.050000X-1.050000X-1.050000X1.050000X-1.050000X1.050000X1.050000X0*%
%ADD16O,1.700000X1.950000*%
%ADD17RoundRect,0.250000X-0.600000X-0.725000X0.600000X-0.725000X0.600000X0.725000X-0.600000X0.725000X0*%
%ADD18C,1.700000*%
%ADD19R,1.700000X1.700000*%
%ADD20C,0.990600*%
%ADD21C,2.374900*%
%ADD22O,2.150000X0.950000*%
%ADD23O,1.950000X0.950000*%
G04 APERTURE END LIST*
D10*
%TO.C,SW1*%
X38250000Y-67250000D03*
X31750000Y-67250000D03*
X38250000Y-62750000D03*
X31750000Y-62750000D03*
%TD*%
D11*
%TO.C,J11*%
X94000000Y-85045000D03*
D12*
X94000000Y-79965000D03*
%TD*%
D13*
%TO.C,J15*%
X66000000Y-97000000D03*
D14*
X68500000Y-97000000D03*
%TD*%
D12*
%TO.C,J14*%
X5500000Y-41080000D03*
D15*
X5500000Y-36000000D03*
%TD*%
D16*
%TO.C,J4*%
X39500000Y-16100000D03*
X37000000Y-16100000D03*
X34500000Y-16100000D03*
D17*
X32000000Y-16100000D03*
%TD*%
D18*
%TO.C,JP1*%
X24530000Y-96065000D03*
D19*
X24530000Y-93525000D03*
%TD*%
D16*
%TO.C,J3*%
X55500000Y-16000000D03*
X53000000Y-16000000D03*
X50500000Y-16000000D03*
D17*
X48000000Y-16000000D03*
%TD*%
D13*
%TO.C,J19*%
X48175000Y-96910000D03*
D14*
X50675000Y-96910000D03*
%TD*%
D20*
%TO.C,J18*%
X72235000Y-67080000D03*
X72235000Y-65048000D03*
D21*
X70330000Y-68604000D03*
X70330000Y-63524000D03*
X67155000Y-68604000D03*
D20*
X67155000Y-66064000D03*
D21*
X67155000Y-63524000D03*
%TD*%
D22*
%TO.C,J17*%
X5825000Y-99450000D03*
D23*
X9025000Y-99450000D03*
D22*
X5825000Y-90550000D03*
D23*
X9025000Y-90550000D03*
%TD*%
D18*
%TO.C,J7*%
X82540000Y-43040000D03*
X80000000Y-43040000D03*
X82540000Y-40500000D03*
X80000000Y-40500000D03*
X82540000Y-37960000D03*
X80000000Y-37960000D03*
X82540000Y-35420000D03*
X80000000Y-35420000D03*
X82540000Y-32880000D03*
X80000000Y-32880000D03*
X82540000Y-30340000D03*
X80000000Y-30340000D03*
X82540000Y-27800000D03*
X80000000Y-27800000D03*
X82540000Y-25260000D03*
D19*
X80000000Y-25260000D03*
%TD*%
D18*
%TO.C,J9*%
X35540000Y-43700000D03*
X33000000Y-43700000D03*
X35540000Y-41160000D03*
X33000000Y-41160000D03*
X35540000Y-38620000D03*
X33000000Y-38620000D03*
X35540000Y-36080000D03*
X33000000Y-36080000D03*
X35540000Y-33540000D03*
X33000000Y-33540000D03*
X35540000Y-31000000D03*
X33000000Y-31000000D03*
X35540000Y-28460000D03*
X33000000Y-28460000D03*
X35540000Y-25920000D03*
D19*
X33000000Y-25920000D03*
%TD*%
D16*
%TO.C,J1*%
X70500000Y-16100000D03*
X68000000Y-16100000D03*
X65500000Y-16100000D03*
D17*
X63000000Y-16100000D03*
%TD*%
D16*
%TO.C,J2*%
X86000000Y-16000000D03*
X83500000Y-16000000D03*
X81000000Y-16000000D03*
D17*
X78500000Y-16000000D03*
%TD*%
D18*
%TO.C,J8*%
X52765000Y-43890000D03*
X50225000Y-43890000D03*
X52765000Y-41350000D03*
X50225000Y-41350000D03*
X52765000Y-38810000D03*
X50225000Y-38810000D03*
X52765000Y-36270000D03*
X50225000Y-36270000D03*
X52765000Y-33730000D03*
X50225000Y-33730000D03*
X52765000Y-31190000D03*
X50225000Y-31190000D03*
X52765000Y-28650000D03*
X50225000Y-28650000D03*
X52765000Y-26110000D03*
D19*
X50225000Y-26110000D03*
%TD*%
D13*
%TO.C,J13*%
X75000000Y-97000000D03*
D14*
X77500000Y-97000000D03*
%TD*%
D18*
%TO.C,J6*%
X68540000Y-43620000D03*
X66000000Y-43620000D03*
X68540000Y-41080000D03*
X66000000Y-41080000D03*
X68540000Y-38540000D03*
X66000000Y-38540000D03*
X68540000Y-36000000D03*
X66000000Y-36000000D03*
X68540000Y-33460000D03*
X66000000Y-33460000D03*
X68540000Y-30920000D03*
X66000000Y-30920000D03*
X68540000Y-28380000D03*
X66000000Y-28380000D03*
X68540000Y-25840000D03*
D19*
X66000000Y-25840000D03*
%TD*%
D12*
%TO.C,J10*%
X94000000Y-68420000D03*
D11*
X94000000Y-73500000D03*
%TD*%
D12*
%TO.C,J12*%
X94000000Y-91420000D03*
D11*
X94000000Y-96500000D03*
%TD*%
D12*
%TO.C,J5*%
X94000000Y-56920000D03*
D11*
X94000000Y-62000000D03*
%TD*%
D13*
%TO.C,J16*%
X57000000Y-97000000D03*
D14*
X59500000Y-97000000D03*
%TD*%
M02*
