%TF.GenerationSoftware,KiCad,Pcbnew,10.0.0*%
%TF.CreationDate,2026-04-08T17:17:33+02:00*%
%TF.ProjectId,rp_2040_extruder_board,72705f32-3034-4305-9f65-787472756465,rev?*%
%TF.SameCoordinates,Original*%
%TF.FileFunction,Soldermask,Top*%
%TF.FilePolarity,Negative*%
%FSLAX46Y46*%
G04 Gerber Fmt 4.6, Leading zero omitted, Abs format (unit mm)*
G04 Created by KiCad (PCBNEW 10.0.0) date 2026-04-08 17:17:33*
%MOMM*%
%LPD*%
G01*
G04 APERTURE LIST*
G04 Aperture macros list*
%AMRoundRect*
0 Rectangle with rounded corners*
0 $1 Rounding radius*
0 $2 $3 $4 $5 $6 $7 $8 $9 X,Y pos of 4 corners*
0 Add a 4 corners polygon primitive as box body*
4,1,4,$2,$3,$4,$5,$6,$7,$8,$9,$2,$3,0*
0 Add four circle primitives for the rounded corners*
1,1,$1+$1,$2,$3*
1,1,$1+$1,$4,$5*
1,1,$1+$1,$6,$7*
1,1,$1+$1,$8,$9*
0 Add four rect primitives between the rounded corners*
20,1,$1+$1,$2,$3,$4,$5,0*
20,1,$1+$1,$4,$5,$6,$7,0*
20,1,$1+$1,$6,$7,$8,$9,0*
20,1,$1+$1,$8,$9,$2,$3,0*%
G04 Aperture macros list end*
%ADD10RoundRect,0.225000X-0.225000X-0.250000X0.225000X-0.250000X0.225000X0.250000X-0.225000X0.250000X0*%
%ADD11RoundRect,0.250000X1.050000X-1.050000X1.050000X1.050000X-1.050000X1.050000X-1.050000X-1.050000X0*%
%ADD12C,2.600000*%
%ADD13O,1.700000X2.000000*%
%ADD14RoundRect,0.250000X0.600000X0.750000X-0.600000X0.750000X-0.600000X-0.750000X0.600000X-0.750000X0*%
%ADD15RoundRect,0.250000X-0.262500X-0.450000X0.262500X-0.450000X0.262500X0.450000X-0.262500X0.450000X0*%
%ADD16RoundRect,0.250000X-1.050000X1.050000X-1.050000X-1.050000X1.050000X-1.050000X1.050000X1.050000X0*%
%ADD17R,3.200000X3.200000*%
%ADD18RoundRect,0.050000X-0.050000X-0.387500X0.050000X-0.387500X0.050000X0.387500X-0.050000X0.387500X0*%
%ADD19RoundRect,0.050000X-0.387500X-0.050000X0.387500X-0.050000X0.387500X0.050000X-0.387500X0.050000X0*%
%ADD20O,1.700000X1.950000*%
%ADD21RoundRect,0.250000X-0.600000X-0.725000X0.600000X-0.725000X0.600000X0.725000X-0.600000X0.725000X0*%
%ADD22C,1.700000*%
%ADD23R,1.700000X1.700000*%
%ADD24RoundRect,0.250000X-0.450000X0.262500X-0.450000X-0.262500X0.450000X-0.262500X0.450000X0.262500X0*%
%ADD25RoundRect,0.250000X-0.450000X-0.350000X0.450000X-0.350000X0.450000X0.350000X-0.450000X0.350000X0*%
%ADD26C,0.787400*%
%ADD27C,0.990600*%
%ADD28C,2.374900*%
%ADD29O,2.150000X0.950000*%
%ADD30O,1.950000X0.950000*%
%ADD31RoundRect,0.062500X-0.312500X0.062500X-0.312500X-0.062500X0.312500X-0.062500X0.312500X0.062500X0*%
%ADD32RoundRect,0.075000X-0.300000X0.075000X-0.300000X-0.075000X0.300000X-0.075000X0.300000X0.075000X0*%
%ADD33RoundRect,0.375000X-0.625000X-0.375000X0.625000X-0.375000X0.625000X0.375000X-0.625000X0.375000X0*%
%ADD34RoundRect,0.500000X-0.500000X-1.400000X0.500000X-1.400000X0.500000X1.400000X-0.500000X1.400000X0*%
%ADD35RoundRect,0.162500X-0.650000X-0.162500X0.650000X-0.162500X0.650000X0.162500X-0.650000X0.162500X0*%
%ADD36RoundRect,0.100000X-0.712500X-0.100000X0.712500X-0.100000X0.712500X0.100000X-0.712500X0.100000X0*%
%ADD37RoundRect,0.150000X-0.587500X-0.150000X0.587500X-0.150000X0.587500X0.150000X-0.587500X0.150000X0*%
%ADD38C,2.000000*%
%ADD39RoundRect,0.250000X-0.375000X-0.850000X0.375000X-0.850000X0.375000X0.850000X-0.375000X0.850000X0*%
%ADD40RoundRect,0.250000X1.050000X1.050000X-1.050000X1.050000X-1.050000X-1.050000X1.050000X-1.050000X0*%
G04 APERTURE END LIST*
D10*
%TO.C,C20*%
X60725000Y-59000000D03*
X62275000Y-59000000D03*
%TD*%
D11*
%TO.C,J11*%
X117000000Y-30000000D03*
D12*
X117000000Y-24920000D03*
%TD*%
D13*
%TO.C,J15*%
X109000000Y-59500000D03*
D14*
X111500000Y-59500000D03*
%TD*%
D15*
%TO.C,R7*%
X56852500Y-26110000D03*
X55027500Y-26110000D03*
%TD*%
D10*
%TO.C,C2*%
X62330000Y-34095000D03*
X60780000Y-34095000D03*
%TD*%
D12*
%TO.C,J14*%
X18000000Y-41080000D03*
D16*
X18000000Y-36000000D03*
%TD*%
D10*
%TO.C,C17*%
X104750000Y-52025000D03*
X103200000Y-52025000D03*
%TD*%
%TO.C,C12*%
X76785000Y-28760000D03*
X75235000Y-28760000D03*
%TD*%
%TO.C,C7*%
X29275000Y-30000000D03*
X27725000Y-30000000D03*
%TD*%
D17*
%TO.C,U2*%
X66437500Y-51700000D03*
D18*
X63837500Y-48262500D03*
X64237500Y-48262500D03*
X64637500Y-48262500D03*
X65037500Y-48262500D03*
X65437500Y-48262500D03*
X65837500Y-48262500D03*
X66237500Y-48262500D03*
X66637500Y-48262500D03*
X67037500Y-48262500D03*
X67437500Y-48262500D03*
X67837500Y-48262500D03*
X68237500Y-48262500D03*
X68637500Y-48262500D03*
X69037500Y-48262500D03*
D19*
X69875000Y-49100000D03*
X69875000Y-49500000D03*
X69875000Y-49900000D03*
X69875000Y-50300000D03*
X69875000Y-50700000D03*
X69875000Y-51100000D03*
X69875000Y-51500000D03*
X69875000Y-51900000D03*
X69875000Y-52300000D03*
X69875000Y-52700000D03*
X69875000Y-53100000D03*
X69875000Y-53500000D03*
X69875000Y-53900000D03*
X69875000Y-54300000D03*
D18*
X69037500Y-55137500D03*
X68637500Y-55137500D03*
X68237500Y-55137500D03*
X67837500Y-55137500D03*
X67437500Y-55137500D03*
X67037500Y-55137500D03*
X66637500Y-55137500D03*
X66237500Y-55137500D03*
X65837500Y-55137500D03*
X65437500Y-55137500D03*
X65037500Y-55137500D03*
X64637500Y-55137500D03*
X64237500Y-55137500D03*
X63837500Y-55137500D03*
D19*
X63000000Y-54300000D03*
X63000000Y-53900000D03*
X63000000Y-53500000D03*
X63000000Y-53100000D03*
X63000000Y-52700000D03*
X63000000Y-52300000D03*
X63000000Y-51900000D03*
X63000000Y-51500000D03*
X63000000Y-51100000D03*
X63000000Y-50700000D03*
X63000000Y-50300000D03*
X63000000Y-49900000D03*
X63000000Y-49500000D03*
X63000000Y-49100000D03*
%TD*%
D15*
%TO.C,R10*%
X72627500Y-25840000D03*
X70802500Y-25840000D03*
%TD*%
D10*
%TO.C,C10*%
X45320000Y-39350000D03*
X43770000Y-39350000D03*
%TD*%
%TO.C,C16*%
X59775000Y-47500000D03*
X58225000Y-47500000D03*
%TD*%
D15*
%TO.C,R2*%
X90602500Y-41035000D03*
X88777500Y-41035000D03*
%TD*%
%TO.C,R21*%
X44412500Y-55500000D03*
X42587500Y-55500000D03*
%TD*%
%TO.C,R4*%
X29442500Y-48800000D03*
X27617500Y-48800000D03*
%TD*%
D20*
%TO.C,J4*%
X39500000Y-16100000D03*
X37000000Y-16100000D03*
X34500000Y-16100000D03*
D21*
X32000000Y-16100000D03*
%TD*%
D15*
%TO.C,R5*%
X23137500Y-26670000D03*
X21312500Y-26670000D03*
%TD*%
%TO.C,R14*%
X88157500Y-26730000D03*
X86332500Y-26730000D03*
%TD*%
D22*
%TO.C,JP1*%
X36530000Y-55065000D03*
D23*
X36530000Y-52525000D03*
%TD*%
D24*
%TO.C,R18*%
X105850000Y-47912500D03*
X105850000Y-46087500D03*
%TD*%
D10*
%TO.C,C13*%
X100305000Y-52025000D03*
X98755000Y-52025000D03*
%TD*%
D20*
%TO.C,J3*%
X55500000Y-16000000D03*
X53000000Y-16000000D03*
X50500000Y-16000000D03*
D21*
X48000000Y-16000000D03*
%TD*%
D10*
%TO.C,C4*%
X61060000Y-28380000D03*
X59510000Y-28380000D03*
%TD*%
D25*
%TO.C,Y1*%
X73900000Y-54350000D03*
X76100000Y-54350000D03*
X76100000Y-52650000D03*
X73900000Y-52650000D03*
%TD*%
D13*
%TO.C,J19*%
X91175000Y-59410000D03*
D14*
X93675000Y-59410000D03*
%TD*%
D10*
%TO.C,C6*%
X66775000Y-34095000D03*
X65225000Y-34095000D03*
%TD*%
D26*
%TO.C,J18*%
X83230000Y-57759000D03*
X83230000Y-59029000D03*
X81960000Y-57759000D03*
X81960000Y-59029000D03*
X80690000Y-57759000D03*
X80690000Y-59029000D03*
D27*
X84500000Y-59410000D03*
X84500000Y-57378000D03*
D28*
X82595000Y-60934000D03*
X82595000Y-55854000D03*
X79420000Y-60934000D03*
D27*
X79420000Y-58394000D03*
D28*
X79420000Y-55854000D03*
%TD*%
D15*
%TO.C,R19*%
X96317500Y-41675000D03*
X94492500Y-41675000D03*
%TD*%
D29*
%TO.C,J17*%
X17825000Y-58450000D03*
D30*
X21025000Y-58450000D03*
D29*
X17825000Y-49550000D03*
D30*
X21025000Y-49550000D03*
D31*
X19950000Y-51000000D03*
X19950000Y-52500000D03*
X19950000Y-53000000D03*
X19950000Y-53500000D03*
X19950000Y-54500000D03*
X19950000Y-55000000D03*
X19950000Y-55500000D03*
X19950000Y-57000000D03*
X21200000Y-57050000D03*
X21200000Y-55250000D03*
X21200000Y-54750000D03*
X21200000Y-54250000D03*
X21200000Y-53750000D03*
X21200000Y-53250000D03*
X21200000Y-52750000D03*
D32*
X21200000Y-57550000D03*
D31*
X21200000Y-50950000D03*
D32*
X21200000Y-50450000D03*
%TD*%
D15*
%TO.C,R3*%
X39632500Y-27190000D03*
X37807500Y-27190000D03*
%TD*%
D22*
%TO.C,J7*%
X82540000Y-43040000D03*
X80000000Y-43040000D03*
X82540000Y-40500000D03*
X80000000Y-40500000D03*
X82540000Y-37960000D03*
X80000000Y-37960000D03*
X82540000Y-35420000D03*
X80000000Y-35420000D03*
X82540000Y-32880000D03*
X80000000Y-32880000D03*
X82540000Y-30340000D03*
X80000000Y-30340000D03*
X82540000Y-27800000D03*
X80000000Y-27800000D03*
X82540000Y-25260000D03*
D23*
X80000000Y-25260000D03*
%TD*%
D24*
%TO.C,R9*%
X96325000Y-47912500D03*
X96325000Y-46087500D03*
%TD*%
D22*
%TO.C,J9*%
X35540000Y-43700000D03*
X33000000Y-43700000D03*
X35540000Y-41160000D03*
X33000000Y-41160000D03*
X35540000Y-38620000D03*
X33000000Y-38620000D03*
X35540000Y-36080000D03*
X33000000Y-36080000D03*
X35540000Y-33540000D03*
X33000000Y-33540000D03*
X35540000Y-31000000D03*
X33000000Y-31000000D03*
X35540000Y-28460000D03*
X33000000Y-28460000D03*
X35540000Y-25920000D03*
D23*
X33000000Y-25920000D03*
%TD*%
D33*
%TO.C,U3*%
X39350000Y-47800000D03*
D34*
X45650000Y-45500000D03*
D33*
X39350000Y-45500000D03*
X39350000Y-43200000D03*
%TD*%
D20*
%TO.C,J1*%
X70500000Y-16100000D03*
X68000000Y-16100000D03*
X65500000Y-16100000D03*
D21*
X63000000Y-16100000D03*
%TD*%
D10*
%TO.C,C14*%
X24000000Y-30500000D03*
X22450000Y-30500000D03*
%TD*%
D35*
%TO.C,U1*%
X86087500Y-48095000D03*
X86087500Y-49365000D03*
X86087500Y-50635000D03*
X86087500Y-51905000D03*
X78912500Y-51905000D03*
X78912500Y-50635000D03*
X78912500Y-49365000D03*
X78912500Y-48095000D03*
%TD*%
D15*
%TO.C,R17*%
X56852500Y-27380000D03*
X55027500Y-27380000D03*
%TD*%
D10*
%TO.C,C1*%
X108560000Y-52025000D03*
X107010000Y-52025000D03*
%TD*%
%TO.C,C18*%
X17500000Y-27000000D03*
X15950000Y-27000000D03*
%TD*%
%TO.C,C9*%
X97130000Y-52025000D03*
X95580000Y-52025000D03*
%TD*%
%TO.C,C15*%
X45845000Y-29095000D03*
X44295000Y-29095000D03*
%TD*%
D36*
%TO.C,U4*%
X20612500Y-16525000D03*
X20612500Y-17175000D03*
X20612500Y-17825000D03*
X20612500Y-18475000D03*
X16387500Y-18475000D03*
X16387500Y-17825000D03*
X16387500Y-17175000D03*
X16387500Y-16525000D03*
%TD*%
D10*
%TO.C,C11*%
X43305000Y-29095000D03*
X41755000Y-29095000D03*
%TD*%
D20*
%TO.C,J2*%
X86000000Y-16000000D03*
X83500000Y-16000000D03*
X81000000Y-16000000D03*
D21*
X78500000Y-16000000D03*
%TD*%
D22*
%TO.C,J8*%
X52765000Y-43890000D03*
X50225000Y-43890000D03*
X52765000Y-41350000D03*
X50225000Y-41350000D03*
X52765000Y-38810000D03*
X50225000Y-38810000D03*
X52765000Y-36270000D03*
X50225000Y-36270000D03*
X52765000Y-33730000D03*
X50225000Y-33730000D03*
X52765000Y-31190000D03*
X50225000Y-31190000D03*
X52765000Y-28650000D03*
X50225000Y-28650000D03*
X52765000Y-26110000D03*
D23*
X50225000Y-26110000D03*
%TD*%
D13*
%TO.C,J13*%
X118000000Y-59500000D03*
D14*
X120500000Y-59500000D03*
%TD*%
D24*
%TO.C,R12*%
X99500000Y-47912500D03*
X99500000Y-46087500D03*
%TD*%
D37*
%TO.C,Q1*%
X96342500Y-32785000D03*
X94467500Y-33735000D03*
X94467500Y-31835000D03*
%TD*%
D15*
%TO.C,R1*%
X39632500Y-25920000D03*
X37807500Y-25920000D03*
%TD*%
D10*
%TO.C,C8*%
X74245000Y-28760000D03*
X72695000Y-28760000D03*
%TD*%
D38*
%TO.C,SW1*%
X50515000Y-51080000D03*
X57015000Y-51080000D03*
X50515000Y-55580000D03*
X57015000Y-55580000D03*
%TD*%
D15*
%TO.C,R16*%
X23137500Y-21590000D03*
X21312500Y-21590000D03*
%TD*%
%TO.C,R6*%
X29442500Y-53800000D03*
X27617500Y-53800000D03*
%TD*%
%TO.C,R15*%
X94412500Y-38500000D03*
X92587500Y-38500000D03*
%TD*%
D22*
%TO.C,J6*%
X68540000Y-43620000D03*
X66000000Y-43620000D03*
X68540000Y-41080000D03*
X66000000Y-41080000D03*
X68540000Y-38540000D03*
X66000000Y-38540000D03*
X68540000Y-36000000D03*
X66000000Y-36000000D03*
X68540000Y-33460000D03*
X66000000Y-33460000D03*
X68540000Y-30920000D03*
X66000000Y-30920000D03*
X68540000Y-28380000D03*
X66000000Y-28380000D03*
X68540000Y-25840000D03*
D23*
X66000000Y-25840000D03*
%TD*%
D39*
%TO.C,L1*%
X23690000Y-16510000D03*
X25840000Y-16510000D03*
%TD*%
D10*
%TO.C,C19*%
X60775000Y-30500000D03*
X59225000Y-30500000D03*
%TD*%
D12*
%TO.C,J10*%
X114500000Y-16000000D03*
D40*
X119580000Y-16000000D03*
%TD*%
D15*
%TO.C,R13*%
X72627500Y-27110000D03*
X70802500Y-27110000D03*
%TD*%
D24*
%TO.C,R20*%
X102675000Y-47912500D03*
X102675000Y-46087500D03*
%TD*%
D12*
%TO.C,J12*%
X117085000Y-37920000D03*
D11*
X117085000Y-43000000D03*
%TD*%
D10*
%TO.C,C3*%
X28275000Y-23000000D03*
X26725000Y-23000000D03*
%TD*%
D37*
%TO.C,Q2*%
X98882500Y-39135000D03*
X97007500Y-40085000D03*
X97007500Y-38185000D03*
%TD*%
D15*
%TO.C,R11*%
X94412500Y-35325000D03*
X92587500Y-35325000D03*
%TD*%
D12*
%TO.C,J5*%
X102000000Y-16000000D03*
D40*
X107080000Y-16000000D03*
%TD*%
D15*
%TO.C,R8*%
X91237500Y-32785000D03*
X89412500Y-32785000D03*
%TD*%
D13*
%TO.C,J16*%
X100000000Y-59500000D03*
D14*
X102500000Y-59500000D03*
%TD*%
D10*
%TO.C,C5*%
X93955000Y-52025000D03*
X92405000Y-52025000D03*
%TD*%
M02*
