%TF.GenerationSoftware,KiCad,Pcbnew,10.0.0*%
%TF.CreationDate,2026-04-08T17:17:33+02:00*%
%TF.ProjectId,rp_2040_extruder_board,72705f32-3034-4305-9f65-787472756465,rev?*%
%TF.SameCoordinates,Original*%
%TF.FileFunction,Paste,Top*%
%TF.FilePolarity,Positive*%
%FSLAX46Y46*%
G04 Gerber Fmt 4.6, Leading zero omitted, Abs format (unit mm)*
G04 Created by KiCad (PCBNEW 10.0.0) date 2026-04-08 17:17:33*
%MOMM*%
%LPD*%
G01*
G04 APERTURE LIST*
G04 Aperture macros list*
%AMRoundRect*
0 Rectangle with rounded corners*
0 $1 Rounding radius*
0 $2 $3 $4 $5 $6 $7 $8 $9 X,Y pos of 4 corners*
0 Add a 4 corners polygon primitive as box body*
4,1,4,$2,$3,$4,$5,$6,$7,$8,$9,$2,$3,0*
0 Add four circle primitives for the rounded corners*
1,1,$1+$1,$2,$3*
1,1,$1+$1,$4,$5*
1,1,$1+$1,$6,$7*
1,1,$1+$1,$8,$9*
0 Add four rect primitives between the rounded corners*
20,1,$1+$1,$2,$3,$4,$5,0*
20,1,$1+$1,$4,$5,$6,$7,0*
20,1,$1+$1,$6,$7,$8,$9,0*
20,1,$1+$1,$8,$9,$2,$3,0*%
G04 Aperture macros list end*
%ADD10RoundRect,0.225000X-0.225000X-0.250000X0.225000X-0.250000X0.225000X0.250000X-0.225000X0.250000X0*%
%ADD11RoundRect,0.250000X-0.262500X-0.450000X0.262500X-0.450000X0.262500X0.450000X-0.262500X0.450000X0*%
%ADD12RoundRect,0.050000X-0.050000X-0.387500X0.050000X-0.387500X0.050000X0.387500X-0.050000X0.387500X0*%
%ADD13RoundRect,0.050000X-0.387500X-0.050000X0.387500X-0.050000X0.387500X0.050000X-0.387500X0.050000X0*%
%ADD14RoundRect,0.249999X-0.395001X-0.395001X0.395001X-0.395001X0.395001X0.395001X-0.395001X0.395001X0*%
%ADD15RoundRect,0.250000X-0.450000X0.262500X-0.450000X-0.262500X0.450000X-0.262500X0.450000X0.262500X0*%
%ADD16RoundRect,0.250000X-0.450000X-0.350000X0.450000X-0.350000X0.450000X0.350000X-0.450000X0.350000X0*%
%ADD17RoundRect,0.062500X-0.312500X0.062500X-0.312500X-0.062500X0.312500X-0.062500X0.312500X0.062500X0*%
%ADD18RoundRect,0.075000X-0.300000X0.075000X-0.300000X-0.075000X0.300000X-0.075000X0.300000X0.075000X0*%
%ADD19RoundRect,0.375000X-0.625000X-0.375000X0.625000X-0.375000X0.625000X0.375000X-0.625000X0.375000X0*%
%ADD20RoundRect,0.500000X-0.500000X-1.400000X0.500000X-1.400000X0.500000X1.400000X-0.500000X1.400000X0*%
%ADD21RoundRect,0.162500X-0.650000X-0.162500X0.650000X-0.162500X0.650000X0.162500X-0.650000X0.162500X0*%
%ADD22RoundRect,0.100000X-0.712500X-0.100000X0.712500X-0.100000X0.712500X0.100000X-0.712500X0.100000X0*%
%ADD23RoundRect,0.150000X-0.587500X-0.150000X0.587500X-0.150000X0.587500X0.150000X-0.587500X0.150000X0*%
%ADD24RoundRect,0.250000X-0.375000X-0.850000X0.375000X-0.850000X0.375000X0.850000X-0.375000X0.850000X0*%
G04 APERTURE END LIST*
D10*
%TO.C,C20*%
X60725000Y-59000000D03*
X62275000Y-59000000D03*
%TD*%
D11*
%TO.C,R7*%
X56852500Y-26110000D03*
X55027500Y-26110000D03*
%TD*%
D10*
%TO.C,C2*%
X62330000Y-34095000D03*
X60780000Y-34095000D03*
%TD*%
%TO.C,C17*%
X104750000Y-52025000D03*
X103200000Y-52025000D03*
%TD*%
%TO.C,C12*%
X76785000Y-28760000D03*
X75235000Y-28760000D03*
%TD*%
%TO.C,C7*%
X29275000Y-30000000D03*
X27725000Y-30000000D03*
%TD*%
D12*
%TO.C,U2*%
X63837500Y-48262500D03*
X64237500Y-48262500D03*
X64637500Y-48262500D03*
X65037500Y-48262500D03*
X65437500Y-48262500D03*
X65837500Y-48262500D03*
X66237500Y-48262500D03*
X66637500Y-48262500D03*
X67037500Y-48262500D03*
X67437500Y-48262500D03*
X67837500Y-48262500D03*
X68237500Y-48262500D03*
X68637500Y-48262500D03*
X69037500Y-48262500D03*
D13*
X69875000Y-49100000D03*
X69875000Y-49500000D03*
X69875000Y-49900000D03*
X69875000Y-50300000D03*
X69875000Y-50700000D03*
X69875000Y-51100000D03*
X69875000Y-51500000D03*
X69875000Y-51900000D03*
X69875000Y-52300000D03*
X69875000Y-52700000D03*
X69875000Y-53100000D03*
X69875000Y-53500000D03*
X69875000Y-53900000D03*
X69875000Y-54300000D03*
D12*
X69037500Y-55137500D03*
X68637500Y-55137500D03*
X68237500Y-55137500D03*
X67837500Y-55137500D03*
X67437500Y-55137500D03*
X67037500Y-55137500D03*
X66637500Y-55137500D03*
X66237500Y-55137500D03*
X65837500Y-55137500D03*
X65437500Y-55137500D03*
X65037500Y-55137500D03*
X64637500Y-55137500D03*
X64237500Y-55137500D03*
X63837500Y-55137500D03*
D13*
X63000000Y-54300000D03*
X63000000Y-53900000D03*
X63000000Y-53500000D03*
X63000000Y-53100000D03*
X63000000Y-52700000D03*
X63000000Y-52300000D03*
X63000000Y-51900000D03*
X63000000Y-51500000D03*
X63000000Y-51100000D03*
X63000000Y-50700000D03*
X63000000Y-50300000D03*
X63000000Y-49900000D03*
X63000000Y-49500000D03*
X63000000Y-49100000D03*
D14*
X67237500Y-52500000D03*
X67237500Y-50900000D03*
X65637500Y-52500000D03*
X65637500Y-50900000D03*
%TD*%
D11*
%TO.C,R10*%
X72627500Y-25840000D03*
X70802500Y-25840000D03*
%TD*%
D10*
%TO.C,C10*%
X45320000Y-39350000D03*
X43770000Y-39350000D03*
%TD*%
%TO.C,C16*%
X59775000Y-47500000D03*
X58225000Y-47500000D03*
%TD*%
D11*
%TO.C,R2*%
X90602500Y-41035000D03*
X88777500Y-41035000D03*
%TD*%
%TO.C,R21*%
X44412500Y-55500000D03*
X42587500Y-55500000D03*
%TD*%
%TO.C,R4*%
X29442500Y-48800000D03*
X27617500Y-48800000D03*
%TD*%
%TO.C,R5*%
X23137500Y-26670000D03*
X21312500Y-26670000D03*
%TD*%
%TO.C,R14*%
X88157500Y-26730000D03*
X86332500Y-26730000D03*
%TD*%
D15*
%TO.C,R18*%
X105850000Y-47912500D03*
X105850000Y-46087500D03*
%TD*%
D10*
%TO.C,C13*%
X100305000Y-52025000D03*
X98755000Y-52025000D03*
%TD*%
%TO.C,C4*%
X61060000Y-28380000D03*
X59510000Y-28380000D03*
%TD*%
D16*
%TO.C,Y1*%
X73900000Y-54350000D03*
X76100000Y-54350000D03*
X76100000Y-52650000D03*
X73900000Y-52650000D03*
%TD*%
D10*
%TO.C,C6*%
X66775000Y-34095000D03*
X65225000Y-34095000D03*
%TD*%
D11*
%TO.C,R19*%
X96317500Y-41675000D03*
X94492500Y-41675000D03*
%TD*%
D17*
%TO.C,J17*%
X19950000Y-51000000D03*
X19950000Y-52500000D03*
X19950000Y-53000000D03*
X19950000Y-53500000D03*
X19950000Y-54500000D03*
X19950000Y-55000000D03*
X19950000Y-55500000D03*
X19950000Y-57000000D03*
X21200000Y-57050000D03*
X21200000Y-55250000D03*
X21200000Y-54750000D03*
X21200000Y-54250000D03*
X21200000Y-53750000D03*
X21200000Y-53250000D03*
X21200000Y-52750000D03*
D18*
X21200000Y-57550000D03*
D17*
X21200000Y-50950000D03*
D18*
X21200000Y-50450000D03*
%TD*%
D11*
%TO.C,R3*%
X39632500Y-27190000D03*
X37807500Y-27190000D03*
%TD*%
D15*
%TO.C,R9*%
X96325000Y-47912500D03*
X96325000Y-46087500D03*
%TD*%
D19*
%TO.C,U3*%
X39350000Y-47800000D03*
D20*
X45650000Y-45500000D03*
D19*
X39350000Y-45500000D03*
X39350000Y-43200000D03*
%TD*%
D10*
%TO.C,C14*%
X24000000Y-30500000D03*
X22450000Y-30500000D03*
%TD*%
D21*
%TO.C,U1*%
X86087500Y-48095000D03*
X86087500Y-49365000D03*
X86087500Y-50635000D03*
X86087500Y-51905000D03*
X78912500Y-51905000D03*
X78912500Y-50635000D03*
X78912500Y-49365000D03*
X78912500Y-48095000D03*
%TD*%
D11*
%TO.C,R17*%
X56852500Y-27380000D03*
X55027500Y-27380000D03*
%TD*%
D10*
%TO.C,C1*%
X108560000Y-52025000D03*
X107010000Y-52025000D03*
%TD*%
%TO.C,C18*%
X17500000Y-27000000D03*
X15950000Y-27000000D03*
%TD*%
%TO.C,C9*%
X97130000Y-52025000D03*
X95580000Y-52025000D03*
%TD*%
%TO.C,C15*%
X45845000Y-29095000D03*
X44295000Y-29095000D03*
%TD*%
D22*
%TO.C,U4*%
X20612500Y-16525000D03*
X20612500Y-17175000D03*
X20612500Y-17825000D03*
X20612500Y-18475000D03*
X16387500Y-18475000D03*
X16387500Y-17825000D03*
X16387500Y-17175000D03*
X16387500Y-16525000D03*
%TD*%
D10*
%TO.C,C11*%
X43305000Y-29095000D03*
X41755000Y-29095000D03*
%TD*%
D15*
%TO.C,R12*%
X99500000Y-47912500D03*
X99500000Y-46087500D03*
%TD*%
D23*
%TO.C,Q1*%
X96342500Y-32785000D03*
X94467500Y-33735000D03*
X94467500Y-31835000D03*
%TD*%
D11*
%TO.C,R1*%
X39632500Y-25920000D03*
X37807500Y-25920000D03*
%TD*%
D10*
%TO.C,C8*%
X74245000Y-28760000D03*
X72695000Y-28760000D03*
%TD*%
D11*
%TO.C,R16*%
X23137500Y-21590000D03*
X21312500Y-21590000D03*
%TD*%
%TO.C,R6*%
X29442500Y-53800000D03*
X27617500Y-53800000D03*
%TD*%
%TO.C,R15*%
X94412500Y-38500000D03*
X92587500Y-38500000D03*
%TD*%
D24*
%TO.C,L1*%
X23690000Y-16510000D03*
X25840000Y-16510000D03*
%TD*%
D10*
%TO.C,C19*%
X60775000Y-30500000D03*
X59225000Y-30500000D03*
%TD*%
D11*
%TO.C,R13*%
X72627500Y-27110000D03*
X70802500Y-27110000D03*
%TD*%
D15*
%TO.C,R20*%
X102675000Y-47912500D03*
X102675000Y-46087500D03*
%TD*%
D10*
%TO.C,C3*%
X28275000Y-23000000D03*
X26725000Y-23000000D03*
%TD*%
D23*
%TO.C,Q2*%
X98882500Y-39135000D03*
X97007500Y-40085000D03*
X97007500Y-38185000D03*
%TD*%
D11*
%TO.C,R11*%
X94412500Y-35325000D03*
X92587500Y-35325000D03*
%TD*%
%TO.C,R8*%
X91237500Y-32785000D03*
X89412500Y-32785000D03*
%TD*%
D10*
%TO.C,C5*%
X93955000Y-52025000D03*
X92405000Y-52025000D03*
%TD*%
M02*
