%TF.GenerationSoftware,KiCad,Pcbnew,10.0.0*%
%TF.CreationDate,2026-04-08T17:06:55+02:00*%
%TF.ProjectId,rp_2040_extruder_board,72705f32-3034-4305-9f65-787472756465,rev?*%
%TF.SameCoordinates,Original*%
%TF.FileFunction,Copper,L1,Top*%
%TF.FilePolarity,Positive*%
%FSLAX46Y46*%
G04 Gerber Fmt 4.6, Leading zero omitted, Abs format (unit mm)*
G04 Created by KiCad (PCBNEW 10.0.0) date 2026-04-08 17:06:55*
%MOMM*%
%LPD*%
G01*
G04 APERTURE LIST*
G04 Aperture macros list*
%AMRoundRect*
0 Rectangle with rounded corners*
0 $1 Rounding radius*
0 $2 $3 $4 $5 $6 $7 $8 $9 X,Y pos of 4 corners*
0 Add a 4 corners polygon primitive as box body*
4,1,4,$2,$3,$4,$5,$6,$7,$8,$9,$2,$3,0*
0 Add four circle primitives for the rounded corners*
1,1,$1+$1,$2,$3*
1,1,$1+$1,$4,$5*
1,1,$1+$1,$6,$7*
1,1,$1+$1,$8,$9*
0 Add four rect primitives between the rounded corners*
20,1,$1+$1,$2,$3,$4,$5,0*
20,1,$1+$1,$4,$5,$6,$7,0*
20,1,$1+$1,$6,$7,$8,$9,0*
20,1,$1+$1,$8,$9,$2,$3,0*%
G04 Aperture macros list end*
%TA.AperFunction,ComponentPad*%
%ADD10RoundRect,0.250000X1.050000X-1.050000X1.050000X1.050000X-1.050000X1.050000X-1.050000X-1.050000X0*%
%TD*%
%TA.AperFunction,ComponentPad*%
%ADD11C,2.600000*%
%TD*%
%TA.AperFunction,ComponentPad*%
%ADD12O,1.700000X2.000000*%
%TD*%
%TA.AperFunction,ComponentPad*%
%ADD13RoundRect,0.250000X0.600000X0.750000X-0.600000X0.750000X-0.600000X-0.750000X0.600000X-0.750000X0*%
%TD*%
%TA.AperFunction,SMDPad,CuDef*%
%ADD14RoundRect,0.250000X-0.262500X-0.450000X0.262500X-0.450000X0.262500X0.450000X-0.262500X0.450000X0*%
%TD*%
%TA.AperFunction,SMDPad,CuDef*%
%ADD15RoundRect,0.225000X-0.225000X-0.250000X0.225000X-0.250000X0.225000X0.250000X-0.225000X0.250000X0*%
%TD*%
%TA.AperFunction,ComponentPad*%
%ADD16RoundRect,0.250000X-1.050000X1.050000X-1.050000X-1.050000X1.050000X-1.050000X1.050000X1.050000X0*%
%TD*%
%TA.AperFunction,HeatsinkPad*%
%ADD17R,3.200000X3.200000*%
%TD*%
%TA.AperFunction,SMDPad,CuDef*%
%ADD18RoundRect,0.050000X-0.050000X-0.387500X0.050000X-0.387500X0.050000X0.387500X-0.050000X0.387500X0*%
%TD*%
%TA.AperFunction,SMDPad,CuDef*%
%ADD19RoundRect,0.050000X-0.387500X-0.050000X0.387500X-0.050000X0.387500X0.050000X-0.387500X0.050000X0*%
%TD*%
%TA.AperFunction,ComponentPad*%
%ADD20O,1.700000X1.950000*%
%TD*%
%TA.AperFunction,ComponentPad*%
%ADD21RoundRect,0.250000X-0.600000X-0.725000X0.600000X-0.725000X0.600000X0.725000X-0.600000X0.725000X0*%
%TD*%
%TA.AperFunction,ComponentPad*%
%ADD22C,1.700000*%
%TD*%
%TA.AperFunction,ComponentPad*%
%ADD23R,1.700000X1.700000*%
%TD*%
%TA.AperFunction,SMDPad,CuDef*%
%ADD24RoundRect,0.250000X-0.450000X0.262500X-0.450000X-0.262500X0.450000X-0.262500X0.450000X0.262500X0*%
%TD*%
%TA.AperFunction,SMDPad,CuDef*%
%ADD25RoundRect,0.250000X-0.450000X-0.350000X0.450000X-0.350000X0.450000X0.350000X-0.450000X0.350000X0*%
%TD*%
%TA.AperFunction,ConnectorPad*%
%ADD26C,0.787400*%
%TD*%
%TA.AperFunction,ComponentPad*%
%ADD27O,2.150000X0.950000*%
%TD*%
%TA.AperFunction,ComponentPad*%
%ADD28O,1.950000X0.950000*%
%TD*%
%TA.AperFunction,SMDPad,CuDef*%
%ADD29RoundRect,0.062500X-0.312500X0.062500X-0.312500X-0.062500X0.312500X-0.062500X0.312500X0.062500X0*%
%TD*%
%TA.AperFunction,SMDPad,CuDef*%
%ADD30RoundRect,0.075000X-0.300000X0.075000X-0.300000X-0.075000X0.300000X-0.075000X0.300000X0.075000X0*%
%TD*%
%TA.AperFunction,SMDPad,CuDef*%
%ADD31RoundRect,0.375000X-0.625000X-0.375000X0.625000X-0.375000X0.625000X0.375000X-0.625000X0.375000X0*%
%TD*%
%TA.AperFunction,SMDPad,CuDef*%
%ADD32RoundRect,0.500000X-0.500000X-1.400000X0.500000X-1.400000X0.500000X1.400000X-0.500000X1.400000X0*%
%TD*%
%TA.AperFunction,SMDPad,CuDef*%
%ADD33RoundRect,0.162500X-0.650000X-0.162500X0.650000X-0.162500X0.650000X0.162500X-0.650000X0.162500X0*%
%TD*%
%TA.AperFunction,SMDPad,CuDef*%
%ADD34RoundRect,0.100000X-0.712500X-0.100000X0.712500X-0.100000X0.712500X0.100000X-0.712500X0.100000X0*%
%TD*%
%TA.AperFunction,SMDPad,CuDef*%
%ADD35RoundRect,0.150000X-0.587500X-0.150000X0.587500X-0.150000X0.587500X0.150000X-0.587500X0.150000X0*%
%TD*%
%TA.AperFunction,ComponentPad*%
%ADD36C,2.000000*%
%TD*%
%TA.AperFunction,SMDPad,CuDef*%
%ADD37RoundRect,0.250000X-0.375000X-0.850000X0.375000X-0.850000X0.375000X0.850000X-0.375000X0.850000X0*%
%TD*%
G04 APERTURE END LIST*
D10*
%TO.P,J11,1,Pin_1_1*%
%TO.N,+12V*%
X158335000Y-53000000D03*
D11*
%TO.P,J11,2,Pin_2_2*%
%TO.N,GND*%
X158335000Y-47920000D03*
%TD*%
D12*
%TO.P,J15,2,Pin_2_2*%
%TO.N,Net-(J13-Pin_2)*%
X132000000Y-71500000D03*
D13*
%TO.P,J15,1,Pin_1_1*%
%TO.N,GND*%
X134500000Y-71500000D03*
%TD*%
D14*
%TO.P,R7,2*%
%TO.N,+3.3V*%
X66807500Y-26260000D03*
%TO.P,R7,1*%
%TO.N,Net-(J2-Pin_8)*%
X64982500Y-26260000D03*
%TD*%
D15*
%TO.P,C2,2*%
%TO.N,+3.3V*%
X76830000Y-34515000D03*
%TO.P,C2,1*%
%TO.N,GND*%
X75280000Y-34515000D03*
%TD*%
D11*
%TO.P,J14,2,Pin_2_2*%
%TO.N,GND*%
X17920000Y-55080000D03*
D16*
%TO.P,J14,1,Pin_1_1*%
%TO.N,+12V*%
X17920000Y-50000000D03*
%TD*%
D15*
%TO.P,C17,2*%
%TO.N,+3.3V*%
X114000000Y-61000000D03*
%TO.P,C17,1*%
%TO.N,GND*%
X112450000Y-61000000D03*
%TD*%
%TO.P,C12,2*%
%TO.N,+12V*%
X97785000Y-28800000D03*
%TO.P,C12,1*%
%TO.N,GND*%
X96235000Y-28800000D03*
%TD*%
%TO.P,C7,2*%
%TO.N,+12V*%
X32380000Y-30070000D03*
%TO.P,C7,1*%
%TO.N,GND*%
X30830000Y-30070000D03*
%TD*%
D17*
%TO.P,U2,57,GND_57*%
%TO.N,GND*%
X70200000Y-58700000D03*
D18*
%TO.P,U2,56,~{QSPI_SS}_56*%
%TO.N,Net-(U1-~{QSPI_SS})*%
X67600000Y-55262500D03*
%TO.P,U2,55,QSPI_SD1_55*%
%TO.N,Net-(U1-QSPI_SD1)*%
X68000000Y-55262500D03*
%TO.P,U2,54,QSPI_SD2_54*%
%TO.N,Net-(U1-QSPI_SD2)*%
X68400000Y-55262500D03*
%TO.P,U2,53,QSPI_SD0_53*%
%TO.N,Net-(U1-QSPI_SD0)*%
X68800000Y-55262500D03*
%TO.P,U2,52,QSPI_SCLK_52*%
%TO.N,Net-(U1-QSPI_SCLK)*%
X69200000Y-55262500D03*
%TO.P,U2,51,QSPI_SD3_51*%
%TO.N,Net-(U1-QSPI_SD3)*%
X69600000Y-55262500D03*
%TO.P,U2,50,DVDD_50*%
%TO.N,+3.3V*%
X70000000Y-55262500D03*
%TO.P,U2,49,IOVDD_49*%
X70400000Y-55262500D03*
%TO.P,U2,48,USB_VDD_48*%
X70800000Y-55262500D03*
%TO.P,U2,47,USB_DP_47*%
%TO.N,Net-(U1-USB_DP)*%
X71200000Y-55262500D03*
%TO.P,U2,46,USB_DM_46*%
%TO.N,Net-(U1-USB_DM)*%
X71600000Y-55262500D03*
%TO.P,U2,45,VREG_VOUT_45*%
%TO.N,unconnected-(U1-VREG_VOUT-Pad45)*%
X72000000Y-55262500D03*
%TO.P,U2,44,VREG_VIN_44*%
%TO.N,/5V_MAIN*%
X72400000Y-55262500D03*
%TO.P,U2,43,ADC_AVDD_43*%
%TO.N,+3.3V*%
X72800000Y-55262500D03*
D19*
%TO.P,U2,42,IOVDD_42*%
X73637500Y-56100000D03*
%TO.P,U2,41,GPIO29/ADC3_41*%
%TO.N,Net-(U1-GPIO29{slash}ADC3)*%
X73637500Y-56500000D03*
%TO.P,U2,40,GPIO28/ADC2_40*%
%TO.N,Net-(U1-GPIO28{slash}ADC2)*%
X73637500Y-56900000D03*
%TO.P,U2,39,GPIO27/ADC1_39*%
%TO.N,Net-(U1-GPIO27{slash}ADC1)*%
X73637500Y-57300000D03*
%TO.P,U2,38,GPIO26/ADC0_38*%
%TO.N,Net-(U1-GPIO26{slash}ADC0)*%
X73637500Y-57700000D03*
%TO.P,U2,37,GPIO25_37*%
%TO.N,unconnected-(U1-GPIO25-Pad37)*%
X73637500Y-58100000D03*
%TO.P,U2,36,GPIO24_36*%
%TO.N,unconnected-(U1-GPIO24-Pad36)*%
X73637500Y-58500000D03*
%TO.P,U2,35,GPIO23_35*%
%TO.N,unconnected-(U1-GPIO23-Pad35)*%
X73637500Y-58900000D03*
%TO.P,U2,34,GPIO22_34*%
%TO.N,unconnected-(U1-GPIO22-Pad34)*%
X73637500Y-59300000D03*
%TO.P,U2,33,IOVDD_33*%
%TO.N,+3.3V*%
X73637500Y-59700000D03*
%TO.P,U2,32,GPIO21_32*%
%TO.N,unconnected-(U1-GPIO21-Pad32)*%
X73637500Y-60100000D03*
%TO.P,U2,31,GPIO20_31*%
%TO.N,unconnected-(U1-GPIO20-Pad31)*%
X73637500Y-60500000D03*
%TO.P,U2,30,GPIO19_30*%
%TO.N,unconnected-(U1-GPIO19-Pad30)*%
X73637500Y-60900000D03*
%TO.P,U2,29,GPIO18_29*%
%TO.N,unconnected-(U1-GPIO18-Pad29)*%
X73637500Y-61300000D03*
D18*
%TO.P,U2,28,GPIO17_28*%
%TO.N,unconnected-(U1-GPIO17-Pad28)*%
X72800000Y-62137500D03*
%TO.P,U2,27,GPIO16_27*%
%TO.N,unconnected-(U1-GPIO16-Pad27)*%
X72400000Y-62137500D03*
%TO.P,U2,26,RUN_26*%
%TO.N,Net-(J11-~{RESET})*%
X72000000Y-62137500D03*
%TO.P,U2,25,SWDIO_25*%
%TO.N,Net-(J11-SWDIO)*%
X71600000Y-62137500D03*
%TO.P,U2,24,SWCLK_24*%
%TO.N,Net-(J11-SWCLK)*%
X71200000Y-62137500D03*
%TO.P,U2,23,DVDD_23*%
%TO.N,+3.3V*%
X70800000Y-62137500D03*
%TO.P,U2,22,IOVDD_22*%
X70400000Y-62137500D03*
%TO.P,U2,21,XOUT_21*%
%TO.N,Net-(U1-XOUT)*%
X70000000Y-62137500D03*
%TO.P,U2,20,XIN_20*%
%TO.N,Net-(U1-XIN)*%
X69600000Y-62137500D03*
%TO.P,U2,19,TESTEN_19*%
%TO.N,GND*%
X69200000Y-62137500D03*
%TO.P,U2,18,GPIO15_18*%
%TO.N,unconnected-(U1-GPIO15-Pad18)*%
X68800000Y-62137500D03*
%TO.P,U2,17,GPIO14_17*%
%TO.N,/RX PIN*%
X68400000Y-62137500D03*
%TO.P,U2,16,GPIO13_16*%
%TO.N,unconnected-(U1-GPIO13-Pad16)*%
X68000000Y-62137500D03*
%TO.P,U2,15,GPIO12_15*%
%TO.N,unconnected-(U1-GPIO12-Pad15)*%
X67600000Y-62137500D03*
D19*
%TO.P,U2,14,GPIO11_14*%
%TO.N,unconnected-(U1-GPIO11-Pad14)*%
X66762500Y-61300000D03*
%TO.P,U2,13,GPIO10_13*%
%TO.N,Net-(U1-GPIO10)*%
X66762500Y-60900000D03*
%TO.P,U2,12,GPIO9_12*%
%TO.N,Net-(J4-Pin_4)*%
X66762500Y-60500000D03*
%TO.P,U2,11,GPIO8_11*%
%TO.N,Net-(J1-Pin_16)*%
X66762500Y-60100000D03*
%TO.P,U2,10,IOVDD_10*%
%TO.N,+3.3V*%
X66762500Y-59700000D03*
%TO.P,U2,9,GPIO7_9*%
%TO.N,Net-(J4-Pin_2)*%
X66762500Y-59300000D03*
%TO.P,U2,8,GPIO6_8*%
%TO.N,Net-(J4-Pin_4)*%
X66762500Y-58900000D03*
%TO.P,U2,7,GPIO5_7*%
%TO.N,Net-(J3-Pin_2)*%
X66762500Y-58500000D03*
%TO.P,U2,6,GPIO4_6*%
%TO.N,Net-(J3-Pin_4)*%
X66762500Y-58100000D03*
%TO.P,U2,5,GPIO3_5*%
%TO.N,Net-(J2-Pin_2)*%
X66762500Y-57700000D03*
%TO.P,U2,4,GPIO2_4*%
%TO.N,Net-(J2-Pin_4)*%
X66762500Y-57300000D03*
%TO.P,U2,3,GPIO1_3*%
%TO.N,Net-(J1-Pin_2)*%
X66762500Y-56900000D03*
%TO.P,U2,2,GPIO0_2*%
%TO.N,Net-(J1-Pin_4)*%
X66762500Y-56500000D03*
%TO.P,U2,1,IOVDD_1*%
%TO.N,+3.3V*%
X66762500Y-56100000D03*
%TD*%
D14*
%TO.P,R10,2*%
%TO.N,+3.3V*%
X87127500Y-26260000D03*
%TO.P,R10,1*%
%TO.N,Net-(J3-Pin_8)*%
X85302500Y-26260000D03*
%TD*%
D15*
%TO.P,C10,2*%
%TO.N,GND*%
X53335000Y-39595000D03*
%TO.P,C10,1*%
%TO.N,+3.3V*%
X51785000Y-39595000D03*
%TD*%
%TO.P,C16,2*%
%TO.N,GND*%
X56250000Y-63590000D03*
%TO.P,C16,1*%
%TO.N,Net-(U1-XIN)*%
X54700000Y-63590000D03*
%TD*%
D14*
%TO.P,R2,2*%
%TO.N,/RX PIN*%
X116337500Y-26890000D03*
%TO.P,R2,1*%
%TO.N,Net-(J4-Pin_10)*%
X114512500Y-26890000D03*
%TD*%
%TO.P,R21,2*%
%TO.N,Net-(J11-~{RESET})*%
X44412500Y-55500000D03*
%TO.P,R21,1*%
%TO.N,GND*%
X42587500Y-55500000D03*
%TD*%
%TO.P,R4,2*%
%TO.N,GND*%
X25412500Y-71000000D03*
%TO.P,R4,1*%
%TO.N,Net-(J5-CC1)*%
X23587500Y-71000000D03*
%TD*%
D20*
%TO.P,J4,4,Pin_4_4*%
%TO.N,Net-(J1-Pin_7)*%
X46720000Y-16100000D03*
%TO.P,J4,3,Pin_3_3*%
%TO.N,Net-(J1-Pin_9)*%
X44220000Y-16100000D03*
%TO.P,J4,2,Pin_2_2*%
%TO.N,Net-(J1-Pin_11)*%
X41720000Y-16100000D03*
D21*
%TO.P,J4,1,Pin_1_1*%
%TO.N,Net-(J1-Pin_5)*%
X39220000Y-16100000D03*
%TD*%
D14*
%TO.P,R5,2*%
%TO.N,GND*%
X23137500Y-26670000D03*
%TO.P,R5,1*%
%TO.N,Net-(U4-FB)*%
X21312500Y-26670000D03*
%TD*%
%TO.P,R14,2*%
%TO.N,+3.3V*%
X111892500Y-25625000D03*
%TO.P,R14,1*%
%TO.N,Net-(J4-Pin_8)*%
X110067500Y-25625000D03*
%TD*%
D22*
%TO.P,JP1,2,B_2*%
%TO.N,/5V_MAIN*%
X32500000Y-77265000D03*
D23*
%TO.P,JP1,1,A_1*%
%TO.N,/VBUS_USB*%
X32500000Y-74725000D03*
%TD*%
D24*
%TO.P,R18,2*%
%TO.N,Net-(J12-Pin_2)*%
X134500000Y-57912500D03*
%TO.P,R18,1*%
%TO.N,Net-(U1-GPIO26{slash}ADC0)*%
X134500000Y-56087500D03*
%TD*%
D15*
%TO.P,C13,2*%
%TO.N,+3.3V*%
X109555000Y-61000000D03*
%TO.P,C13,1*%
%TO.N,GND*%
X108005000Y-61000000D03*
%TD*%
D20*
%TO.P,J3,4,Pin_4_4*%
%TO.N,Net-(J2-Pin_7)*%
X67680000Y-16100000D03*
%TO.P,J3,3,Pin_3_3*%
%TO.N,Net-(J2-Pin_9)*%
X65180000Y-16100000D03*
%TO.P,J3,2,Pin_2_2*%
%TO.N,Net-(J2-Pin_11)*%
X62680000Y-16100000D03*
D21*
%TO.P,J3,1,Pin_1_1*%
%TO.N,Net-(J2-Pin_5)*%
X60180000Y-16100000D03*
%TD*%
D15*
%TO.P,C4,2*%
%TO.N,+12V*%
X75560000Y-28800000D03*
%TO.P,C4,1*%
%TO.N,GND*%
X74010000Y-28800000D03*
%TD*%
D25*
%TO.P,Y1,1,1_1*%
%TO.N,Net-(U1-XOUT)*%
X60725000Y-64440000D03*
%TO.P,Y1,2,2_2*%
%TO.N,Net-(U1-XIN)*%
X62925000Y-64440000D03*
%TO.P,Y1,3*%
%TO.N,N/C*%
X62925000Y-62740000D03*
%TO.P,Y1,4*%
X60725000Y-62740000D03*
%TD*%
D12*
%TO.P,J19,2,Pin_2_2*%
%TO.N,Net-(J15-Pin_2)*%
X113500000Y-71500000D03*
D13*
%TO.P,J19,1,Pin_1_1*%
%TO.N,GND*%
X116000000Y-71500000D03*
%TD*%
D15*
%TO.P,C6,2*%
%TO.N,+3.3V*%
X81275000Y-34515000D03*
%TO.P,C6,1*%
%TO.N,GND*%
X79725000Y-34515000D03*
%TD*%
D26*
%TO.P,J18,6,SWO_6*%
%TO.N,unconnected-(J11-SWO-Pad6)*%
X85555000Y-60349000D03*
%TO.P,J18,5,GND_5*%
%TO.N,GND*%
X85555000Y-61619000D03*
%TO.P,J18,4,SWCLK_4*%
%TO.N,Net-(J11-SWCLK)*%
X84285000Y-60349000D03*
%TO.P,J18,3,~{RESET}_3*%
%TO.N,Net-(J11-~{RESET})*%
X84285000Y-61619000D03*
%TO.P,J18,2,SWDIO_2*%
%TO.N,Net-(J11-SWDIO)*%
X83015000Y-60349000D03*
%TO.P,J18,1,VCC_1*%
%TO.N,+3.3V*%
X83015000Y-61619000D03*
%TD*%
D15*
%TO.P,C20,2*%
%TO.N,GND*%
X63235000Y-68670000D03*
%TO.P,C20,1*%
%TO.N,Net-(U1-XOUT)*%
X61685000Y-68670000D03*
%TD*%
D14*
%TO.P,R19,2*%
%TO.N,GND*%
X122052500Y-27530000D03*
%TO.P,R19,1*%
%TO.N,Net-(Q2-G)*%
X120227500Y-27530000D03*
%TD*%
D27*
%TO.P,J17,SH,SHIELD_SH*%
%TO.N,GND*%
X13795000Y-80650000D03*
D28*
X16995000Y-80650000D03*
D27*
X13795000Y-71750000D03*
D28*
X16995000Y-71750000D03*
D29*
%TO.P,J17,B12,GND_B12*%
X15920000Y-73200000D03*
%TO.P,J17,B9,VBUS_B9*%
%TO.N,/VBUS_USB*%
X15920000Y-74700000D03*
%TO.P,J17,B8,SBU2_B8*%
%TO.N,Net-(J5-SBU1)*%
X15920000Y-75200000D03*
%TO.P,J17,B7,D-_B7*%
%TO.N,Net-(U1-USB_DM)*%
X15920000Y-75700000D03*
%TO.P,J17,B6,D+_B6*%
%TO.N,Net-(U1-USB_DP)*%
X15920000Y-76700000D03*
%TO.P,J17,B5,CC2_B5*%
%TO.N,Net-(J5-CC2)*%
X15920000Y-77200000D03*
%TO.P,J17,B4,VBUS_B4*%
%TO.N,/VBUS_USB*%
X15920000Y-77700000D03*
%TO.P,J17,B1,GND_B1*%
%TO.N,GND*%
X15920000Y-79200000D03*
%TO.P,J17,A12,GND_A12*%
X17170000Y-79250000D03*
%TO.P,J17,A9,VBUS_A9*%
%TO.N,/VBUS_USB*%
X17170000Y-77450000D03*
%TO.P,J17,A8,SBU1_A8*%
%TO.N,Net-(J5-SBU1)*%
X17170000Y-76950000D03*
%TO.P,J17,A7,D-_A7*%
%TO.N,Net-(U1-USB_DM)*%
X17170000Y-76450000D03*
%TO.P,J17,A6,D+_A6*%
%TO.N,Net-(U1-USB_DP)*%
X17170000Y-75950000D03*
%TO.P,J17,A5,CC1_A5*%
%TO.N,Net-(J5-CC1)*%
X17170000Y-75450000D03*
%TO.P,J17,A4,VBUS_A4*%
%TO.N,/VBUS_USB*%
X17170000Y-74950000D03*
D30*
%TO.P,J17,A1,GND_A1*%
%TO.N,GND*%
X17170000Y-79750000D03*
D29*
X17170000Y-73150000D03*
D30*
X17170000Y-72650000D03*
%TD*%
D14*
%TO.P,R3,2*%
%TO.N,/RX PIN*%
X45852500Y-27530000D03*
%TO.P,R3,1*%
%TO.N,Net-(J1-Pin_10)*%
X44027500Y-27530000D03*
%TD*%
D22*
%TO.P,J7,16,Pin_16_16*%
%TO.N,Net-(J1-Pin_16)*%
X107805000Y-43405000D03*
%TO.P,J7,15,Pin_15_15*%
%TO.N,+12V*%
X105265000Y-43405000D03*
%TO.P,J7,14,Pin_14_14*%
%TO.N,GND*%
X107805000Y-40865000D03*
%TO.P,J7,13,Pin_13_13*%
X105265000Y-40865000D03*
%TO.P,J7,12,Pin_12_12*%
X107805000Y-38325000D03*
%TO.P,J7,11,Pin_11_11*%
%TO.N,Net-(J10-Pin_2)*%
X105265000Y-38325000D03*
%TO.P,J7,10,Pin_10_10*%
%TO.N,Net-(J4-Pin_10)*%
X107805000Y-35785000D03*
%TO.P,J7,9,Pin_9_9*%
%TO.N,Net-(J10-Pin_3)*%
X105265000Y-35785000D03*
%TO.P,J7,8,Pin_8_8*%
%TO.N,Net-(J4-Pin_8)*%
X107805000Y-33245000D03*
%TO.P,J7,7,Pin_7_7*%
%TO.N,Net-(J10-Pin_4)*%
X105265000Y-33245000D03*
%TO.P,J7,6,Pin_6_6*%
%TO.N,unconnected-(J4-Pin_6-Pad6)*%
X107805000Y-30705000D03*
%TO.P,J7,5,Pin_5_5*%
%TO.N,Net-(J10-Pin_1)*%
X105265000Y-30705000D03*
%TO.P,J7,4,Pin_4_4*%
%TO.N,Net-(J4-Pin_4)*%
X107805000Y-28165000D03*
%TO.P,J7,3,Pin_3_3*%
%TO.N,+3.3V*%
X105265000Y-28165000D03*
%TO.P,J7,2,Pin_2_2*%
%TO.N,Net-(J4-Pin_2)*%
X107805000Y-25625000D03*
D23*
%TO.P,J7,1,Pin_1_1*%
%TO.N,GND*%
X105265000Y-25625000D03*
%TD*%
D24*
%TO.P,R9,2*%
%TO.N,Net-(J15-Pin_2)*%
X124975000Y-57912500D03*
%TO.P,R9,1*%
%TO.N,Net-(U1-GPIO29{slash}ADC3)*%
X124975000Y-56087500D03*
%TD*%
D22*
%TO.P,J9,16,Pin_16_16*%
%TO.N,Net-(J1-Pin_16)*%
X41760000Y-44040000D03*
%TO.P,J9,15,Pin_15_15*%
%TO.N,+12V*%
X39220000Y-44040000D03*
%TO.P,J9,14,Pin_14_14*%
%TO.N,GND*%
X41760000Y-41500000D03*
%TO.P,J9,13,Pin_13_13*%
X39220000Y-41500000D03*
%TO.P,J9,12,Pin_12_12*%
X41760000Y-38960000D03*
%TO.P,J9,11,Pin_11_11*%
%TO.N,Net-(J1-Pin_11)*%
X39220000Y-38960000D03*
%TO.P,J9,10,Pin_10_10*%
%TO.N,Net-(J1-Pin_10)*%
X41760000Y-36420000D03*
%TO.P,J9,9,Pin_9_9*%
%TO.N,Net-(J1-Pin_9)*%
X39220000Y-36420000D03*
%TO.P,J9,8,Pin_8_8*%
%TO.N,Net-(J1-Pin_8)*%
X41760000Y-33880000D03*
%TO.P,J9,7,Pin_7_7*%
%TO.N,Net-(J1-Pin_7)*%
X39220000Y-33880000D03*
%TO.P,J9,6,Pin_6_6*%
%TO.N,unconnected-(J1-Pin_6-Pad6)*%
X41760000Y-31340000D03*
%TO.P,J9,5,Pin_5_5*%
%TO.N,Net-(J1-Pin_5)*%
X39220000Y-31340000D03*
%TO.P,J9,4,Pin_4_4*%
%TO.N,Net-(J1-Pin_4)*%
X41760000Y-28800000D03*
%TO.P,J9,3,Pin_3_3*%
%TO.N,+3.3V*%
X39220000Y-28800000D03*
%TO.P,J9,2,Pin_2_2*%
%TO.N,Net-(J1-Pin_2)*%
X41760000Y-26260000D03*
D23*
%TO.P,J9,1,Pin_1_1*%
%TO.N,GND*%
X39220000Y-26260000D03*
%TD*%
D31*
%TO.P,U3,3,VI_3*%
%TO.N,+5V*%
X130705000Y-44010000D03*
D32*
%TO.P,U3,2,VO_2*%
%TO.N,+3.3V*%
X137005000Y-41710000D03*
D31*
X130705000Y-41710000D03*
%TO.P,U3,1,GND_1*%
%TO.N,GND*%
X130705000Y-39410000D03*
%TD*%
D20*
%TO.P,J1,4,Pin_4_4*%
%TO.N,Net-(J3-Pin_7)*%
X88000000Y-16100000D03*
%TO.P,J1,3,Pin_3_3*%
%TO.N,Net-(J3-Pin_9)*%
X85500000Y-16100000D03*
%TO.P,J1,2,Pin_2_2*%
%TO.N,Net-(J3-Pin_11)*%
X83000000Y-16100000D03*
D21*
%TO.P,J1,1,Pin_1_1*%
%TO.N,Net-(J3-Pin_5)*%
X80500000Y-16100000D03*
%TD*%
D15*
%TO.P,C14,2*%
%TO.N,GND*%
X19500000Y-38715000D03*
%TO.P,C14,1*%
%TO.N,+12V*%
X17950000Y-38715000D03*
%TD*%
D33*
%TO.P,U1,8,VCC_8*%
%TO.N,+3.3V*%
X88412500Y-50685000D03*
%TO.P,U1,7,~{HOLD}/~{RESET}/IO_{3}_7*%
%TO.N,Net-(U1-QSPI_SD3)*%
X88412500Y-51955000D03*
%TO.P,U1,6,CLK_6*%
%TO.N,Net-(U1-QSPI_SCLK)*%
X88412500Y-53225000D03*
%TO.P,U1,5,DI/IO_{0}_5*%
%TO.N,Net-(U1-QSPI_SD0)*%
X88412500Y-54495000D03*
%TO.P,U1,4,GND_4*%
%TO.N,GND*%
X81237500Y-54495000D03*
%TO.P,U1,3,~{WP}/IO_{2}_3*%
%TO.N,Net-(U1-QSPI_SD2)*%
X81237500Y-53225000D03*
%TO.P,U1,2,DO/IO_{1}_2*%
%TO.N,Net-(U1-QSPI_SD1)*%
X81237500Y-51955000D03*
%TO.P,U1,1,~{CS}_1*%
%TO.N,Net-(U1-~{QSPI_SS})*%
X81237500Y-50685000D03*
%TD*%
D14*
%TO.P,R17,2*%
%TO.N,/RX PIN*%
X66807500Y-27530000D03*
%TO.P,R17,1*%
%TO.N,Net-(J2-Pin_10)*%
X64982500Y-27530000D03*
%TD*%
D15*
%TO.P,C1,2*%
%TO.N,+3.3V*%
X117810000Y-61000000D03*
%TO.P,C1,1*%
%TO.N,GND*%
X116260000Y-61000000D03*
%TD*%
%TO.P,C18,2*%
%TO.N,GND*%
X19500000Y-33000000D03*
%TO.P,C18,1*%
%TO.N,+12V*%
X17950000Y-33000000D03*
%TD*%
%TO.P,C9,2*%
%TO.N,+3.3V*%
X106380000Y-61000000D03*
%TO.P,C9,1*%
%TO.N,GND*%
X104830000Y-61000000D03*
%TD*%
%TO.P,C15,2*%
%TO.N,+12V*%
X52065000Y-29435000D03*
%TO.P,C15,1*%
%TO.N,GND*%
X50515000Y-29435000D03*
%TD*%
D34*
%TO.P,U4,8,PG_8*%
%TO.N,unconnected-(U4-PG-Pad8)*%
X20612500Y-16525000D03*
%TO.P,U4,7,SW_7*%
%TO.N,Net-(U4-SW)*%
X20612500Y-17175000D03*
%TO.P,U4,6,VOS_6*%
%TO.N,+5V*%
X20612500Y-17825000D03*
%TO.P,U4,5,FB_5*%
%TO.N,Net-(U4-FB)*%
X20612500Y-18475000D03*
%TO.P,U4,4,AGND_4*%
%TO.N,GND*%
X16387500Y-18475000D03*
%TO.P,U4,3,EN_3*%
%TO.N,+12V*%
X16387500Y-17825000D03*
%TO.P,U4,2,VIN_2*%
X16387500Y-17175000D03*
%TO.P,U4,1,PGND_1*%
%TO.N,GND*%
X16387500Y-16525000D03*
%TD*%
D15*
%TO.P,C11,2*%
%TO.N,+12V*%
X49525000Y-29435000D03*
%TO.P,C11,1*%
%TO.N,GND*%
X47975000Y-29435000D03*
%TD*%
D20*
%TO.P,J2,4,Pin_4_4*%
%TO.N,Net-(J10-Pin_4)*%
X112765000Y-16100000D03*
%TO.P,J2,3,Pin_3_3*%
%TO.N,Net-(J10-Pin_3)*%
X110265000Y-16100000D03*
%TO.P,J2,2,Pin_2_2*%
%TO.N,Net-(J10-Pin_2)*%
X107765000Y-16100000D03*
D21*
%TO.P,J2,1,Pin_1_1*%
%TO.N,Net-(J10-Pin_1)*%
X105265000Y-16100000D03*
%TD*%
D22*
%TO.P,J8,16,Pin_16_16*%
%TO.N,Net-(J1-Pin_16)*%
X62720000Y-44040000D03*
%TO.P,J8,15,Pin_15_15*%
%TO.N,+12V*%
X60180000Y-44040000D03*
%TO.P,J8,14,Pin_14_14*%
%TO.N,GND*%
X62720000Y-41500000D03*
%TO.P,J8,13,Pin_13_13*%
X60180000Y-41500000D03*
%TO.P,J8,12,Pin_12_12*%
X62720000Y-38960000D03*
%TO.P,J8,11,Pin_11_11*%
%TO.N,Net-(J2-Pin_11)*%
X60180000Y-38960000D03*
%TO.P,J8,10,Pin_10_10*%
%TO.N,Net-(J2-Pin_10)*%
X62720000Y-36420000D03*
%TO.P,J8,9,Pin_9_9*%
%TO.N,Net-(J2-Pin_9)*%
X60180000Y-36420000D03*
%TO.P,J8,8,Pin_8_8*%
%TO.N,Net-(J2-Pin_8)*%
X62720000Y-33880000D03*
%TO.P,J8,7,Pin_7_7*%
%TO.N,Net-(J2-Pin_7)*%
X60180000Y-33880000D03*
%TO.P,J8,6,Pin_6_6*%
%TO.N,unconnected-(J2-Pin_6-Pad6)*%
X62720000Y-31340000D03*
%TO.P,J8,5,Pin_5_5*%
%TO.N,Net-(J2-Pin_5)*%
X60180000Y-31340000D03*
%TO.P,J8,4,Pin_4_4*%
%TO.N,Net-(J2-Pin_4)*%
X62720000Y-28800000D03*
%TO.P,J8,3,Pin_3_3*%
%TO.N,+3.3V*%
X60180000Y-28800000D03*
%TO.P,J8,2,Pin_2_2*%
%TO.N,Net-(J2-Pin_2)*%
X62720000Y-26260000D03*
D23*
%TO.P,J8,1,Pin_1_1*%
%TO.N,GND*%
X60180000Y-26260000D03*
%TD*%
D12*
%TO.P,J13,2,Pin_2_2*%
%TO.N,Net-(J12-Pin_2)*%
X141500000Y-71500000D03*
D13*
%TO.P,J13,1,Pin_1_1*%
%TO.N,GND*%
X144000000Y-71500000D03*
%TD*%
D24*
%TO.P,R12,2*%
%TO.N,Net-(J14-Pin_2)*%
X128150000Y-57912500D03*
%TO.P,R12,1*%
%TO.N,Net-(U1-GPIO28{slash}ADC2)*%
X128150000Y-56087500D03*
%TD*%
D35*
%TO.P,Q1,3,D_3*%
%TO.N,GND*%
X122077500Y-18640000D03*
%TO.P,Q1,2,S_2*%
X120202500Y-19590000D03*
%TO.P,Q1,1,G_1*%
%TO.N,Net-(Q1-G)*%
X120202500Y-17690000D03*
%TD*%
D14*
%TO.P,R1,2*%
%TO.N,+3.3V*%
X45852500Y-26260000D03*
%TO.P,R1,1*%
%TO.N,Net-(J1-Pin_8)*%
X44027500Y-26260000D03*
%TD*%
D15*
%TO.P,C8,2*%
%TO.N,+12V*%
X95245000Y-28800000D03*
%TO.P,C8,1*%
%TO.N,GND*%
X93695000Y-28800000D03*
%TD*%
D36*
%TO.P,SW1,1,1_1*%
%TO.N,Net-(J11-~{RESET})*%
X50515000Y-51080000D03*
X57015000Y-51080000D03*
%TO.P,SW1,2,2_2*%
%TO.N,GND*%
X50515000Y-55580000D03*
X57015000Y-55580000D03*
%TD*%
D14*
%TO.P,R16,2*%
%TO.N,Net-(U4-FB)*%
X23137500Y-21590000D03*
%TO.P,R16,1*%
%TO.N,+5V*%
X21312500Y-21590000D03*
%TD*%
%TO.P,R6,2*%
%TO.N,GND*%
X25412500Y-76000000D03*
%TO.P,R6,1*%
%TO.N,Net-(J5-CC2)*%
X23587500Y-76000000D03*
%TD*%
%TO.P,R15,2*%
%TO.N,Net-(U1-GPIO10)*%
X120147500Y-24355000D03*
%TO.P,R15,1*%
%TO.N,Net-(Q2-G)*%
X118322500Y-24355000D03*
%TD*%
D22*
%TO.P,J6,16,Pin_16_16*%
%TO.N,Net-(J1-Pin_16)*%
X83040000Y-44040000D03*
%TO.P,J6,15,Pin_15_15*%
%TO.N,+12V*%
X80500000Y-44040000D03*
%TO.P,J6,14,Pin_14_14*%
%TO.N,GND*%
X83040000Y-41500000D03*
%TO.P,J6,13,Pin_13_13*%
X80500000Y-41500000D03*
%TO.P,J6,12,Pin_12_12*%
X83040000Y-38960000D03*
%TO.P,J6,11,Pin_11_11*%
%TO.N,Net-(J3-Pin_11)*%
X80500000Y-38960000D03*
%TO.P,J6,10,Pin_10_10*%
%TO.N,Net-(J3-Pin_10)*%
X83040000Y-36420000D03*
%TO.P,J6,9,Pin_9_9*%
%TO.N,Net-(J3-Pin_9)*%
X80500000Y-36420000D03*
%TO.P,J6,8,Pin_8_8*%
%TO.N,Net-(J3-Pin_8)*%
X83040000Y-33880000D03*
%TO.P,J6,7,Pin_7_7*%
%TO.N,Net-(J3-Pin_7)*%
X80500000Y-33880000D03*
%TO.P,J6,6,Pin_6_6*%
%TO.N,unconnected-(J3-Pin_6-Pad6)*%
X83040000Y-31340000D03*
%TO.P,J6,5,Pin_5_5*%
%TO.N,Net-(J3-Pin_5)*%
X80500000Y-31340000D03*
%TO.P,J6,4,Pin_4_4*%
%TO.N,Net-(J3-Pin_4)*%
X83040000Y-28800000D03*
%TO.P,J6,3,Pin_3_3*%
%TO.N,+3.3V*%
X80500000Y-28800000D03*
%TO.P,J6,2,Pin_2_2*%
%TO.N,Net-(J3-Pin_2)*%
X83040000Y-26260000D03*
D23*
%TO.P,J6,1,Pin_1_1*%
%TO.N,GND*%
X80500000Y-26260000D03*
%TD*%
D37*
%TO.P,L1,1,1_1*%
%TO.N,Net-(U4-SW)*%
X23690000Y-16510000D03*
%TO.P,L1,2,2_2*%
%TO.N,+5V*%
X25840000Y-16510000D03*
%TD*%
D15*
%TO.P,C19,2*%
%TO.N,+12V*%
X72385000Y-28800000D03*
%TO.P,C19,1*%
%TO.N,GND*%
X70835000Y-28800000D03*
%TD*%
D11*
%TO.P,J10,2,Pin_2_2*%
%TO.N,GND*%
X158420000Y-35420000D03*
D10*
%TO.P,J10,1,Pin_1_1*%
%TO.N,+12V*%
X158420000Y-40500000D03*
%TD*%
D14*
%TO.P,R13,2*%
%TO.N,/RX PIN*%
X87127500Y-27530000D03*
%TO.P,R13,1*%
%TO.N,Net-(J3-Pin_10)*%
X85302500Y-27530000D03*
%TD*%
D24*
%TO.P,R20,2*%
%TO.N,Net-(J13-Pin_2)*%
X131325000Y-57912500D03*
%TO.P,R20,1*%
%TO.N,Net-(U1-GPIO27{slash}ADC1)*%
X131325000Y-56087500D03*
%TD*%
D11*
%TO.P,J12,2,Pin_2_2*%
%TO.N,GND*%
X158420000Y-60920000D03*
D10*
%TO.P,J12,1,Pin_1_1*%
%TO.N,+12V*%
X158420000Y-66000000D03*
%TD*%
D15*
%TO.P,C3,2*%
%TO.N,+12V*%
X29985000Y-22860000D03*
%TO.P,C3,1*%
%TO.N,GND*%
X28435000Y-22860000D03*
%TD*%
D35*
%TO.P,Q2,3,D_3*%
%TO.N,GND*%
X124617500Y-24990000D03*
%TO.P,Q2,2,S_2*%
X122742500Y-25940000D03*
%TO.P,Q2,1,G_1*%
%TO.N,Net-(Q2-G)*%
X122742500Y-24040000D03*
%TD*%
D14*
%TO.P,R11,2*%
%TO.N,GND*%
X120147500Y-21180000D03*
%TO.P,R11,1*%
%TO.N,Net-(Q1-G)*%
X118322500Y-21180000D03*
%TD*%
D11*
%TO.P,J5,2,Pin_2_2*%
%TO.N,GND*%
X158420000Y-22920000D03*
D10*
%TO.P,J5,1,Pin_1_1*%
%TO.N,+12V*%
X158420000Y-28000000D03*
%TD*%
D14*
%TO.P,R8,2*%
%TO.N,Net-(J4-Pin_4)*%
X116972500Y-18640000D03*
%TO.P,R8,1*%
%TO.N,Net-(Q1-G)*%
X115147500Y-18640000D03*
%TD*%
D12*
%TO.P,J16,2,Pin_2_2*%
%TO.N,Net-(J14-Pin_2)*%
X122500000Y-71500000D03*
D13*
%TO.P,J16,1,Pin_1_1*%
%TO.N,GND*%
X125000000Y-71500000D03*
%TD*%
D15*
%TO.P,C5,2*%
%TO.N,+3.3V*%
X103205000Y-61000000D03*
%TO.P,C5,1*%
%TO.N,GND*%
X101655000Y-61000000D03*
%TD*%
M02*
