%TF.GenerationSoftware,KiCad,Pcbnew,10.0.0*%
%TF.CreationDate,2026-04-08T17:33:32+02:00*%
%TF.ProjectId,rp_2040_extruder_board,72705f32-3034-4305-9f65-787472756465,rev?*%
%TF.SameCoordinates,Original*%
%TF.FileFunction,Copper,L2,Bot*%
%TF.FilePolarity,Positive*%
%FSLAX46Y46*%
G04 Gerber Fmt 4.6, Leading zero omitted, Abs format (unit mm)*
G04 Created by KiCad (PCBNEW 10.0.0) date 2026-04-08 17:33:32*
%MOMM*%
%LPD*%
G01*
G04 APERTURE LIST*
G04 Aperture macros list*
%AMRoundRect*
0 Rectangle with rounded corners*
0 $1 Rounding radius*
0 $2 $3 $4 $5 $6 $7 $8 $9 X,Y pos of 4 corners*
0 Add a 4 corners polygon primitive as box body*
4,1,4,$2,$3,$4,$5,$6,$7,$8,$9,$2,$3,0*
0 Add four circle primitives for the rounded corners*
1,1,$1+$1,$2,$3*
1,1,$1+$1,$4,$5*
1,1,$1+$1,$6,$7*
1,1,$1+$1,$8,$9*
0 Add four rect primitives between the rounded corners*
20,1,$1+$1,$2,$3,$4,$5,0*
20,1,$1+$1,$4,$5,$6,$7,0*
20,1,$1+$1,$6,$7,$8,$9,0*
20,1,$1+$1,$8,$9,$2,$3,0*%
G04 Aperture macros list end*
%TA.AperFunction,ComponentPad*%
%ADD10C,2.000000*%
%TD*%
%TA.AperFunction,ComponentPad*%
%ADD11RoundRect,0.250000X1.050000X-1.050000X1.050000X1.050000X-1.050000X1.050000X-1.050000X-1.050000X0*%
%TD*%
%TA.AperFunction,ComponentPad*%
%ADD12C,2.600000*%
%TD*%
%TA.AperFunction,ComponentPad*%
%ADD13O,1.700000X2.000000*%
%TD*%
%TA.AperFunction,ComponentPad*%
%ADD14RoundRect,0.250000X0.600000X0.750000X-0.600000X0.750000X-0.600000X-0.750000X0.600000X-0.750000X0*%
%TD*%
%TA.AperFunction,ComponentPad*%
%ADD15RoundRect,0.250000X-1.050000X1.050000X-1.050000X-1.050000X1.050000X-1.050000X1.050000X1.050000X0*%
%TD*%
%TA.AperFunction,ComponentPad*%
%ADD16O,1.700000X1.950000*%
%TD*%
%TA.AperFunction,ComponentPad*%
%ADD17RoundRect,0.250000X-0.600000X-0.725000X0.600000X-0.725000X0.600000X0.725000X-0.600000X0.725000X0*%
%TD*%
%TA.AperFunction,ComponentPad*%
%ADD18C,1.700000*%
%TD*%
%TA.AperFunction,ComponentPad*%
%ADD19R,1.700000X1.700000*%
%TD*%
%TA.AperFunction,ComponentPad*%
%ADD20O,2.150000X0.950000*%
%TD*%
%TA.AperFunction,ComponentPad*%
%ADD21O,1.950000X0.950000*%
%TD*%
G04 APERTURE END LIST*
D10*
%TO.P,SW1,2,2_2*%
%TO.N,GND*%
X38250000Y-67250000D03*
X31750000Y-67250000D03*
%TO.P,SW1,1,1_1*%
%TO.N,Net-(J11-~{RESET})*%
X38250000Y-62750000D03*
X31750000Y-62750000D03*
%TD*%
D11*
%TO.P,J11,1,Pin_1_1*%
%TO.N,+12V*%
X94000000Y-85045000D03*
D12*
%TO.P,J11,2,Pin_2_2*%
%TO.N,GND*%
X94000000Y-79965000D03*
%TD*%
D13*
%TO.P,J15,2,Pin_2_2*%
%TO.N,Net-(J13-Pin_2)*%
X66000000Y-97000000D03*
D14*
%TO.P,J15,1,Pin_1_1*%
%TO.N,GND*%
X68500000Y-97000000D03*
%TD*%
D12*
%TO.P,J14,2,Pin_2_2*%
%TO.N,GND*%
X5500000Y-41080000D03*
D15*
%TO.P,J14,1,Pin_1_1*%
%TO.N,+12V*%
X5500000Y-36000000D03*
%TD*%
D16*
%TO.P,J4,4,Pin_4_4*%
%TO.N,Net-(J1-Pin_7)*%
X39500000Y-16100000D03*
%TO.P,J4,3,Pin_3_3*%
%TO.N,Net-(J1-Pin_9)*%
X37000000Y-16100000D03*
%TO.P,J4,2,Pin_2_2*%
%TO.N,Net-(J1-Pin_11)*%
X34500000Y-16100000D03*
D17*
%TO.P,J4,1,Pin_1_1*%
%TO.N,Net-(J1-Pin_5)*%
X32000000Y-16100000D03*
%TD*%
D18*
%TO.P,JP1,2,B_2*%
%TO.N,/5V_MAIN*%
X24530000Y-96065000D03*
D19*
%TO.P,JP1,1,A_1*%
%TO.N,/VBUS_USB*%
X24530000Y-93525000D03*
%TD*%
D16*
%TO.P,J3,4,Pin_4_4*%
%TO.N,Net-(J2-Pin_7)*%
X55500000Y-16000000D03*
%TO.P,J3,3,Pin_3_3*%
%TO.N,Net-(J2-Pin_9)*%
X53000000Y-16000000D03*
%TO.P,J3,2,Pin_2_2*%
%TO.N,Net-(J2-Pin_11)*%
X50500000Y-16000000D03*
D17*
%TO.P,J3,1,Pin_1_1*%
%TO.N,Net-(J2-Pin_5)*%
X48000000Y-16000000D03*
%TD*%
D13*
%TO.P,J19,2,Pin_2_2*%
%TO.N,Net-(J15-Pin_2)*%
X48175000Y-96910000D03*
D14*
%TO.P,J19,1,Pin_1_1*%
%TO.N,GND*%
X50675000Y-96910000D03*
%TD*%
D20*
%TO.P,J17,SH,SHIELD_SH*%
%TO.N,GND*%
X5825000Y-99450000D03*
D21*
X9025000Y-99450000D03*
D20*
X5825000Y-90550000D03*
D21*
X9025000Y-90550000D03*
%TD*%
D18*
%TO.P,J7,16,Pin_16_16*%
%TO.N,Net-(J1-Pin_16)*%
X82540000Y-43040000D03*
%TO.P,J7,15,Pin_15_15*%
%TO.N,+12V*%
X80000000Y-43040000D03*
%TO.P,J7,14,Pin_14_14*%
%TO.N,GND*%
X82540000Y-40500000D03*
%TO.P,J7,13,Pin_13_13*%
X80000000Y-40500000D03*
%TO.P,J7,12,Pin_12_12*%
X82540000Y-37960000D03*
%TO.P,J7,11,Pin_11_11*%
%TO.N,Net-(J10-Pin_2)*%
X80000000Y-37960000D03*
%TO.P,J7,10,Pin_10_10*%
%TO.N,Net-(J4-Pin_10)*%
X82540000Y-35420000D03*
%TO.P,J7,9,Pin_9_9*%
%TO.N,Net-(J10-Pin_3)*%
X80000000Y-35420000D03*
%TO.P,J7,8,Pin_8_8*%
%TO.N,Net-(J4-Pin_8)*%
X82540000Y-32880000D03*
%TO.P,J7,7,Pin_7_7*%
%TO.N,Net-(J10-Pin_4)*%
X80000000Y-32880000D03*
%TO.P,J7,6,Pin_6_6*%
%TO.N,unconnected-(J4-Pin_6-Pad6)*%
X82540000Y-30340000D03*
%TO.P,J7,5,Pin_5_5*%
%TO.N,Net-(J10-Pin_1)*%
X80000000Y-30340000D03*
%TO.P,J7,4,Pin_4_4*%
%TO.N,Net-(J4-Pin_4)*%
X82540000Y-27800000D03*
%TO.P,J7,3,Pin_3_3*%
%TO.N,+3.3V*%
X80000000Y-27800000D03*
%TO.P,J7,2,Pin_2_2*%
%TO.N,Net-(J4-Pin_2)*%
X82540000Y-25260000D03*
D19*
%TO.P,J7,1,Pin_1_1*%
%TO.N,GND*%
X80000000Y-25260000D03*
%TD*%
D18*
%TO.P,J9,16,Pin_16_16*%
%TO.N,Net-(J1-Pin_16)*%
X35540000Y-43700000D03*
%TO.P,J9,15,Pin_15_15*%
%TO.N,+12V*%
X33000000Y-43700000D03*
%TO.P,J9,14,Pin_14_14*%
%TO.N,GND*%
X35540000Y-41160000D03*
%TO.P,J9,13,Pin_13_13*%
X33000000Y-41160000D03*
%TO.P,J9,12,Pin_12_12*%
X35540000Y-38620000D03*
%TO.P,J9,11,Pin_11_11*%
%TO.N,Net-(J1-Pin_11)*%
X33000000Y-38620000D03*
%TO.P,J9,10,Pin_10_10*%
%TO.N,Net-(J1-Pin_10)*%
X35540000Y-36080000D03*
%TO.P,J9,9,Pin_9_9*%
%TO.N,Net-(J1-Pin_9)*%
X33000000Y-36080000D03*
%TO.P,J9,8,Pin_8_8*%
%TO.N,Net-(J1-Pin_8)*%
X35540000Y-33540000D03*
%TO.P,J9,7,Pin_7_7*%
%TO.N,Net-(J1-Pin_7)*%
X33000000Y-33540000D03*
%TO.P,J9,6,Pin_6_6*%
%TO.N,unconnected-(J1-Pin_6-Pad6)*%
X35540000Y-31000000D03*
%TO.P,J9,5,Pin_5_5*%
%TO.N,Net-(J1-Pin_5)*%
X33000000Y-31000000D03*
%TO.P,J9,4,Pin_4_4*%
%TO.N,Net-(J1-Pin_4)*%
X35540000Y-28460000D03*
%TO.P,J9,3,Pin_3_3*%
%TO.N,+3.3V*%
X33000000Y-28460000D03*
%TO.P,J9,2,Pin_2_2*%
%TO.N,Net-(J1-Pin_2)*%
X35540000Y-25920000D03*
D19*
%TO.P,J9,1,Pin_1_1*%
%TO.N,GND*%
X33000000Y-25920000D03*
%TD*%
D16*
%TO.P,J1,4,Pin_4_4*%
%TO.N,Net-(J3-Pin_7)*%
X70500000Y-16100000D03*
%TO.P,J1,3,Pin_3_3*%
%TO.N,Net-(J3-Pin_9)*%
X68000000Y-16100000D03*
%TO.P,J1,2,Pin_2_2*%
%TO.N,Net-(J3-Pin_11)*%
X65500000Y-16100000D03*
D17*
%TO.P,J1,1,Pin_1_1*%
%TO.N,Net-(J3-Pin_5)*%
X63000000Y-16100000D03*
%TD*%
D16*
%TO.P,J2,4,Pin_4_4*%
%TO.N,Net-(J10-Pin_4)*%
X86000000Y-16000000D03*
%TO.P,J2,3,Pin_3_3*%
%TO.N,Net-(J10-Pin_3)*%
X83500000Y-16000000D03*
%TO.P,J2,2,Pin_2_2*%
%TO.N,Net-(J10-Pin_2)*%
X81000000Y-16000000D03*
D17*
%TO.P,J2,1,Pin_1_1*%
%TO.N,Net-(J10-Pin_1)*%
X78500000Y-16000000D03*
%TD*%
D18*
%TO.P,J8,16,Pin_16_16*%
%TO.N,Net-(J1-Pin_16)*%
X52765000Y-43890000D03*
%TO.P,J8,15,Pin_15_15*%
%TO.N,+12V*%
X50225000Y-43890000D03*
%TO.P,J8,14,Pin_14_14*%
%TO.N,GND*%
X52765000Y-41350000D03*
%TO.P,J8,13,Pin_13_13*%
X50225000Y-41350000D03*
%TO.P,J8,12,Pin_12_12*%
X52765000Y-38810000D03*
%TO.P,J8,11,Pin_11_11*%
%TO.N,Net-(J2-Pin_11)*%
X50225000Y-38810000D03*
%TO.P,J8,10,Pin_10_10*%
%TO.N,Net-(J2-Pin_10)*%
X52765000Y-36270000D03*
%TO.P,J8,9,Pin_9_9*%
%TO.N,Net-(J2-Pin_9)*%
X50225000Y-36270000D03*
%TO.P,J8,8,Pin_8_8*%
%TO.N,Net-(J2-Pin_8)*%
X52765000Y-33730000D03*
%TO.P,J8,7,Pin_7_7*%
%TO.N,Net-(J2-Pin_7)*%
X50225000Y-33730000D03*
%TO.P,J8,6,Pin_6_6*%
%TO.N,unconnected-(J2-Pin_6-Pad6)*%
X52765000Y-31190000D03*
%TO.P,J8,5,Pin_5_5*%
%TO.N,Net-(J2-Pin_5)*%
X50225000Y-31190000D03*
%TO.P,J8,4,Pin_4_4*%
%TO.N,Net-(J2-Pin_4)*%
X52765000Y-28650000D03*
%TO.P,J8,3,Pin_3_3*%
%TO.N,+3.3V*%
X50225000Y-28650000D03*
%TO.P,J8,2,Pin_2_2*%
%TO.N,Net-(J2-Pin_2)*%
X52765000Y-26110000D03*
D19*
%TO.P,J8,1,Pin_1_1*%
%TO.N,GND*%
X50225000Y-26110000D03*
%TD*%
D13*
%TO.P,J13,2,Pin_2_2*%
%TO.N,Net-(J12-Pin_2)*%
X75000000Y-97000000D03*
D14*
%TO.P,J13,1,Pin_1_1*%
%TO.N,GND*%
X77500000Y-97000000D03*
%TD*%
D18*
%TO.P,J6,16,Pin_16_16*%
%TO.N,Net-(J1-Pin_16)*%
X68540000Y-43620000D03*
%TO.P,J6,15,Pin_15_15*%
%TO.N,+12V*%
X66000000Y-43620000D03*
%TO.P,J6,14,Pin_14_14*%
%TO.N,GND*%
X68540000Y-41080000D03*
%TO.P,J6,13,Pin_13_13*%
X66000000Y-41080000D03*
%TO.P,J6,12,Pin_12_12*%
X68540000Y-38540000D03*
%TO.P,J6,11,Pin_11_11*%
%TO.N,Net-(J3-Pin_11)*%
X66000000Y-38540000D03*
%TO.P,J6,10,Pin_10_10*%
%TO.N,Net-(J3-Pin_10)*%
X68540000Y-36000000D03*
%TO.P,J6,9,Pin_9_9*%
%TO.N,Net-(J3-Pin_9)*%
X66000000Y-36000000D03*
%TO.P,J6,8,Pin_8_8*%
%TO.N,Net-(J3-Pin_8)*%
X68540000Y-33460000D03*
%TO.P,J6,7,Pin_7_7*%
%TO.N,Net-(J3-Pin_7)*%
X66000000Y-33460000D03*
%TO.P,J6,6,Pin_6_6*%
%TO.N,unconnected-(J3-Pin_6-Pad6)*%
X68540000Y-30920000D03*
%TO.P,J6,5,Pin_5_5*%
%TO.N,Net-(J3-Pin_5)*%
X66000000Y-30920000D03*
%TO.P,J6,4,Pin_4_4*%
%TO.N,Net-(J3-Pin_4)*%
X68540000Y-28380000D03*
%TO.P,J6,3,Pin_3_3*%
%TO.N,+3.3V*%
X66000000Y-28380000D03*
%TO.P,J6,2,Pin_2_2*%
%TO.N,Net-(J3-Pin_2)*%
X68540000Y-25840000D03*
D19*
%TO.P,J6,1,Pin_1_1*%
%TO.N,GND*%
X66000000Y-25840000D03*
%TD*%
D12*
%TO.P,J10,2,Pin_2_2*%
%TO.N,GND*%
X94000000Y-68420000D03*
D11*
%TO.P,J10,1,Pin_1_1*%
%TO.N,+12V*%
X94000000Y-73500000D03*
%TD*%
D12*
%TO.P,J12,2,Pin_2_2*%
%TO.N,GND*%
X94000000Y-91420000D03*
D11*
%TO.P,J12,1,Pin_1_1*%
%TO.N,+12V*%
X94000000Y-96500000D03*
%TD*%
D12*
%TO.P,J5,2,Pin_2_2*%
%TO.N,GND*%
X94000000Y-56920000D03*
D11*
%TO.P,J5,1,Pin_1_1*%
%TO.N,+12V*%
X94000000Y-62000000D03*
%TD*%
D13*
%TO.P,J16,2,Pin_2_2*%
%TO.N,Net-(J14-Pin_2)*%
X57000000Y-97000000D03*
D14*
%TO.P,J16,1,Pin_1_1*%
%TO.N,GND*%
X59500000Y-97000000D03*
%TD*%
M02*
