%TF.GenerationSoftware,KiCad,Pcbnew,10.0.0*%
%TF.CreationDate,2026-04-08T17:06:55+02:00*%
%TF.ProjectId,rp_2040_extruder_board,72705f32-3034-4305-9f65-787472756465,rev?*%
%TF.SameCoordinates,Original*%
%TF.FileFunction,Paste,Top*%
%TF.FilePolarity,Positive*%
%FSLAX46Y46*%
G04 Gerber Fmt 4.6, Leading zero omitted, Abs format (unit mm)*
G04 Created by KiCad (PCBNEW 10.0.0) date 2026-04-08 17:06:55*
%MOMM*%
%LPD*%
G01*
G04 APERTURE LIST*
G04 Aperture macros list*
%AMRoundRect*
0 Rectangle with rounded corners*
0 $1 Rounding radius*
0 $2 $3 $4 $5 $6 $7 $8 $9 X,Y pos of 4 corners*
0 Add a 4 corners polygon primitive as box body*
4,1,4,$2,$3,$4,$5,$6,$7,$8,$9,$2,$3,0*
0 Add four circle primitives for the rounded corners*
1,1,$1+$1,$2,$3*
1,1,$1+$1,$4,$5*
1,1,$1+$1,$6,$7*
1,1,$1+$1,$8,$9*
0 Add four rect primitives between the rounded corners*
20,1,$1+$1,$2,$3,$4,$5,0*
20,1,$1+$1,$4,$5,$6,$7,0*
20,1,$1+$1,$6,$7,$8,$9,0*
20,1,$1+$1,$8,$9,$2,$3,0*%
G04 Aperture macros list end*
%ADD10RoundRect,0.250000X-0.262500X-0.450000X0.262500X-0.450000X0.262500X0.450000X-0.262500X0.450000X0*%
%ADD11RoundRect,0.225000X-0.225000X-0.250000X0.225000X-0.250000X0.225000X0.250000X-0.225000X0.250000X0*%
%ADD12RoundRect,0.050000X-0.050000X-0.387500X0.050000X-0.387500X0.050000X0.387500X-0.050000X0.387500X0*%
%ADD13RoundRect,0.050000X-0.387500X-0.050000X0.387500X-0.050000X0.387500X0.050000X-0.387500X0.050000X0*%
%ADD14RoundRect,0.249999X-0.395001X-0.395001X0.395001X-0.395001X0.395001X0.395001X-0.395001X0.395001X0*%
%ADD15RoundRect,0.250000X-0.450000X0.262500X-0.450000X-0.262500X0.450000X-0.262500X0.450000X0.262500X0*%
%ADD16RoundRect,0.250000X-0.450000X-0.350000X0.450000X-0.350000X0.450000X0.350000X-0.450000X0.350000X0*%
%ADD17RoundRect,0.062500X-0.312500X0.062500X-0.312500X-0.062500X0.312500X-0.062500X0.312500X0.062500X0*%
%ADD18RoundRect,0.075000X-0.300000X0.075000X-0.300000X-0.075000X0.300000X-0.075000X0.300000X0.075000X0*%
%ADD19RoundRect,0.375000X-0.625000X-0.375000X0.625000X-0.375000X0.625000X0.375000X-0.625000X0.375000X0*%
%ADD20RoundRect,0.500000X-0.500000X-1.400000X0.500000X-1.400000X0.500000X1.400000X-0.500000X1.400000X0*%
%ADD21RoundRect,0.162500X-0.650000X-0.162500X0.650000X-0.162500X0.650000X0.162500X-0.650000X0.162500X0*%
%ADD22RoundRect,0.100000X-0.712500X-0.100000X0.712500X-0.100000X0.712500X0.100000X-0.712500X0.100000X0*%
%ADD23RoundRect,0.150000X-0.587500X-0.150000X0.587500X-0.150000X0.587500X0.150000X-0.587500X0.150000X0*%
%ADD24RoundRect,0.250000X-0.375000X-0.850000X0.375000X-0.850000X0.375000X0.850000X-0.375000X0.850000X0*%
G04 APERTURE END LIST*
D10*
%TO.C,R7*%
X66807500Y-26260000D03*
X64982500Y-26260000D03*
%TD*%
D11*
%TO.C,C2*%
X76830000Y-34515000D03*
X75280000Y-34515000D03*
%TD*%
%TO.C,C17*%
X114000000Y-61000000D03*
X112450000Y-61000000D03*
%TD*%
%TO.C,C12*%
X97785000Y-28800000D03*
X96235000Y-28800000D03*
%TD*%
%TO.C,C7*%
X32380000Y-30070000D03*
X30830000Y-30070000D03*
%TD*%
D12*
%TO.C,U2*%
X67600000Y-55262500D03*
X68000000Y-55262500D03*
X68400000Y-55262500D03*
X68800000Y-55262500D03*
X69200000Y-55262500D03*
X69600000Y-55262500D03*
X70000000Y-55262500D03*
X70400000Y-55262500D03*
X70800000Y-55262500D03*
X71200000Y-55262500D03*
X71600000Y-55262500D03*
X72000000Y-55262500D03*
X72400000Y-55262500D03*
X72800000Y-55262500D03*
D13*
X73637500Y-56100000D03*
X73637500Y-56500000D03*
X73637500Y-56900000D03*
X73637500Y-57300000D03*
X73637500Y-57700000D03*
X73637500Y-58100000D03*
X73637500Y-58500000D03*
X73637500Y-58900000D03*
X73637500Y-59300000D03*
X73637500Y-59700000D03*
X73637500Y-60100000D03*
X73637500Y-60500000D03*
X73637500Y-60900000D03*
X73637500Y-61300000D03*
D12*
X72800000Y-62137500D03*
X72400000Y-62137500D03*
X72000000Y-62137500D03*
X71600000Y-62137500D03*
X71200000Y-62137500D03*
X70800000Y-62137500D03*
X70400000Y-62137500D03*
X70000000Y-62137500D03*
X69600000Y-62137500D03*
X69200000Y-62137500D03*
X68800000Y-62137500D03*
X68400000Y-62137500D03*
X68000000Y-62137500D03*
X67600000Y-62137500D03*
D13*
X66762500Y-61300000D03*
X66762500Y-60900000D03*
X66762500Y-60500000D03*
X66762500Y-60100000D03*
X66762500Y-59700000D03*
X66762500Y-59300000D03*
X66762500Y-58900000D03*
X66762500Y-58500000D03*
X66762500Y-58100000D03*
X66762500Y-57700000D03*
X66762500Y-57300000D03*
X66762500Y-56900000D03*
X66762500Y-56500000D03*
X66762500Y-56100000D03*
D14*
X71000000Y-59500000D03*
X71000000Y-57900000D03*
X69400000Y-59500000D03*
X69400000Y-57900000D03*
%TD*%
D10*
%TO.C,R10*%
X87127500Y-26260000D03*
X85302500Y-26260000D03*
%TD*%
D11*
%TO.C,C10*%
X53335000Y-39595000D03*
X51785000Y-39595000D03*
%TD*%
%TO.C,C16*%
X56250000Y-63590000D03*
X54700000Y-63590000D03*
%TD*%
D10*
%TO.C,R2*%
X116337500Y-26890000D03*
X114512500Y-26890000D03*
%TD*%
%TO.C,R21*%
X44412500Y-55500000D03*
X42587500Y-55500000D03*
%TD*%
%TO.C,R4*%
X25412500Y-71000000D03*
X23587500Y-71000000D03*
%TD*%
%TO.C,R5*%
X23137500Y-26670000D03*
X21312500Y-26670000D03*
%TD*%
%TO.C,R14*%
X111892500Y-25625000D03*
X110067500Y-25625000D03*
%TD*%
D15*
%TO.C,R18*%
X134500000Y-57912500D03*
X134500000Y-56087500D03*
%TD*%
D11*
%TO.C,C13*%
X109555000Y-61000000D03*
X108005000Y-61000000D03*
%TD*%
%TO.C,C4*%
X75560000Y-28800000D03*
X74010000Y-28800000D03*
%TD*%
D16*
%TO.C,Y1*%
X60725000Y-64440000D03*
X62925000Y-64440000D03*
X62925000Y-62740000D03*
X60725000Y-62740000D03*
%TD*%
D11*
%TO.C,C6*%
X81275000Y-34515000D03*
X79725000Y-34515000D03*
%TD*%
%TO.C,C20*%
X63235000Y-68670000D03*
X61685000Y-68670000D03*
%TD*%
D10*
%TO.C,R19*%
X122052500Y-27530000D03*
X120227500Y-27530000D03*
%TD*%
D17*
%TO.C,J17*%
X15920000Y-73200000D03*
X15920000Y-74700000D03*
X15920000Y-75200000D03*
X15920000Y-75700000D03*
X15920000Y-76700000D03*
X15920000Y-77200000D03*
X15920000Y-77700000D03*
X15920000Y-79200000D03*
X17170000Y-79250000D03*
X17170000Y-77450000D03*
X17170000Y-76950000D03*
X17170000Y-76450000D03*
X17170000Y-75950000D03*
X17170000Y-75450000D03*
X17170000Y-74950000D03*
D18*
X17170000Y-79750000D03*
D17*
X17170000Y-73150000D03*
D18*
X17170000Y-72650000D03*
%TD*%
D10*
%TO.C,R3*%
X45852500Y-27530000D03*
X44027500Y-27530000D03*
%TD*%
D15*
%TO.C,R9*%
X124975000Y-57912500D03*
X124975000Y-56087500D03*
%TD*%
D19*
%TO.C,U3*%
X130705000Y-44010000D03*
D20*
X137005000Y-41710000D03*
D19*
X130705000Y-41710000D03*
X130705000Y-39410000D03*
%TD*%
D11*
%TO.C,C14*%
X19500000Y-38715000D03*
X17950000Y-38715000D03*
%TD*%
D21*
%TO.C,U1*%
X88412500Y-50685000D03*
X88412500Y-51955000D03*
X88412500Y-53225000D03*
X88412500Y-54495000D03*
X81237500Y-54495000D03*
X81237500Y-53225000D03*
X81237500Y-51955000D03*
X81237500Y-50685000D03*
%TD*%
D10*
%TO.C,R17*%
X66807500Y-27530000D03*
X64982500Y-27530000D03*
%TD*%
D11*
%TO.C,C1*%
X117810000Y-61000000D03*
X116260000Y-61000000D03*
%TD*%
%TO.C,C18*%
X19500000Y-33000000D03*
X17950000Y-33000000D03*
%TD*%
%TO.C,C9*%
X106380000Y-61000000D03*
X104830000Y-61000000D03*
%TD*%
%TO.C,C15*%
X52065000Y-29435000D03*
X50515000Y-29435000D03*
%TD*%
D22*
%TO.C,U4*%
X20612500Y-16525000D03*
X20612500Y-17175000D03*
X20612500Y-17825000D03*
X20612500Y-18475000D03*
X16387500Y-18475000D03*
X16387500Y-17825000D03*
X16387500Y-17175000D03*
X16387500Y-16525000D03*
%TD*%
D11*
%TO.C,C11*%
X49525000Y-29435000D03*
X47975000Y-29435000D03*
%TD*%
D15*
%TO.C,R12*%
X128150000Y-57912500D03*
X128150000Y-56087500D03*
%TD*%
D23*
%TO.C,Q1*%
X122077500Y-18640000D03*
X120202500Y-19590000D03*
X120202500Y-17690000D03*
%TD*%
D10*
%TO.C,R1*%
X45852500Y-26260000D03*
X44027500Y-26260000D03*
%TD*%
D11*
%TO.C,C8*%
X95245000Y-28800000D03*
X93695000Y-28800000D03*
%TD*%
D10*
%TO.C,R16*%
X23137500Y-21590000D03*
X21312500Y-21590000D03*
%TD*%
%TO.C,R6*%
X25412500Y-76000000D03*
X23587500Y-76000000D03*
%TD*%
%TO.C,R15*%
X120147500Y-24355000D03*
X118322500Y-24355000D03*
%TD*%
D24*
%TO.C,L1*%
X23690000Y-16510000D03*
X25840000Y-16510000D03*
%TD*%
D11*
%TO.C,C19*%
X72385000Y-28800000D03*
X70835000Y-28800000D03*
%TD*%
D10*
%TO.C,R13*%
X87127500Y-27530000D03*
X85302500Y-27530000D03*
%TD*%
D15*
%TO.C,R20*%
X131325000Y-57912500D03*
X131325000Y-56087500D03*
%TD*%
D11*
%TO.C,C3*%
X29985000Y-22860000D03*
X28435000Y-22860000D03*
%TD*%
D23*
%TO.C,Q2*%
X124617500Y-24990000D03*
X122742500Y-25940000D03*
X122742500Y-24040000D03*
%TD*%
D10*
%TO.C,R11*%
X120147500Y-21180000D03*
X118322500Y-21180000D03*
%TD*%
%TO.C,R8*%
X116972500Y-18640000D03*
X115147500Y-18640000D03*
%TD*%
D11*
%TO.C,C5*%
X103205000Y-61000000D03*
X101655000Y-61000000D03*
%TD*%
M02*
