%TF.GenerationSoftware,KiCad,Pcbnew,10.0.0*%
%TF.CreationDate,2026-04-08T17:06:56+02:00*%
%TF.ProjectId,rp_2040_extruder_board,72705f32-3034-4305-9f65-787472756465,rev?*%
%TF.SameCoordinates,Original*%
%TF.FileFunction,Legend,Top*%
%TF.FilePolarity,Positive*%
%FSLAX46Y46*%
G04 Gerber Fmt 4.6, Leading zero omitted, Abs format (unit mm)*
G04 Created by KiCad (PCBNEW 10.0.0) date 2026-04-08 17:06:56*
%MOMM*%
%LPD*%
G01*
G04 APERTURE LIST*
%ADD10C,0.150000*%
%ADD11C,0.120000*%
G04 APERTURE END LIST*
D10*
X151469819Y-51269523D02*
X152184104Y-51269523D01*
X152184104Y-51269523D02*
X152326961Y-51317142D01*
X152326961Y-51317142D02*
X152422200Y-51412380D01*
X152422200Y-51412380D02*
X152469819Y-51555237D01*
X152469819Y-51555237D02*
X152469819Y-51650475D01*
X152469819Y-50269523D02*
X152469819Y-50840951D01*
X152469819Y-50555237D02*
X151469819Y-50555237D01*
X151469819Y-50555237D02*
X151612676Y-50650475D01*
X151612676Y-50650475D02*
X151707914Y-50745713D01*
X151707914Y-50745713D02*
X151755533Y-50840951D01*
X152469819Y-49317142D02*
X152469819Y-49888570D01*
X152469819Y-49602856D02*
X151469819Y-49602856D01*
X151469819Y-49602856D02*
X151612676Y-49698094D01*
X151612676Y-49698094D02*
X151707914Y-49793332D01*
X151707914Y-49793332D02*
X151755533Y-49888570D01*
X132440476Y-74504819D02*
X132440476Y-75219104D01*
X132440476Y-75219104D02*
X132392857Y-75361961D01*
X132392857Y-75361961D02*
X132297619Y-75457200D01*
X132297619Y-75457200D02*
X132154762Y-75504819D01*
X132154762Y-75504819D02*
X132059524Y-75504819D01*
X133440476Y-75504819D02*
X132869048Y-75504819D01*
X133154762Y-75504819D02*
X133154762Y-74504819D01*
X133154762Y-74504819D02*
X133059524Y-74647676D01*
X133059524Y-74647676D02*
X132964286Y-74742914D01*
X132964286Y-74742914D02*
X132869048Y-74790533D01*
X134345238Y-74504819D02*
X133869048Y-74504819D01*
X133869048Y-74504819D02*
X133821429Y-74981009D01*
X133821429Y-74981009D02*
X133869048Y-74933390D01*
X133869048Y-74933390D02*
X133964286Y-74885771D01*
X133964286Y-74885771D02*
X134202381Y-74885771D01*
X134202381Y-74885771D02*
X134297619Y-74933390D01*
X134297619Y-74933390D02*
X134345238Y-74981009D01*
X134345238Y-74981009D02*
X134392857Y-75076247D01*
X134392857Y-75076247D02*
X134392857Y-75314342D01*
X134392857Y-75314342D02*
X134345238Y-75409580D01*
X134345238Y-75409580D02*
X134297619Y-75457200D01*
X134297619Y-75457200D02*
X134202381Y-75504819D01*
X134202381Y-75504819D02*
X133964286Y-75504819D01*
X133964286Y-75504819D02*
X133869048Y-75457200D01*
X133869048Y-75457200D02*
X133821429Y-75409580D01*
X65728333Y-25064819D02*
X65395000Y-24588628D01*
X65156905Y-25064819D02*
X65156905Y-24064819D01*
X65156905Y-24064819D02*
X65537857Y-24064819D01*
X65537857Y-24064819D02*
X65633095Y-24112438D01*
X65633095Y-24112438D02*
X65680714Y-24160057D01*
X65680714Y-24160057D02*
X65728333Y-24255295D01*
X65728333Y-24255295D02*
X65728333Y-24398152D01*
X65728333Y-24398152D02*
X65680714Y-24493390D01*
X65680714Y-24493390D02*
X65633095Y-24541009D01*
X65633095Y-24541009D02*
X65537857Y-24588628D01*
X65537857Y-24588628D02*
X65156905Y-24588628D01*
X66061667Y-24064819D02*
X66728333Y-24064819D01*
X66728333Y-24064819D02*
X66299762Y-25064819D01*
X75888333Y-33444580D02*
X75840714Y-33492200D01*
X75840714Y-33492200D02*
X75697857Y-33539819D01*
X75697857Y-33539819D02*
X75602619Y-33539819D01*
X75602619Y-33539819D02*
X75459762Y-33492200D01*
X75459762Y-33492200D02*
X75364524Y-33396961D01*
X75364524Y-33396961D02*
X75316905Y-33301723D01*
X75316905Y-33301723D02*
X75269286Y-33111247D01*
X75269286Y-33111247D02*
X75269286Y-32968390D01*
X75269286Y-32968390D02*
X75316905Y-32777914D01*
X75316905Y-32777914D02*
X75364524Y-32682676D01*
X75364524Y-32682676D02*
X75459762Y-32587438D01*
X75459762Y-32587438D02*
X75602619Y-32539819D01*
X75602619Y-32539819D02*
X75697857Y-32539819D01*
X75697857Y-32539819D02*
X75840714Y-32587438D01*
X75840714Y-32587438D02*
X75888333Y-32635057D01*
X76269286Y-32635057D02*
X76316905Y-32587438D01*
X76316905Y-32587438D02*
X76412143Y-32539819D01*
X76412143Y-32539819D02*
X76650238Y-32539819D01*
X76650238Y-32539819D02*
X76745476Y-32587438D01*
X76745476Y-32587438D02*
X76793095Y-32635057D01*
X76793095Y-32635057D02*
X76840714Y-32730295D01*
X76840714Y-32730295D02*
X76840714Y-32825533D01*
X76840714Y-32825533D02*
X76793095Y-32968390D01*
X76793095Y-32968390D02*
X76221667Y-33539819D01*
X76221667Y-33539819D02*
X76840714Y-33539819D01*
X23694819Y-53349523D02*
X24409104Y-53349523D01*
X24409104Y-53349523D02*
X24551961Y-53397142D01*
X24551961Y-53397142D02*
X24647200Y-53492380D01*
X24647200Y-53492380D02*
X24694819Y-53635237D01*
X24694819Y-53635237D02*
X24694819Y-53730475D01*
X24694819Y-52349523D02*
X24694819Y-52920951D01*
X24694819Y-52635237D02*
X23694819Y-52635237D01*
X23694819Y-52635237D02*
X23837676Y-52730475D01*
X23837676Y-52730475D02*
X23932914Y-52825713D01*
X23932914Y-52825713D02*
X23980533Y-52920951D01*
X24028152Y-51492380D02*
X24694819Y-51492380D01*
X23647200Y-51730475D02*
X24361485Y-51968570D01*
X24361485Y-51968570D02*
X24361485Y-51349523D01*
X112582142Y-59929580D02*
X112534523Y-59977200D01*
X112534523Y-59977200D02*
X112391666Y-60024819D01*
X112391666Y-60024819D02*
X112296428Y-60024819D01*
X112296428Y-60024819D02*
X112153571Y-59977200D01*
X112153571Y-59977200D02*
X112058333Y-59881961D01*
X112058333Y-59881961D02*
X112010714Y-59786723D01*
X112010714Y-59786723D02*
X111963095Y-59596247D01*
X111963095Y-59596247D02*
X111963095Y-59453390D01*
X111963095Y-59453390D02*
X112010714Y-59262914D01*
X112010714Y-59262914D02*
X112058333Y-59167676D01*
X112058333Y-59167676D02*
X112153571Y-59072438D01*
X112153571Y-59072438D02*
X112296428Y-59024819D01*
X112296428Y-59024819D02*
X112391666Y-59024819D01*
X112391666Y-59024819D02*
X112534523Y-59072438D01*
X112534523Y-59072438D02*
X112582142Y-59120057D01*
X113534523Y-60024819D02*
X112963095Y-60024819D01*
X113248809Y-60024819D02*
X113248809Y-59024819D01*
X113248809Y-59024819D02*
X113153571Y-59167676D01*
X113153571Y-59167676D02*
X113058333Y-59262914D01*
X113058333Y-59262914D02*
X112963095Y-59310533D01*
X113867857Y-59024819D02*
X114534523Y-59024819D01*
X114534523Y-59024819D02*
X114105952Y-60024819D01*
X96367142Y-27729580D02*
X96319523Y-27777200D01*
X96319523Y-27777200D02*
X96176666Y-27824819D01*
X96176666Y-27824819D02*
X96081428Y-27824819D01*
X96081428Y-27824819D02*
X95938571Y-27777200D01*
X95938571Y-27777200D02*
X95843333Y-27681961D01*
X95843333Y-27681961D02*
X95795714Y-27586723D01*
X95795714Y-27586723D02*
X95748095Y-27396247D01*
X95748095Y-27396247D02*
X95748095Y-27253390D01*
X95748095Y-27253390D02*
X95795714Y-27062914D01*
X95795714Y-27062914D02*
X95843333Y-26967676D01*
X95843333Y-26967676D02*
X95938571Y-26872438D01*
X95938571Y-26872438D02*
X96081428Y-26824819D01*
X96081428Y-26824819D02*
X96176666Y-26824819D01*
X96176666Y-26824819D02*
X96319523Y-26872438D01*
X96319523Y-26872438D02*
X96367142Y-26920057D01*
X97319523Y-27824819D02*
X96748095Y-27824819D01*
X97033809Y-27824819D02*
X97033809Y-26824819D01*
X97033809Y-26824819D02*
X96938571Y-26967676D01*
X96938571Y-26967676D02*
X96843333Y-27062914D01*
X96843333Y-27062914D02*
X96748095Y-27110533D01*
X97700476Y-26920057D02*
X97748095Y-26872438D01*
X97748095Y-26872438D02*
X97843333Y-26824819D01*
X97843333Y-26824819D02*
X98081428Y-26824819D01*
X98081428Y-26824819D02*
X98176666Y-26872438D01*
X98176666Y-26872438D02*
X98224285Y-26920057D01*
X98224285Y-26920057D02*
X98271904Y-27015295D01*
X98271904Y-27015295D02*
X98271904Y-27110533D01*
X98271904Y-27110533D02*
X98224285Y-27253390D01*
X98224285Y-27253390D02*
X97652857Y-27824819D01*
X97652857Y-27824819D02*
X98271904Y-27824819D01*
X31438333Y-28999580D02*
X31390714Y-29047200D01*
X31390714Y-29047200D02*
X31247857Y-29094819D01*
X31247857Y-29094819D02*
X31152619Y-29094819D01*
X31152619Y-29094819D02*
X31009762Y-29047200D01*
X31009762Y-29047200D02*
X30914524Y-28951961D01*
X30914524Y-28951961D02*
X30866905Y-28856723D01*
X30866905Y-28856723D02*
X30819286Y-28666247D01*
X30819286Y-28666247D02*
X30819286Y-28523390D01*
X30819286Y-28523390D02*
X30866905Y-28332914D01*
X30866905Y-28332914D02*
X30914524Y-28237676D01*
X30914524Y-28237676D02*
X31009762Y-28142438D01*
X31009762Y-28142438D02*
X31152619Y-28094819D01*
X31152619Y-28094819D02*
X31247857Y-28094819D01*
X31247857Y-28094819D02*
X31390714Y-28142438D01*
X31390714Y-28142438D02*
X31438333Y-28190057D01*
X31771667Y-28094819D02*
X32438333Y-28094819D01*
X32438333Y-28094819D02*
X32009762Y-29094819D01*
X69438095Y-53324819D02*
X69438095Y-54134342D01*
X69438095Y-54134342D02*
X69485714Y-54229580D01*
X69485714Y-54229580D02*
X69533333Y-54277200D01*
X69533333Y-54277200D02*
X69628571Y-54324819D01*
X69628571Y-54324819D02*
X69819047Y-54324819D01*
X69819047Y-54324819D02*
X69914285Y-54277200D01*
X69914285Y-54277200D02*
X69961904Y-54229580D01*
X69961904Y-54229580D02*
X70009523Y-54134342D01*
X70009523Y-54134342D02*
X70009523Y-53324819D01*
X70438095Y-53420057D02*
X70485714Y-53372438D01*
X70485714Y-53372438D02*
X70580952Y-53324819D01*
X70580952Y-53324819D02*
X70819047Y-53324819D01*
X70819047Y-53324819D02*
X70914285Y-53372438D01*
X70914285Y-53372438D02*
X70961904Y-53420057D01*
X70961904Y-53420057D02*
X71009523Y-53515295D01*
X71009523Y-53515295D02*
X71009523Y-53610533D01*
X71009523Y-53610533D02*
X70961904Y-53753390D01*
X70961904Y-53753390D02*
X70390476Y-54324819D01*
X70390476Y-54324819D02*
X71009523Y-54324819D01*
X85572142Y-25064819D02*
X85238809Y-24588628D01*
X85000714Y-25064819D02*
X85000714Y-24064819D01*
X85000714Y-24064819D02*
X85381666Y-24064819D01*
X85381666Y-24064819D02*
X85476904Y-24112438D01*
X85476904Y-24112438D02*
X85524523Y-24160057D01*
X85524523Y-24160057D02*
X85572142Y-24255295D01*
X85572142Y-24255295D02*
X85572142Y-24398152D01*
X85572142Y-24398152D02*
X85524523Y-24493390D01*
X85524523Y-24493390D02*
X85476904Y-24541009D01*
X85476904Y-24541009D02*
X85381666Y-24588628D01*
X85381666Y-24588628D02*
X85000714Y-24588628D01*
X86524523Y-25064819D02*
X85953095Y-25064819D01*
X86238809Y-25064819D02*
X86238809Y-24064819D01*
X86238809Y-24064819D02*
X86143571Y-24207676D01*
X86143571Y-24207676D02*
X86048333Y-24302914D01*
X86048333Y-24302914D02*
X85953095Y-24350533D01*
X87143571Y-24064819D02*
X87238809Y-24064819D01*
X87238809Y-24064819D02*
X87334047Y-24112438D01*
X87334047Y-24112438D02*
X87381666Y-24160057D01*
X87381666Y-24160057D02*
X87429285Y-24255295D01*
X87429285Y-24255295D02*
X87476904Y-24445771D01*
X87476904Y-24445771D02*
X87476904Y-24683866D01*
X87476904Y-24683866D02*
X87429285Y-24874342D01*
X87429285Y-24874342D02*
X87381666Y-24969580D01*
X87381666Y-24969580D02*
X87334047Y-25017200D01*
X87334047Y-25017200D02*
X87238809Y-25064819D01*
X87238809Y-25064819D02*
X87143571Y-25064819D01*
X87143571Y-25064819D02*
X87048333Y-25017200D01*
X87048333Y-25017200D02*
X87000714Y-24969580D01*
X87000714Y-24969580D02*
X86953095Y-24874342D01*
X86953095Y-24874342D02*
X86905476Y-24683866D01*
X86905476Y-24683866D02*
X86905476Y-24445771D01*
X86905476Y-24445771D02*
X86953095Y-24255295D01*
X86953095Y-24255295D02*
X87000714Y-24160057D01*
X87000714Y-24160057D02*
X87048333Y-24112438D01*
X87048333Y-24112438D02*
X87143571Y-24064819D01*
X51917142Y-38524580D02*
X51869523Y-38572200D01*
X51869523Y-38572200D02*
X51726666Y-38619819D01*
X51726666Y-38619819D02*
X51631428Y-38619819D01*
X51631428Y-38619819D02*
X51488571Y-38572200D01*
X51488571Y-38572200D02*
X51393333Y-38476961D01*
X51393333Y-38476961D02*
X51345714Y-38381723D01*
X51345714Y-38381723D02*
X51298095Y-38191247D01*
X51298095Y-38191247D02*
X51298095Y-38048390D01*
X51298095Y-38048390D02*
X51345714Y-37857914D01*
X51345714Y-37857914D02*
X51393333Y-37762676D01*
X51393333Y-37762676D02*
X51488571Y-37667438D01*
X51488571Y-37667438D02*
X51631428Y-37619819D01*
X51631428Y-37619819D02*
X51726666Y-37619819D01*
X51726666Y-37619819D02*
X51869523Y-37667438D01*
X51869523Y-37667438D02*
X51917142Y-37715057D01*
X52869523Y-38619819D02*
X52298095Y-38619819D01*
X52583809Y-38619819D02*
X52583809Y-37619819D01*
X52583809Y-37619819D02*
X52488571Y-37762676D01*
X52488571Y-37762676D02*
X52393333Y-37857914D01*
X52393333Y-37857914D02*
X52298095Y-37905533D01*
X53488571Y-37619819D02*
X53583809Y-37619819D01*
X53583809Y-37619819D02*
X53679047Y-37667438D01*
X53679047Y-37667438D02*
X53726666Y-37715057D01*
X53726666Y-37715057D02*
X53774285Y-37810295D01*
X53774285Y-37810295D02*
X53821904Y-38000771D01*
X53821904Y-38000771D02*
X53821904Y-38238866D01*
X53821904Y-38238866D02*
X53774285Y-38429342D01*
X53774285Y-38429342D02*
X53726666Y-38524580D01*
X53726666Y-38524580D02*
X53679047Y-38572200D01*
X53679047Y-38572200D02*
X53583809Y-38619819D01*
X53583809Y-38619819D02*
X53488571Y-38619819D01*
X53488571Y-38619819D02*
X53393333Y-38572200D01*
X53393333Y-38572200D02*
X53345714Y-38524580D01*
X53345714Y-38524580D02*
X53298095Y-38429342D01*
X53298095Y-38429342D02*
X53250476Y-38238866D01*
X53250476Y-38238866D02*
X53250476Y-38000771D01*
X53250476Y-38000771D02*
X53298095Y-37810295D01*
X53298095Y-37810295D02*
X53345714Y-37715057D01*
X53345714Y-37715057D02*
X53393333Y-37667438D01*
X53393333Y-37667438D02*
X53488571Y-37619819D01*
X54832142Y-62519580D02*
X54784523Y-62567200D01*
X54784523Y-62567200D02*
X54641666Y-62614819D01*
X54641666Y-62614819D02*
X54546428Y-62614819D01*
X54546428Y-62614819D02*
X54403571Y-62567200D01*
X54403571Y-62567200D02*
X54308333Y-62471961D01*
X54308333Y-62471961D02*
X54260714Y-62376723D01*
X54260714Y-62376723D02*
X54213095Y-62186247D01*
X54213095Y-62186247D02*
X54213095Y-62043390D01*
X54213095Y-62043390D02*
X54260714Y-61852914D01*
X54260714Y-61852914D02*
X54308333Y-61757676D01*
X54308333Y-61757676D02*
X54403571Y-61662438D01*
X54403571Y-61662438D02*
X54546428Y-61614819D01*
X54546428Y-61614819D02*
X54641666Y-61614819D01*
X54641666Y-61614819D02*
X54784523Y-61662438D01*
X54784523Y-61662438D02*
X54832142Y-61710057D01*
X55784523Y-62614819D02*
X55213095Y-62614819D01*
X55498809Y-62614819D02*
X55498809Y-61614819D01*
X55498809Y-61614819D02*
X55403571Y-61757676D01*
X55403571Y-61757676D02*
X55308333Y-61852914D01*
X55308333Y-61852914D02*
X55213095Y-61900533D01*
X56641666Y-61614819D02*
X56451190Y-61614819D01*
X56451190Y-61614819D02*
X56355952Y-61662438D01*
X56355952Y-61662438D02*
X56308333Y-61710057D01*
X56308333Y-61710057D02*
X56213095Y-61852914D01*
X56213095Y-61852914D02*
X56165476Y-62043390D01*
X56165476Y-62043390D02*
X56165476Y-62424342D01*
X56165476Y-62424342D02*
X56213095Y-62519580D01*
X56213095Y-62519580D02*
X56260714Y-62567200D01*
X56260714Y-62567200D02*
X56355952Y-62614819D01*
X56355952Y-62614819D02*
X56546428Y-62614819D01*
X56546428Y-62614819D02*
X56641666Y-62567200D01*
X56641666Y-62567200D02*
X56689285Y-62519580D01*
X56689285Y-62519580D02*
X56736904Y-62424342D01*
X56736904Y-62424342D02*
X56736904Y-62186247D01*
X56736904Y-62186247D02*
X56689285Y-62091009D01*
X56689285Y-62091009D02*
X56641666Y-62043390D01*
X56641666Y-62043390D02*
X56546428Y-61995771D01*
X56546428Y-61995771D02*
X56355952Y-61995771D01*
X56355952Y-61995771D02*
X56260714Y-62043390D01*
X56260714Y-62043390D02*
X56213095Y-62091009D01*
X56213095Y-62091009D02*
X56165476Y-62186247D01*
X115258333Y-25694819D02*
X114925000Y-25218628D01*
X114686905Y-25694819D02*
X114686905Y-24694819D01*
X114686905Y-24694819D02*
X115067857Y-24694819D01*
X115067857Y-24694819D02*
X115163095Y-24742438D01*
X115163095Y-24742438D02*
X115210714Y-24790057D01*
X115210714Y-24790057D02*
X115258333Y-24885295D01*
X115258333Y-24885295D02*
X115258333Y-25028152D01*
X115258333Y-25028152D02*
X115210714Y-25123390D01*
X115210714Y-25123390D02*
X115163095Y-25171009D01*
X115163095Y-25171009D02*
X115067857Y-25218628D01*
X115067857Y-25218628D02*
X114686905Y-25218628D01*
X115639286Y-24790057D02*
X115686905Y-24742438D01*
X115686905Y-24742438D02*
X115782143Y-24694819D01*
X115782143Y-24694819D02*
X116020238Y-24694819D01*
X116020238Y-24694819D02*
X116115476Y-24742438D01*
X116115476Y-24742438D02*
X116163095Y-24790057D01*
X116163095Y-24790057D02*
X116210714Y-24885295D01*
X116210714Y-24885295D02*
X116210714Y-24980533D01*
X116210714Y-24980533D02*
X116163095Y-25123390D01*
X116163095Y-25123390D02*
X115591667Y-25694819D01*
X115591667Y-25694819D02*
X116210714Y-25694819D01*
X42857142Y-54304819D02*
X42523809Y-53828628D01*
X42285714Y-54304819D02*
X42285714Y-53304819D01*
X42285714Y-53304819D02*
X42666666Y-53304819D01*
X42666666Y-53304819D02*
X42761904Y-53352438D01*
X42761904Y-53352438D02*
X42809523Y-53400057D01*
X42809523Y-53400057D02*
X42857142Y-53495295D01*
X42857142Y-53495295D02*
X42857142Y-53638152D01*
X42857142Y-53638152D02*
X42809523Y-53733390D01*
X42809523Y-53733390D02*
X42761904Y-53781009D01*
X42761904Y-53781009D02*
X42666666Y-53828628D01*
X42666666Y-53828628D02*
X42285714Y-53828628D01*
X43238095Y-53400057D02*
X43285714Y-53352438D01*
X43285714Y-53352438D02*
X43380952Y-53304819D01*
X43380952Y-53304819D02*
X43619047Y-53304819D01*
X43619047Y-53304819D02*
X43714285Y-53352438D01*
X43714285Y-53352438D02*
X43761904Y-53400057D01*
X43761904Y-53400057D02*
X43809523Y-53495295D01*
X43809523Y-53495295D02*
X43809523Y-53590533D01*
X43809523Y-53590533D02*
X43761904Y-53733390D01*
X43761904Y-53733390D02*
X43190476Y-54304819D01*
X43190476Y-54304819D02*
X43809523Y-54304819D01*
X44761904Y-54304819D02*
X44190476Y-54304819D01*
X44476190Y-54304819D02*
X44476190Y-53304819D01*
X44476190Y-53304819D02*
X44380952Y-53447676D01*
X44380952Y-53447676D02*
X44285714Y-53542914D01*
X44285714Y-53542914D02*
X44190476Y-53590533D01*
X24333333Y-69804819D02*
X24000000Y-69328628D01*
X23761905Y-69804819D02*
X23761905Y-68804819D01*
X23761905Y-68804819D02*
X24142857Y-68804819D01*
X24142857Y-68804819D02*
X24238095Y-68852438D01*
X24238095Y-68852438D02*
X24285714Y-68900057D01*
X24285714Y-68900057D02*
X24333333Y-68995295D01*
X24333333Y-68995295D02*
X24333333Y-69138152D01*
X24333333Y-69138152D02*
X24285714Y-69233390D01*
X24285714Y-69233390D02*
X24238095Y-69281009D01*
X24238095Y-69281009D02*
X24142857Y-69328628D01*
X24142857Y-69328628D02*
X23761905Y-69328628D01*
X25190476Y-69138152D02*
X25190476Y-69804819D01*
X24952381Y-68757200D02*
X24714286Y-69471485D01*
X24714286Y-69471485D02*
X25333333Y-69471485D01*
X42636666Y-12004819D02*
X42636666Y-12719104D01*
X42636666Y-12719104D02*
X42589047Y-12861961D01*
X42589047Y-12861961D02*
X42493809Y-12957200D01*
X42493809Y-12957200D02*
X42350952Y-13004819D01*
X42350952Y-13004819D02*
X42255714Y-13004819D01*
X43541428Y-12338152D02*
X43541428Y-13004819D01*
X43303333Y-11957200D02*
X43065238Y-12671485D01*
X43065238Y-12671485D02*
X43684285Y-12671485D01*
X22058333Y-25474819D02*
X21725000Y-24998628D01*
X21486905Y-25474819D02*
X21486905Y-24474819D01*
X21486905Y-24474819D02*
X21867857Y-24474819D01*
X21867857Y-24474819D02*
X21963095Y-24522438D01*
X21963095Y-24522438D02*
X22010714Y-24570057D01*
X22010714Y-24570057D02*
X22058333Y-24665295D01*
X22058333Y-24665295D02*
X22058333Y-24808152D01*
X22058333Y-24808152D02*
X22010714Y-24903390D01*
X22010714Y-24903390D02*
X21963095Y-24951009D01*
X21963095Y-24951009D02*
X21867857Y-24998628D01*
X21867857Y-24998628D02*
X21486905Y-24998628D01*
X22963095Y-24474819D02*
X22486905Y-24474819D01*
X22486905Y-24474819D02*
X22439286Y-24951009D01*
X22439286Y-24951009D02*
X22486905Y-24903390D01*
X22486905Y-24903390D02*
X22582143Y-24855771D01*
X22582143Y-24855771D02*
X22820238Y-24855771D01*
X22820238Y-24855771D02*
X22915476Y-24903390D01*
X22915476Y-24903390D02*
X22963095Y-24951009D01*
X22963095Y-24951009D02*
X23010714Y-25046247D01*
X23010714Y-25046247D02*
X23010714Y-25284342D01*
X23010714Y-25284342D02*
X22963095Y-25379580D01*
X22963095Y-25379580D02*
X22915476Y-25427200D01*
X22915476Y-25427200D02*
X22820238Y-25474819D01*
X22820238Y-25474819D02*
X22582143Y-25474819D01*
X22582143Y-25474819D02*
X22486905Y-25427200D01*
X22486905Y-25427200D02*
X22439286Y-25379580D01*
X110337142Y-24429819D02*
X110003809Y-23953628D01*
X109765714Y-24429819D02*
X109765714Y-23429819D01*
X109765714Y-23429819D02*
X110146666Y-23429819D01*
X110146666Y-23429819D02*
X110241904Y-23477438D01*
X110241904Y-23477438D02*
X110289523Y-23525057D01*
X110289523Y-23525057D02*
X110337142Y-23620295D01*
X110337142Y-23620295D02*
X110337142Y-23763152D01*
X110337142Y-23763152D02*
X110289523Y-23858390D01*
X110289523Y-23858390D02*
X110241904Y-23906009D01*
X110241904Y-23906009D02*
X110146666Y-23953628D01*
X110146666Y-23953628D02*
X109765714Y-23953628D01*
X111289523Y-24429819D02*
X110718095Y-24429819D01*
X111003809Y-24429819D02*
X111003809Y-23429819D01*
X111003809Y-23429819D02*
X110908571Y-23572676D01*
X110908571Y-23572676D02*
X110813333Y-23667914D01*
X110813333Y-23667914D02*
X110718095Y-23715533D01*
X112146666Y-23763152D02*
X112146666Y-24429819D01*
X111908571Y-23382200D02*
X111670476Y-24096485D01*
X111670476Y-24096485D02*
X112289523Y-24096485D01*
X31666666Y-71799819D02*
X31666666Y-72514104D01*
X31666666Y-72514104D02*
X31619047Y-72656961D01*
X31619047Y-72656961D02*
X31523809Y-72752200D01*
X31523809Y-72752200D02*
X31380952Y-72799819D01*
X31380952Y-72799819D02*
X31285714Y-72799819D01*
X32142857Y-72799819D02*
X32142857Y-71799819D01*
X32142857Y-71799819D02*
X32523809Y-71799819D01*
X32523809Y-71799819D02*
X32619047Y-71847438D01*
X32619047Y-71847438D02*
X32666666Y-71895057D01*
X32666666Y-71895057D02*
X32714285Y-71990295D01*
X32714285Y-71990295D02*
X32714285Y-72133152D01*
X32714285Y-72133152D02*
X32666666Y-72228390D01*
X32666666Y-72228390D02*
X32619047Y-72276009D01*
X32619047Y-72276009D02*
X32523809Y-72323628D01*
X32523809Y-72323628D02*
X32142857Y-72323628D01*
X33666666Y-72799819D02*
X33095238Y-72799819D01*
X33380952Y-72799819D02*
X33380952Y-71799819D01*
X33380952Y-71799819D02*
X33285714Y-71942676D01*
X33285714Y-71942676D02*
X33190476Y-72037914D01*
X33190476Y-72037914D02*
X33095238Y-72085533D01*
X136604819Y-57642857D02*
X136128628Y-57976190D01*
X136604819Y-58214285D02*
X135604819Y-58214285D01*
X135604819Y-58214285D02*
X135604819Y-57833333D01*
X135604819Y-57833333D02*
X135652438Y-57738095D01*
X135652438Y-57738095D02*
X135700057Y-57690476D01*
X135700057Y-57690476D02*
X135795295Y-57642857D01*
X135795295Y-57642857D02*
X135938152Y-57642857D01*
X135938152Y-57642857D02*
X136033390Y-57690476D01*
X136033390Y-57690476D02*
X136081009Y-57738095D01*
X136081009Y-57738095D02*
X136128628Y-57833333D01*
X136128628Y-57833333D02*
X136128628Y-58214285D01*
X136604819Y-56690476D02*
X136604819Y-57261904D01*
X136604819Y-56976190D02*
X135604819Y-56976190D01*
X135604819Y-56976190D02*
X135747676Y-57071428D01*
X135747676Y-57071428D02*
X135842914Y-57166666D01*
X135842914Y-57166666D02*
X135890533Y-57261904D01*
X136033390Y-56119047D02*
X135985771Y-56214285D01*
X135985771Y-56214285D02*
X135938152Y-56261904D01*
X135938152Y-56261904D02*
X135842914Y-56309523D01*
X135842914Y-56309523D02*
X135795295Y-56309523D01*
X135795295Y-56309523D02*
X135700057Y-56261904D01*
X135700057Y-56261904D02*
X135652438Y-56214285D01*
X135652438Y-56214285D02*
X135604819Y-56119047D01*
X135604819Y-56119047D02*
X135604819Y-55928571D01*
X135604819Y-55928571D02*
X135652438Y-55833333D01*
X135652438Y-55833333D02*
X135700057Y-55785714D01*
X135700057Y-55785714D02*
X135795295Y-55738095D01*
X135795295Y-55738095D02*
X135842914Y-55738095D01*
X135842914Y-55738095D02*
X135938152Y-55785714D01*
X135938152Y-55785714D02*
X135985771Y-55833333D01*
X135985771Y-55833333D02*
X136033390Y-55928571D01*
X136033390Y-55928571D02*
X136033390Y-56119047D01*
X136033390Y-56119047D02*
X136081009Y-56214285D01*
X136081009Y-56214285D02*
X136128628Y-56261904D01*
X136128628Y-56261904D02*
X136223866Y-56309523D01*
X136223866Y-56309523D02*
X136414342Y-56309523D01*
X136414342Y-56309523D02*
X136509580Y-56261904D01*
X136509580Y-56261904D02*
X136557200Y-56214285D01*
X136557200Y-56214285D02*
X136604819Y-56119047D01*
X136604819Y-56119047D02*
X136604819Y-55928571D01*
X136604819Y-55928571D02*
X136557200Y-55833333D01*
X136557200Y-55833333D02*
X136509580Y-55785714D01*
X136509580Y-55785714D02*
X136414342Y-55738095D01*
X136414342Y-55738095D02*
X136223866Y-55738095D01*
X136223866Y-55738095D02*
X136128628Y-55785714D01*
X136128628Y-55785714D02*
X136081009Y-55833333D01*
X136081009Y-55833333D02*
X136033390Y-55928571D01*
X108137142Y-59929580D02*
X108089523Y-59977200D01*
X108089523Y-59977200D02*
X107946666Y-60024819D01*
X107946666Y-60024819D02*
X107851428Y-60024819D01*
X107851428Y-60024819D02*
X107708571Y-59977200D01*
X107708571Y-59977200D02*
X107613333Y-59881961D01*
X107613333Y-59881961D02*
X107565714Y-59786723D01*
X107565714Y-59786723D02*
X107518095Y-59596247D01*
X107518095Y-59596247D02*
X107518095Y-59453390D01*
X107518095Y-59453390D02*
X107565714Y-59262914D01*
X107565714Y-59262914D02*
X107613333Y-59167676D01*
X107613333Y-59167676D02*
X107708571Y-59072438D01*
X107708571Y-59072438D02*
X107851428Y-59024819D01*
X107851428Y-59024819D02*
X107946666Y-59024819D01*
X107946666Y-59024819D02*
X108089523Y-59072438D01*
X108089523Y-59072438D02*
X108137142Y-59120057D01*
X109089523Y-60024819D02*
X108518095Y-60024819D01*
X108803809Y-60024819D02*
X108803809Y-59024819D01*
X108803809Y-59024819D02*
X108708571Y-59167676D01*
X108708571Y-59167676D02*
X108613333Y-59262914D01*
X108613333Y-59262914D02*
X108518095Y-59310533D01*
X109422857Y-59024819D02*
X110041904Y-59024819D01*
X110041904Y-59024819D02*
X109708571Y-59405771D01*
X109708571Y-59405771D02*
X109851428Y-59405771D01*
X109851428Y-59405771D02*
X109946666Y-59453390D01*
X109946666Y-59453390D02*
X109994285Y-59501009D01*
X109994285Y-59501009D02*
X110041904Y-59596247D01*
X110041904Y-59596247D02*
X110041904Y-59834342D01*
X110041904Y-59834342D02*
X109994285Y-59929580D01*
X109994285Y-59929580D02*
X109946666Y-59977200D01*
X109946666Y-59977200D02*
X109851428Y-60024819D01*
X109851428Y-60024819D02*
X109565714Y-60024819D01*
X109565714Y-60024819D02*
X109470476Y-59977200D01*
X109470476Y-59977200D02*
X109422857Y-59929580D01*
X63596666Y-12004819D02*
X63596666Y-12719104D01*
X63596666Y-12719104D02*
X63549047Y-12861961D01*
X63549047Y-12861961D02*
X63453809Y-12957200D01*
X63453809Y-12957200D02*
X63310952Y-13004819D01*
X63310952Y-13004819D02*
X63215714Y-13004819D01*
X63977619Y-12004819D02*
X64596666Y-12004819D01*
X64596666Y-12004819D02*
X64263333Y-12385771D01*
X64263333Y-12385771D02*
X64406190Y-12385771D01*
X64406190Y-12385771D02*
X64501428Y-12433390D01*
X64501428Y-12433390D02*
X64549047Y-12481009D01*
X64549047Y-12481009D02*
X64596666Y-12576247D01*
X64596666Y-12576247D02*
X64596666Y-12814342D01*
X64596666Y-12814342D02*
X64549047Y-12909580D01*
X64549047Y-12909580D02*
X64501428Y-12957200D01*
X64501428Y-12957200D02*
X64406190Y-13004819D01*
X64406190Y-13004819D02*
X64120476Y-13004819D01*
X64120476Y-13004819D02*
X64025238Y-12957200D01*
X64025238Y-12957200D02*
X63977619Y-12909580D01*
X74618333Y-27729580D02*
X74570714Y-27777200D01*
X74570714Y-27777200D02*
X74427857Y-27824819D01*
X74427857Y-27824819D02*
X74332619Y-27824819D01*
X74332619Y-27824819D02*
X74189762Y-27777200D01*
X74189762Y-27777200D02*
X74094524Y-27681961D01*
X74094524Y-27681961D02*
X74046905Y-27586723D01*
X74046905Y-27586723D02*
X73999286Y-27396247D01*
X73999286Y-27396247D02*
X73999286Y-27253390D01*
X73999286Y-27253390D02*
X74046905Y-27062914D01*
X74046905Y-27062914D02*
X74094524Y-26967676D01*
X74094524Y-26967676D02*
X74189762Y-26872438D01*
X74189762Y-26872438D02*
X74332619Y-26824819D01*
X74332619Y-26824819D02*
X74427857Y-26824819D01*
X74427857Y-26824819D02*
X74570714Y-26872438D01*
X74570714Y-26872438D02*
X74618333Y-26920057D01*
X75475476Y-27158152D02*
X75475476Y-27824819D01*
X75237381Y-26777200D02*
X74999286Y-27491485D01*
X74999286Y-27491485D02*
X75618333Y-27491485D01*
X61348809Y-61118628D02*
X61348809Y-61594819D01*
X61015476Y-60594819D02*
X61348809Y-61118628D01*
X61348809Y-61118628D02*
X61682142Y-60594819D01*
X62539285Y-61594819D02*
X61967857Y-61594819D01*
X62253571Y-61594819D02*
X62253571Y-60594819D01*
X62253571Y-60594819D02*
X62158333Y-60737676D01*
X62158333Y-60737676D02*
X62063095Y-60832914D01*
X62063095Y-60832914D02*
X61967857Y-60880533D01*
X113940476Y-74504819D02*
X113940476Y-75219104D01*
X113940476Y-75219104D02*
X113892857Y-75361961D01*
X113892857Y-75361961D02*
X113797619Y-75457200D01*
X113797619Y-75457200D02*
X113654762Y-75504819D01*
X113654762Y-75504819D02*
X113559524Y-75504819D01*
X114940476Y-75504819D02*
X114369048Y-75504819D01*
X114654762Y-75504819D02*
X114654762Y-74504819D01*
X114654762Y-74504819D02*
X114559524Y-74647676D01*
X114559524Y-74647676D02*
X114464286Y-74742914D01*
X114464286Y-74742914D02*
X114369048Y-74790533D01*
X115416667Y-75504819D02*
X115607143Y-75504819D01*
X115607143Y-75504819D02*
X115702381Y-75457200D01*
X115702381Y-75457200D02*
X115750000Y-75409580D01*
X115750000Y-75409580D02*
X115845238Y-75266723D01*
X115845238Y-75266723D02*
X115892857Y-75076247D01*
X115892857Y-75076247D02*
X115892857Y-74695295D01*
X115892857Y-74695295D02*
X115845238Y-74600057D01*
X115845238Y-74600057D02*
X115797619Y-74552438D01*
X115797619Y-74552438D02*
X115702381Y-74504819D01*
X115702381Y-74504819D02*
X115511905Y-74504819D01*
X115511905Y-74504819D02*
X115416667Y-74552438D01*
X115416667Y-74552438D02*
X115369048Y-74600057D01*
X115369048Y-74600057D02*
X115321429Y-74695295D01*
X115321429Y-74695295D02*
X115321429Y-74933390D01*
X115321429Y-74933390D02*
X115369048Y-75028628D01*
X115369048Y-75028628D02*
X115416667Y-75076247D01*
X115416667Y-75076247D02*
X115511905Y-75123866D01*
X115511905Y-75123866D02*
X115702381Y-75123866D01*
X115702381Y-75123866D02*
X115797619Y-75076247D01*
X115797619Y-75076247D02*
X115845238Y-75028628D01*
X115845238Y-75028628D02*
X115892857Y-74933390D01*
X80333333Y-33444580D02*
X80285714Y-33492200D01*
X80285714Y-33492200D02*
X80142857Y-33539819D01*
X80142857Y-33539819D02*
X80047619Y-33539819D01*
X80047619Y-33539819D02*
X79904762Y-33492200D01*
X79904762Y-33492200D02*
X79809524Y-33396961D01*
X79809524Y-33396961D02*
X79761905Y-33301723D01*
X79761905Y-33301723D02*
X79714286Y-33111247D01*
X79714286Y-33111247D02*
X79714286Y-32968390D01*
X79714286Y-32968390D02*
X79761905Y-32777914D01*
X79761905Y-32777914D02*
X79809524Y-32682676D01*
X79809524Y-32682676D02*
X79904762Y-32587438D01*
X79904762Y-32587438D02*
X80047619Y-32539819D01*
X80047619Y-32539819D02*
X80142857Y-32539819D01*
X80142857Y-32539819D02*
X80285714Y-32587438D01*
X80285714Y-32587438D02*
X80333333Y-32635057D01*
X81190476Y-32539819D02*
X81000000Y-32539819D01*
X81000000Y-32539819D02*
X80904762Y-32587438D01*
X80904762Y-32587438D02*
X80857143Y-32635057D01*
X80857143Y-32635057D02*
X80761905Y-32777914D01*
X80761905Y-32777914D02*
X80714286Y-32968390D01*
X80714286Y-32968390D02*
X80714286Y-33349342D01*
X80714286Y-33349342D02*
X80761905Y-33444580D01*
X80761905Y-33444580D02*
X80809524Y-33492200D01*
X80809524Y-33492200D02*
X80904762Y-33539819D01*
X80904762Y-33539819D02*
X81095238Y-33539819D01*
X81095238Y-33539819D02*
X81190476Y-33492200D01*
X81190476Y-33492200D02*
X81238095Y-33444580D01*
X81238095Y-33444580D02*
X81285714Y-33349342D01*
X81285714Y-33349342D02*
X81285714Y-33111247D01*
X81285714Y-33111247D02*
X81238095Y-33016009D01*
X81238095Y-33016009D02*
X81190476Y-32968390D01*
X81190476Y-32968390D02*
X81095238Y-32920771D01*
X81095238Y-32920771D02*
X80904762Y-32920771D01*
X80904762Y-32920771D02*
X80809524Y-32968390D01*
X80809524Y-32968390D02*
X80761905Y-33016009D01*
X80761905Y-33016009D02*
X80714286Y-33111247D01*
X83475476Y-65438819D02*
X83475476Y-66153104D01*
X83475476Y-66153104D02*
X83427857Y-66295961D01*
X83427857Y-66295961D02*
X83332619Y-66391200D01*
X83332619Y-66391200D02*
X83189762Y-66438819D01*
X83189762Y-66438819D02*
X83094524Y-66438819D01*
X84475476Y-66438819D02*
X83904048Y-66438819D01*
X84189762Y-66438819D02*
X84189762Y-65438819D01*
X84189762Y-65438819D02*
X84094524Y-65581676D01*
X84094524Y-65581676D02*
X83999286Y-65676914D01*
X83999286Y-65676914D02*
X83904048Y-65724533D01*
X85046905Y-65867390D02*
X84951667Y-65819771D01*
X84951667Y-65819771D02*
X84904048Y-65772152D01*
X84904048Y-65772152D02*
X84856429Y-65676914D01*
X84856429Y-65676914D02*
X84856429Y-65629295D01*
X84856429Y-65629295D02*
X84904048Y-65534057D01*
X84904048Y-65534057D02*
X84951667Y-65486438D01*
X84951667Y-65486438D02*
X85046905Y-65438819D01*
X85046905Y-65438819D02*
X85237381Y-65438819D01*
X85237381Y-65438819D02*
X85332619Y-65486438D01*
X85332619Y-65486438D02*
X85380238Y-65534057D01*
X85380238Y-65534057D02*
X85427857Y-65629295D01*
X85427857Y-65629295D02*
X85427857Y-65676914D01*
X85427857Y-65676914D02*
X85380238Y-65772152D01*
X85380238Y-65772152D02*
X85332619Y-65819771D01*
X85332619Y-65819771D02*
X85237381Y-65867390D01*
X85237381Y-65867390D02*
X85046905Y-65867390D01*
X85046905Y-65867390D02*
X84951667Y-65915009D01*
X84951667Y-65915009D02*
X84904048Y-65962628D01*
X84904048Y-65962628D02*
X84856429Y-66057866D01*
X84856429Y-66057866D02*
X84856429Y-66248342D01*
X84856429Y-66248342D02*
X84904048Y-66343580D01*
X84904048Y-66343580D02*
X84951667Y-66391200D01*
X84951667Y-66391200D02*
X85046905Y-66438819D01*
X85046905Y-66438819D02*
X85237381Y-66438819D01*
X85237381Y-66438819D02*
X85332619Y-66391200D01*
X85332619Y-66391200D02*
X85380238Y-66343580D01*
X85380238Y-66343580D02*
X85427857Y-66248342D01*
X85427857Y-66248342D02*
X85427857Y-66057866D01*
X85427857Y-66057866D02*
X85380238Y-65962628D01*
X85380238Y-65962628D02*
X85332619Y-65915009D01*
X85332619Y-65915009D02*
X85237381Y-65867390D01*
X61817142Y-67599580D02*
X61769523Y-67647200D01*
X61769523Y-67647200D02*
X61626666Y-67694819D01*
X61626666Y-67694819D02*
X61531428Y-67694819D01*
X61531428Y-67694819D02*
X61388571Y-67647200D01*
X61388571Y-67647200D02*
X61293333Y-67551961D01*
X61293333Y-67551961D02*
X61245714Y-67456723D01*
X61245714Y-67456723D02*
X61198095Y-67266247D01*
X61198095Y-67266247D02*
X61198095Y-67123390D01*
X61198095Y-67123390D02*
X61245714Y-66932914D01*
X61245714Y-66932914D02*
X61293333Y-66837676D01*
X61293333Y-66837676D02*
X61388571Y-66742438D01*
X61388571Y-66742438D02*
X61531428Y-66694819D01*
X61531428Y-66694819D02*
X61626666Y-66694819D01*
X61626666Y-66694819D02*
X61769523Y-66742438D01*
X61769523Y-66742438D02*
X61817142Y-66790057D01*
X62198095Y-66790057D02*
X62245714Y-66742438D01*
X62245714Y-66742438D02*
X62340952Y-66694819D01*
X62340952Y-66694819D02*
X62579047Y-66694819D01*
X62579047Y-66694819D02*
X62674285Y-66742438D01*
X62674285Y-66742438D02*
X62721904Y-66790057D01*
X62721904Y-66790057D02*
X62769523Y-66885295D01*
X62769523Y-66885295D02*
X62769523Y-66980533D01*
X62769523Y-66980533D02*
X62721904Y-67123390D01*
X62721904Y-67123390D02*
X62150476Y-67694819D01*
X62150476Y-67694819D02*
X62769523Y-67694819D01*
X63388571Y-66694819D02*
X63483809Y-66694819D01*
X63483809Y-66694819D02*
X63579047Y-66742438D01*
X63579047Y-66742438D02*
X63626666Y-66790057D01*
X63626666Y-66790057D02*
X63674285Y-66885295D01*
X63674285Y-66885295D02*
X63721904Y-67075771D01*
X63721904Y-67075771D02*
X63721904Y-67313866D01*
X63721904Y-67313866D02*
X63674285Y-67504342D01*
X63674285Y-67504342D02*
X63626666Y-67599580D01*
X63626666Y-67599580D02*
X63579047Y-67647200D01*
X63579047Y-67647200D02*
X63483809Y-67694819D01*
X63483809Y-67694819D02*
X63388571Y-67694819D01*
X63388571Y-67694819D02*
X63293333Y-67647200D01*
X63293333Y-67647200D02*
X63245714Y-67599580D01*
X63245714Y-67599580D02*
X63198095Y-67504342D01*
X63198095Y-67504342D02*
X63150476Y-67313866D01*
X63150476Y-67313866D02*
X63150476Y-67075771D01*
X63150476Y-67075771D02*
X63198095Y-66885295D01*
X63198095Y-66885295D02*
X63245714Y-66790057D01*
X63245714Y-66790057D02*
X63293333Y-66742438D01*
X63293333Y-66742438D02*
X63388571Y-66694819D01*
X120497142Y-26334819D02*
X120163809Y-25858628D01*
X119925714Y-26334819D02*
X119925714Y-25334819D01*
X119925714Y-25334819D02*
X120306666Y-25334819D01*
X120306666Y-25334819D02*
X120401904Y-25382438D01*
X120401904Y-25382438D02*
X120449523Y-25430057D01*
X120449523Y-25430057D02*
X120497142Y-25525295D01*
X120497142Y-25525295D02*
X120497142Y-25668152D01*
X120497142Y-25668152D02*
X120449523Y-25763390D01*
X120449523Y-25763390D02*
X120401904Y-25811009D01*
X120401904Y-25811009D02*
X120306666Y-25858628D01*
X120306666Y-25858628D02*
X119925714Y-25858628D01*
X121449523Y-26334819D02*
X120878095Y-26334819D01*
X121163809Y-26334819D02*
X121163809Y-25334819D01*
X121163809Y-25334819D02*
X121068571Y-25477676D01*
X121068571Y-25477676D02*
X120973333Y-25572914D01*
X120973333Y-25572914D02*
X120878095Y-25620533D01*
X121925714Y-26334819D02*
X122116190Y-26334819D01*
X122116190Y-26334819D02*
X122211428Y-26287200D01*
X122211428Y-26287200D02*
X122259047Y-26239580D01*
X122259047Y-26239580D02*
X122354285Y-26096723D01*
X122354285Y-26096723D02*
X122401904Y-25906247D01*
X122401904Y-25906247D02*
X122401904Y-25525295D01*
X122401904Y-25525295D02*
X122354285Y-25430057D01*
X122354285Y-25430057D02*
X122306666Y-25382438D01*
X122306666Y-25382438D02*
X122211428Y-25334819D01*
X122211428Y-25334819D02*
X122020952Y-25334819D01*
X122020952Y-25334819D02*
X121925714Y-25382438D01*
X121925714Y-25382438D02*
X121878095Y-25430057D01*
X121878095Y-25430057D02*
X121830476Y-25525295D01*
X121830476Y-25525295D02*
X121830476Y-25763390D01*
X121830476Y-25763390D02*
X121878095Y-25858628D01*
X121878095Y-25858628D02*
X121925714Y-25906247D01*
X121925714Y-25906247D02*
X122020952Y-25953866D01*
X122020952Y-25953866D02*
X122211428Y-25953866D01*
X122211428Y-25953866D02*
X122306666Y-25906247D01*
X122306666Y-25906247D02*
X122354285Y-25858628D01*
X122354285Y-25858628D02*
X122401904Y-25763390D01*
X20515180Y-75390476D02*
X19800895Y-75390476D01*
X19800895Y-75390476D02*
X19658038Y-75342857D01*
X19658038Y-75342857D02*
X19562800Y-75247619D01*
X19562800Y-75247619D02*
X19515180Y-75104762D01*
X19515180Y-75104762D02*
X19515180Y-75009524D01*
X19515180Y-76390476D02*
X19515180Y-75819048D01*
X19515180Y-76104762D02*
X20515180Y-76104762D01*
X20515180Y-76104762D02*
X20372323Y-76009524D01*
X20372323Y-76009524D02*
X20277085Y-75914286D01*
X20277085Y-75914286D02*
X20229466Y-75819048D01*
X20515180Y-76723810D02*
X20515180Y-77390476D01*
X20515180Y-77390476D02*
X19515180Y-76961905D01*
X44773333Y-26334819D02*
X44440000Y-25858628D01*
X44201905Y-26334819D02*
X44201905Y-25334819D01*
X44201905Y-25334819D02*
X44582857Y-25334819D01*
X44582857Y-25334819D02*
X44678095Y-25382438D01*
X44678095Y-25382438D02*
X44725714Y-25430057D01*
X44725714Y-25430057D02*
X44773333Y-25525295D01*
X44773333Y-25525295D02*
X44773333Y-25668152D01*
X44773333Y-25668152D02*
X44725714Y-25763390D01*
X44725714Y-25763390D02*
X44678095Y-25811009D01*
X44678095Y-25811009D02*
X44582857Y-25858628D01*
X44582857Y-25858628D02*
X44201905Y-25858628D01*
X45106667Y-25334819D02*
X45725714Y-25334819D01*
X45725714Y-25334819D02*
X45392381Y-25715771D01*
X45392381Y-25715771D02*
X45535238Y-25715771D01*
X45535238Y-25715771D02*
X45630476Y-25763390D01*
X45630476Y-25763390D02*
X45678095Y-25811009D01*
X45678095Y-25811009D02*
X45725714Y-25906247D01*
X45725714Y-25906247D02*
X45725714Y-26144342D01*
X45725714Y-26144342D02*
X45678095Y-26239580D01*
X45678095Y-26239580D02*
X45630476Y-26287200D01*
X45630476Y-26287200D02*
X45535238Y-26334819D01*
X45535238Y-26334819D02*
X45249524Y-26334819D01*
X45249524Y-26334819D02*
X45154286Y-26287200D01*
X45154286Y-26287200D02*
X45106667Y-26239580D01*
X106201666Y-22699819D02*
X106201666Y-23414104D01*
X106201666Y-23414104D02*
X106154047Y-23556961D01*
X106154047Y-23556961D02*
X106058809Y-23652200D01*
X106058809Y-23652200D02*
X105915952Y-23699819D01*
X105915952Y-23699819D02*
X105820714Y-23699819D01*
X106582619Y-22699819D02*
X107249285Y-22699819D01*
X107249285Y-22699819D02*
X106820714Y-23699819D01*
X127079819Y-57166666D02*
X126603628Y-57499999D01*
X127079819Y-57738094D02*
X126079819Y-57738094D01*
X126079819Y-57738094D02*
X126079819Y-57357142D01*
X126079819Y-57357142D02*
X126127438Y-57261904D01*
X126127438Y-57261904D02*
X126175057Y-57214285D01*
X126175057Y-57214285D02*
X126270295Y-57166666D01*
X126270295Y-57166666D02*
X126413152Y-57166666D01*
X126413152Y-57166666D02*
X126508390Y-57214285D01*
X126508390Y-57214285D02*
X126556009Y-57261904D01*
X126556009Y-57261904D02*
X126603628Y-57357142D01*
X126603628Y-57357142D02*
X126603628Y-57738094D01*
X127079819Y-56690475D02*
X127079819Y-56499999D01*
X127079819Y-56499999D02*
X127032200Y-56404761D01*
X127032200Y-56404761D02*
X126984580Y-56357142D01*
X126984580Y-56357142D02*
X126841723Y-56261904D01*
X126841723Y-56261904D02*
X126651247Y-56214285D01*
X126651247Y-56214285D02*
X126270295Y-56214285D01*
X126270295Y-56214285D02*
X126175057Y-56261904D01*
X126175057Y-56261904D02*
X126127438Y-56309523D01*
X126127438Y-56309523D02*
X126079819Y-56404761D01*
X126079819Y-56404761D02*
X126079819Y-56595237D01*
X126079819Y-56595237D02*
X126127438Y-56690475D01*
X126127438Y-56690475D02*
X126175057Y-56738094D01*
X126175057Y-56738094D02*
X126270295Y-56785713D01*
X126270295Y-56785713D02*
X126508390Y-56785713D01*
X126508390Y-56785713D02*
X126603628Y-56738094D01*
X126603628Y-56738094D02*
X126651247Y-56690475D01*
X126651247Y-56690475D02*
X126698866Y-56595237D01*
X126698866Y-56595237D02*
X126698866Y-56404761D01*
X126698866Y-56404761D02*
X126651247Y-56309523D01*
X126651247Y-56309523D02*
X126603628Y-56261904D01*
X126603628Y-56261904D02*
X126508390Y-56214285D01*
X40156666Y-23334819D02*
X40156666Y-24049104D01*
X40156666Y-24049104D02*
X40109047Y-24191961D01*
X40109047Y-24191961D02*
X40013809Y-24287200D01*
X40013809Y-24287200D02*
X39870952Y-24334819D01*
X39870952Y-24334819D02*
X39775714Y-24334819D01*
X40680476Y-24334819D02*
X40870952Y-24334819D01*
X40870952Y-24334819D02*
X40966190Y-24287200D01*
X40966190Y-24287200D02*
X41013809Y-24239580D01*
X41013809Y-24239580D02*
X41109047Y-24096723D01*
X41109047Y-24096723D02*
X41156666Y-23906247D01*
X41156666Y-23906247D02*
X41156666Y-23525295D01*
X41156666Y-23525295D02*
X41109047Y-23430057D01*
X41109047Y-23430057D02*
X41061428Y-23382438D01*
X41061428Y-23382438D02*
X40966190Y-23334819D01*
X40966190Y-23334819D02*
X40775714Y-23334819D01*
X40775714Y-23334819D02*
X40680476Y-23382438D01*
X40680476Y-23382438D02*
X40632857Y-23430057D01*
X40632857Y-23430057D02*
X40585238Y-23525295D01*
X40585238Y-23525295D02*
X40585238Y-23763390D01*
X40585238Y-23763390D02*
X40632857Y-23858628D01*
X40632857Y-23858628D02*
X40680476Y-23906247D01*
X40680476Y-23906247D02*
X40775714Y-23953866D01*
X40775714Y-23953866D02*
X40966190Y-23953866D01*
X40966190Y-23953866D02*
X41061428Y-23906247D01*
X41061428Y-23906247D02*
X41109047Y-23858628D01*
X41109047Y-23858628D02*
X41156666Y-23763390D01*
X133093095Y-36664819D02*
X133093095Y-37474342D01*
X133093095Y-37474342D02*
X133140714Y-37569580D01*
X133140714Y-37569580D02*
X133188333Y-37617200D01*
X133188333Y-37617200D02*
X133283571Y-37664819D01*
X133283571Y-37664819D02*
X133474047Y-37664819D01*
X133474047Y-37664819D02*
X133569285Y-37617200D01*
X133569285Y-37617200D02*
X133616904Y-37569580D01*
X133616904Y-37569580D02*
X133664523Y-37474342D01*
X133664523Y-37474342D02*
X133664523Y-36664819D01*
X134045476Y-36664819D02*
X134664523Y-36664819D01*
X134664523Y-36664819D02*
X134331190Y-37045771D01*
X134331190Y-37045771D02*
X134474047Y-37045771D01*
X134474047Y-37045771D02*
X134569285Y-37093390D01*
X134569285Y-37093390D02*
X134616904Y-37141009D01*
X134616904Y-37141009D02*
X134664523Y-37236247D01*
X134664523Y-37236247D02*
X134664523Y-37474342D01*
X134664523Y-37474342D02*
X134616904Y-37569580D01*
X134616904Y-37569580D02*
X134569285Y-37617200D01*
X134569285Y-37617200D02*
X134474047Y-37664819D01*
X134474047Y-37664819D02*
X134188333Y-37664819D01*
X134188333Y-37664819D02*
X134093095Y-37617200D01*
X134093095Y-37617200D02*
X134045476Y-37569580D01*
X83916666Y-12004819D02*
X83916666Y-12719104D01*
X83916666Y-12719104D02*
X83869047Y-12861961D01*
X83869047Y-12861961D02*
X83773809Y-12957200D01*
X83773809Y-12957200D02*
X83630952Y-13004819D01*
X83630952Y-13004819D02*
X83535714Y-13004819D01*
X84916666Y-13004819D02*
X84345238Y-13004819D01*
X84630952Y-13004819D02*
X84630952Y-12004819D01*
X84630952Y-12004819D02*
X84535714Y-12147676D01*
X84535714Y-12147676D02*
X84440476Y-12242914D01*
X84440476Y-12242914D02*
X84345238Y-12290533D01*
X18082142Y-37644580D02*
X18034523Y-37692200D01*
X18034523Y-37692200D02*
X17891666Y-37739819D01*
X17891666Y-37739819D02*
X17796428Y-37739819D01*
X17796428Y-37739819D02*
X17653571Y-37692200D01*
X17653571Y-37692200D02*
X17558333Y-37596961D01*
X17558333Y-37596961D02*
X17510714Y-37501723D01*
X17510714Y-37501723D02*
X17463095Y-37311247D01*
X17463095Y-37311247D02*
X17463095Y-37168390D01*
X17463095Y-37168390D02*
X17510714Y-36977914D01*
X17510714Y-36977914D02*
X17558333Y-36882676D01*
X17558333Y-36882676D02*
X17653571Y-36787438D01*
X17653571Y-36787438D02*
X17796428Y-36739819D01*
X17796428Y-36739819D02*
X17891666Y-36739819D01*
X17891666Y-36739819D02*
X18034523Y-36787438D01*
X18034523Y-36787438D02*
X18082142Y-36835057D01*
X19034523Y-37739819D02*
X18463095Y-37739819D01*
X18748809Y-37739819D02*
X18748809Y-36739819D01*
X18748809Y-36739819D02*
X18653571Y-36882676D01*
X18653571Y-36882676D02*
X18558333Y-36977914D01*
X18558333Y-36977914D02*
X18463095Y-37025533D01*
X19891666Y-37073152D02*
X19891666Y-37739819D01*
X19653571Y-36692200D02*
X19415476Y-37406485D01*
X19415476Y-37406485D02*
X20034523Y-37406485D01*
X84063095Y-48444819D02*
X84063095Y-49254342D01*
X84063095Y-49254342D02*
X84110714Y-49349580D01*
X84110714Y-49349580D02*
X84158333Y-49397200D01*
X84158333Y-49397200D02*
X84253571Y-49444819D01*
X84253571Y-49444819D02*
X84444047Y-49444819D01*
X84444047Y-49444819D02*
X84539285Y-49397200D01*
X84539285Y-49397200D02*
X84586904Y-49349580D01*
X84586904Y-49349580D02*
X84634523Y-49254342D01*
X84634523Y-49254342D02*
X84634523Y-48444819D01*
X85634523Y-49444819D02*
X85063095Y-49444819D01*
X85348809Y-49444819D02*
X85348809Y-48444819D01*
X85348809Y-48444819D02*
X85253571Y-48587676D01*
X85253571Y-48587676D02*
X85158333Y-48682914D01*
X85158333Y-48682914D02*
X85063095Y-48730533D01*
X65252142Y-26334819D02*
X64918809Y-25858628D01*
X64680714Y-26334819D02*
X64680714Y-25334819D01*
X64680714Y-25334819D02*
X65061666Y-25334819D01*
X65061666Y-25334819D02*
X65156904Y-25382438D01*
X65156904Y-25382438D02*
X65204523Y-25430057D01*
X65204523Y-25430057D02*
X65252142Y-25525295D01*
X65252142Y-25525295D02*
X65252142Y-25668152D01*
X65252142Y-25668152D02*
X65204523Y-25763390D01*
X65204523Y-25763390D02*
X65156904Y-25811009D01*
X65156904Y-25811009D02*
X65061666Y-25858628D01*
X65061666Y-25858628D02*
X64680714Y-25858628D01*
X66204523Y-26334819D02*
X65633095Y-26334819D01*
X65918809Y-26334819D02*
X65918809Y-25334819D01*
X65918809Y-25334819D02*
X65823571Y-25477676D01*
X65823571Y-25477676D02*
X65728333Y-25572914D01*
X65728333Y-25572914D02*
X65633095Y-25620533D01*
X66537857Y-25334819D02*
X67204523Y-25334819D01*
X67204523Y-25334819D02*
X66775952Y-26334819D01*
X116868333Y-59929580D02*
X116820714Y-59977200D01*
X116820714Y-59977200D02*
X116677857Y-60024819D01*
X116677857Y-60024819D02*
X116582619Y-60024819D01*
X116582619Y-60024819D02*
X116439762Y-59977200D01*
X116439762Y-59977200D02*
X116344524Y-59881961D01*
X116344524Y-59881961D02*
X116296905Y-59786723D01*
X116296905Y-59786723D02*
X116249286Y-59596247D01*
X116249286Y-59596247D02*
X116249286Y-59453390D01*
X116249286Y-59453390D02*
X116296905Y-59262914D01*
X116296905Y-59262914D02*
X116344524Y-59167676D01*
X116344524Y-59167676D02*
X116439762Y-59072438D01*
X116439762Y-59072438D02*
X116582619Y-59024819D01*
X116582619Y-59024819D02*
X116677857Y-59024819D01*
X116677857Y-59024819D02*
X116820714Y-59072438D01*
X116820714Y-59072438D02*
X116868333Y-59120057D01*
X117820714Y-60024819D02*
X117249286Y-60024819D01*
X117535000Y-60024819D02*
X117535000Y-59024819D01*
X117535000Y-59024819D02*
X117439762Y-59167676D01*
X117439762Y-59167676D02*
X117344524Y-59262914D01*
X117344524Y-59262914D02*
X117249286Y-59310533D01*
X18082142Y-31929580D02*
X18034523Y-31977200D01*
X18034523Y-31977200D02*
X17891666Y-32024819D01*
X17891666Y-32024819D02*
X17796428Y-32024819D01*
X17796428Y-32024819D02*
X17653571Y-31977200D01*
X17653571Y-31977200D02*
X17558333Y-31881961D01*
X17558333Y-31881961D02*
X17510714Y-31786723D01*
X17510714Y-31786723D02*
X17463095Y-31596247D01*
X17463095Y-31596247D02*
X17463095Y-31453390D01*
X17463095Y-31453390D02*
X17510714Y-31262914D01*
X17510714Y-31262914D02*
X17558333Y-31167676D01*
X17558333Y-31167676D02*
X17653571Y-31072438D01*
X17653571Y-31072438D02*
X17796428Y-31024819D01*
X17796428Y-31024819D02*
X17891666Y-31024819D01*
X17891666Y-31024819D02*
X18034523Y-31072438D01*
X18034523Y-31072438D02*
X18082142Y-31120057D01*
X19034523Y-32024819D02*
X18463095Y-32024819D01*
X18748809Y-32024819D02*
X18748809Y-31024819D01*
X18748809Y-31024819D02*
X18653571Y-31167676D01*
X18653571Y-31167676D02*
X18558333Y-31262914D01*
X18558333Y-31262914D02*
X18463095Y-31310533D01*
X19605952Y-31453390D02*
X19510714Y-31405771D01*
X19510714Y-31405771D02*
X19463095Y-31358152D01*
X19463095Y-31358152D02*
X19415476Y-31262914D01*
X19415476Y-31262914D02*
X19415476Y-31215295D01*
X19415476Y-31215295D02*
X19463095Y-31120057D01*
X19463095Y-31120057D02*
X19510714Y-31072438D01*
X19510714Y-31072438D02*
X19605952Y-31024819D01*
X19605952Y-31024819D02*
X19796428Y-31024819D01*
X19796428Y-31024819D02*
X19891666Y-31072438D01*
X19891666Y-31072438D02*
X19939285Y-31120057D01*
X19939285Y-31120057D02*
X19986904Y-31215295D01*
X19986904Y-31215295D02*
X19986904Y-31262914D01*
X19986904Y-31262914D02*
X19939285Y-31358152D01*
X19939285Y-31358152D02*
X19891666Y-31405771D01*
X19891666Y-31405771D02*
X19796428Y-31453390D01*
X19796428Y-31453390D02*
X19605952Y-31453390D01*
X19605952Y-31453390D02*
X19510714Y-31501009D01*
X19510714Y-31501009D02*
X19463095Y-31548628D01*
X19463095Y-31548628D02*
X19415476Y-31643866D01*
X19415476Y-31643866D02*
X19415476Y-31834342D01*
X19415476Y-31834342D02*
X19463095Y-31929580D01*
X19463095Y-31929580D02*
X19510714Y-31977200D01*
X19510714Y-31977200D02*
X19605952Y-32024819D01*
X19605952Y-32024819D02*
X19796428Y-32024819D01*
X19796428Y-32024819D02*
X19891666Y-31977200D01*
X19891666Y-31977200D02*
X19939285Y-31929580D01*
X19939285Y-31929580D02*
X19986904Y-31834342D01*
X19986904Y-31834342D02*
X19986904Y-31643866D01*
X19986904Y-31643866D02*
X19939285Y-31548628D01*
X19939285Y-31548628D02*
X19891666Y-31501009D01*
X19891666Y-31501009D02*
X19796428Y-31453390D01*
X105438333Y-59929580D02*
X105390714Y-59977200D01*
X105390714Y-59977200D02*
X105247857Y-60024819D01*
X105247857Y-60024819D02*
X105152619Y-60024819D01*
X105152619Y-60024819D02*
X105009762Y-59977200D01*
X105009762Y-59977200D02*
X104914524Y-59881961D01*
X104914524Y-59881961D02*
X104866905Y-59786723D01*
X104866905Y-59786723D02*
X104819286Y-59596247D01*
X104819286Y-59596247D02*
X104819286Y-59453390D01*
X104819286Y-59453390D02*
X104866905Y-59262914D01*
X104866905Y-59262914D02*
X104914524Y-59167676D01*
X104914524Y-59167676D02*
X105009762Y-59072438D01*
X105009762Y-59072438D02*
X105152619Y-59024819D01*
X105152619Y-59024819D02*
X105247857Y-59024819D01*
X105247857Y-59024819D02*
X105390714Y-59072438D01*
X105390714Y-59072438D02*
X105438333Y-59120057D01*
X105914524Y-60024819D02*
X106105000Y-60024819D01*
X106105000Y-60024819D02*
X106200238Y-59977200D01*
X106200238Y-59977200D02*
X106247857Y-59929580D01*
X106247857Y-59929580D02*
X106343095Y-59786723D01*
X106343095Y-59786723D02*
X106390714Y-59596247D01*
X106390714Y-59596247D02*
X106390714Y-59215295D01*
X106390714Y-59215295D02*
X106343095Y-59120057D01*
X106343095Y-59120057D02*
X106295476Y-59072438D01*
X106295476Y-59072438D02*
X106200238Y-59024819D01*
X106200238Y-59024819D02*
X106009762Y-59024819D01*
X106009762Y-59024819D02*
X105914524Y-59072438D01*
X105914524Y-59072438D02*
X105866905Y-59120057D01*
X105866905Y-59120057D02*
X105819286Y-59215295D01*
X105819286Y-59215295D02*
X105819286Y-59453390D01*
X105819286Y-59453390D02*
X105866905Y-59548628D01*
X105866905Y-59548628D02*
X105914524Y-59596247D01*
X105914524Y-59596247D02*
X106009762Y-59643866D01*
X106009762Y-59643866D02*
X106200238Y-59643866D01*
X106200238Y-59643866D02*
X106295476Y-59596247D01*
X106295476Y-59596247D02*
X106343095Y-59548628D01*
X106343095Y-59548628D02*
X106390714Y-59453390D01*
X50647142Y-28364580D02*
X50599523Y-28412200D01*
X50599523Y-28412200D02*
X50456666Y-28459819D01*
X50456666Y-28459819D02*
X50361428Y-28459819D01*
X50361428Y-28459819D02*
X50218571Y-28412200D01*
X50218571Y-28412200D02*
X50123333Y-28316961D01*
X50123333Y-28316961D02*
X50075714Y-28221723D01*
X50075714Y-28221723D02*
X50028095Y-28031247D01*
X50028095Y-28031247D02*
X50028095Y-27888390D01*
X50028095Y-27888390D02*
X50075714Y-27697914D01*
X50075714Y-27697914D02*
X50123333Y-27602676D01*
X50123333Y-27602676D02*
X50218571Y-27507438D01*
X50218571Y-27507438D02*
X50361428Y-27459819D01*
X50361428Y-27459819D02*
X50456666Y-27459819D01*
X50456666Y-27459819D02*
X50599523Y-27507438D01*
X50599523Y-27507438D02*
X50647142Y-27555057D01*
X51599523Y-28459819D02*
X51028095Y-28459819D01*
X51313809Y-28459819D02*
X51313809Y-27459819D01*
X51313809Y-27459819D02*
X51218571Y-27602676D01*
X51218571Y-27602676D02*
X51123333Y-27697914D01*
X51123333Y-27697914D02*
X51028095Y-27745533D01*
X52504285Y-27459819D02*
X52028095Y-27459819D01*
X52028095Y-27459819D02*
X51980476Y-27936009D01*
X51980476Y-27936009D02*
X52028095Y-27888390D01*
X52028095Y-27888390D02*
X52123333Y-27840771D01*
X52123333Y-27840771D02*
X52361428Y-27840771D01*
X52361428Y-27840771D02*
X52456666Y-27888390D01*
X52456666Y-27888390D02*
X52504285Y-27936009D01*
X52504285Y-27936009D02*
X52551904Y-28031247D01*
X52551904Y-28031247D02*
X52551904Y-28269342D01*
X52551904Y-28269342D02*
X52504285Y-28364580D01*
X52504285Y-28364580D02*
X52456666Y-28412200D01*
X52456666Y-28412200D02*
X52361428Y-28459819D01*
X52361428Y-28459819D02*
X52123333Y-28459819D01*
X52123333Y-28459819D02*
X52028095Y-28412200D01*
X52028095Y-28412200D02*
X51980476Y-28364580D01*
X17738095Y-14504819D02*
X17738095Y-15314342D01*
X17738095Y-15314342D02*
X17785714Y-15409580D01*
X17785714Y-15409580D02*
X17833333Y-15457200D01*
X17833333Y-15457200D02*
X17928571Y-15504819D01*
X17928571Y-15504819D02*
X18119047Y-15504819D01*
X18119047Y-15504819D02*
X18214285Y-15457200D01*
X18214285Y-15457200D02*
X18261904Y-15409580D01*
X18261904Y-15409580D02*
X18309523Y-15314342D01*
X18309523Y-15314342D02*
X18309523Y-14504819D01*
X19214285Y-14838152D02*
X19214285Y-15504819D01*
X18976190Y-14457200D02*
X18738095Y-15171485D01*
X18738095Y-15171485D02*
X19357142Y-15171485D01*
X48107142Y-28364580D02*
X48059523Y-28412200D01*
X48059523Y-28412200D02*
X47916666Y-28459819D01*
X47916666Y-28459819D02*
X47821428Y-28459819D01*
X47821428Y-28459819D02*
X47678571Y-28412200D01*
X47678571Y-28412200D02*
X47583333Y-28316961D01*
X47583333Y-28316961D02*
X47535714Y-28221723D01*
X47535714Y-28221723D02*
X47488095Y-28031247D01*
X47488095Y-28031247D02*
X47488095Y-27888390D01*
X47488095Y-27888390D02*
X47535714Y-27697914D01*
X47535714Y-27697914D02*
X47583333Y-27602676D01*
X47583333Y-27602676D02*
X47678571Y-27507438D01*
X47678571Y-27507438D02*
X47821428Y-27459819D01*
X47821428Y-27459819D02*
X47916666Y-27459819D01*
X47916666Y-27459819D02*
X48059523Y-27507438D01*
X48059523Y-27507438D02*
X48107142Y-27555057D01*
X49059523Y-28459819D02*
X48488095Y-28459819D01*
X48773809Y-28459819D02*
X48773809Y-27459819D01*
X48773809Y-27459819D02*
X48678571Y-27602676D01*
X48678571Y-27602676D02*
X48583333Y-27697914D01*
X48583333Y-27697914D02*
X48488095Y-27745533D01*
X50011904Y-28459819D02*
X49440476Y-28459819D01*
X49726190Y-28459819D02*
X49726190Y-27459819D01*
X49726190Y-27459819D02*
X49630952Y-27602676D01*
X49630952Y-27602676D02*
X49535714Y-27697914D01*
X49535714Y-27697914D02*
X49440476Y-27745533D01*
X108681666Y-12004819D02*
X108681666Y-12719104D01*
X108681666Y-12719104D02*
X108634047Y-12861961D01*
X108634047Y-12861961D02*
X108538809Y-12957200D01*
X108538809Y-12957200D02*
X108395952Y-13004819D01*
X108395952Y-13004819D02*
X108300714Y-13004819D01*
X109110238Y-12100057D02*
X109157857Y-12052438D01*
X109157857Y-12052438D02*
X109253095Y-12004819D01*
X109253095Y-12004819D02*
X109491190Y-12004819D01*
X109491190Y-12004819D02*
X109586428Y-12052438D01*
X109586428Y-12052438D02*
X109634047Y-12100057D01*
X109634047Y-12100057D02*
X109681666Y-12195295D01*
X109681666Y-12195295D02*
X109681666Y-12290533D01*
X109681666Y-12290533D02*
X109634047Y-12433390D01*
X109634047Y-12433390D02*
X109062619Y-13004819D01*
X109062619Y-13004819D02*
X109681666Y-13004819D01*
X61116666Y-23334819D02*
X61116666Y-24049104D01*
X61116666Y-24049104D02*
X61069047Y-24191961D01*
X61069047Y-24191961D02*
X60973809Y-24287200D01*
X60973809Y-24287200D02*
X60830952Y-24334819D01*
X60830952Y-24334819D02*
X60735714Y-24334819D01*
X61735714Y-23763390D02*
X61640476Y-23715771D01*
X61640476Y-23715771D02*
X61592857Y-23668152D01*
X61592857Y-23668152D02*
X61545238Y-23572914D01*
X61545238Y-23572914D02*
X61545238Y-23525295D01*
X61545238Y-23525295D02*
X61592857Y-23430057D01*
X61592857Y-23430057D02*
X61640476Y-23382438D01*
X61640476Y-23382438D02*
X61735714Y-23334819D01*
X61735714Y-23334819D02*
X61926190Y-23334819D01*
X61926190Y-23334819D02*
X62021428Y-23382438D01*
X62021428Y-23382438D02*
X62069047Y-23430057D01*
X62069047Y-23430057D02*
X62116666Y-23525295D01*
X62116666Y-23525295D02*
X62116666Y-23572914D01*
X62116666Y-23572914D02*
X62069047Y-23668152D01*
X62069047Y-23668152D02*
X62021428Y-23715771D01*
X62021428Y-23715771D02*
X61926190Y-23763390D01*
X61926190Y-23763390D02*
X61735714Y-23763390D01*
X61735714Y-23763390D02*
X61640476Y-23811009D01*
X61640476Y-23811009D02*
X61592857Y-23858628D01*
X61592857Y-23858628D02*
X61545238Y-23953866D01*
X61545238Y-23953866D02*
X61545238Y-24144342D01*
X61545238Y-24144342D02*
X61592857Y-24239580D01*
X61592857Y-24239580D02*
X61640476Y-24287200D01*
X61640476Y-24287200D02*
X61735714Y-24334819D01*
X61735714Y-24334819D02*
X61926190Y-24334819D01*
X61926190Y-24334819D02*
X62021428Y-24287200D01*
X62021428Y-24287200D02*
X62069047Y-24239580D01*
X62069047Y-24239580D02*
X62116666Y-24144342D01*
X62116666Y-24144342D02*
X62116666Y-23953866D01*
X62116666Y-23953866D02*
X62069047Y-23858628D01*
X62069047Y-23858628D02*
X62021428Y-23811009D01*
X62021428Y-23811009D02*
X61926190Y-23763390D01*
X141940476Y-74504819D02*
X141940476Y-75219104D01*
X141940476Y-75219104D02*
X141892857Y-75361961D01*
X141892857Y-75361961D02*
X141797619Y-75457200D01*
X141797619Y-75457200D02*
X141654762Y-75504819D01*
X141654762Y-75504819D02*
X141559524Y-75504819D01*
X142940476Y-75504819D02*
X142369048Y-75504819D01*
X142654762Y-75504819D02*
X142654762Y-74504819D01*
X142654762Y-74504819D02*
X142559524Y-74647676D01*
X142559524Y-74647676D02*
X142464286Y-74742914D01*
X142464286Y-74742914D02*
X142369048Y-74790533D01*
X143273810Y-74504819D02*
X143892857Y-74504819D01*
X143892857Y-74504819D02*
X143559524Y-74885771D01*
X143559524Y-74885771D02*
X143702381Y-74885771D01*
X143702381Y-74885771D02*
X143797619Y-74933390D01*
X143797619Y-74933390D02*
X143845238Y-74981009D01*
X143845238Y-74981009D02*
X143892857Y-75076247D01*
X143892857Y-75076247D02*
X143892857Y-75314342D01*
X143892857Y-75314342D02*
X143845238Y-75409580D01*
X143845238Y-75409580D02*
X143797619Y-75457200D01*
X143797619Y-75457200D02*
X143702381Y-75504819D01*
X143702381Y-75504819D02*
X143416667Y-75504819D01*
X143416667Y-75504819D02*
X143321429Y-75457200D01*
X143321429Y-75457200D02*
X143273810Y-75409580D01*
X130254819Y-57642857D02*
X129778628Y-57976190D01*
X130254819Y-58214285D02*
X129254819Y-58214285D01*
X129254819Y-58214285D02*
X129254819Y-57833333D01*
X129254819Y-57833333D02*
X129302438Y-57738095D01*
X129302438Y-57738095D02*
X129350057Y-57690476D01*
X129350057Y-57690476D02*
X129445295Y-57642857D01*
X129445295Y-57642857D02*
X129588152Y-57642857D01*
X129588152Y-57642857D02*
X129683390Y-57690476D01*
X129683390Y-57690476D02*
X129731009Y-57738095D01*
X129731009Y-57738095D02*
X129778628Y-57833333D01*
X129778628Y-57833333D02*
X129778628Y-58214285D01*
X130254819Y-56690476D02*
X130254819Y-57261904D01*
X130254819Y-56976190D02*
X129254819Y-56976190D01*
X129254819Y-56976190D02*
X129397676Y-57071428D01*
X129397676Y-57071428D02*
X129492914Y-57166666D01*
X129492914Y-57166666D02*
X129540533Y-57261904D01*
X129350057Y-56309523D02*
X129302438Y-56261904D01*
X129302438Y-56261904D02*
X129254819Y-56166666D01*
X129254819Y-56166666D02*
X129254819Y-55928571D01*
X129254819Y-55928571D02*
X129302438Y-55833333D01*
X129302438Y-55833333D02*
X129350057Y-55785714D01*
X129350057Y-55785714D02*
X129445295Y-55738095D01*
X129445295Y-55738095D02*
X129540533Y-55738095D01*
X129540533Y-55738095D02*
X129683390Y-55785714D01*
X129683390Y-55785714D02*
X130254819Y-56357142D01*
X130254819Y-56357142D02*
X130254819Y-55738095D01*
X121044761Y-16790057D02*
X120949523Y-16742438D01*
X120949523Y-16742438D02*
X120854285Y-16647200D01*
X120854285Y-16647200D02*
X120711428Y-16504342D01*
X120711428Y-16504342D02*
X120616190Y-16456723D01*
X120616190Y-16456723D02*
X120520952Y-16456723D01*
X120568571Y-16694819D02*
X120473333Y-16647200D01*
X120473333Y-16647200D02*
X120378095Y-16551961D01*
X120378095Y-16551961D02*
X120330476Y-16361485D01*
X120330476Y-16361485D02*
X120330476Y-16028152D01*
X120330476Y-16028152D02*
X120378095Y-15837676D01*
X120378095Y-15837676D02*
X120473333Y-15742438D01*
X120473333Y-15742438D02*
X120568571Y-15694819D01*
X120568571Y-15694819D02*
X120759047Y-15694819D01*
X120759047Y-15694819D02*
X120854285Y-15742438D01*
X120854285Y-15742438D02*
X120949523Y-15837676D01*
X120949523Y-15837676D02*
X120997142Y-16028152D01*
X120997142Y-16028152D02*
X120997142Y-16361485D01*
X120997142Y-16361485D02*
X120949523Y-16551961D01*
X120949523Y-16551961D02*
X120854285Y-16647200D01*
X120854285Y-16647200D02*
X120759047Y-16694819D01*
X120759047Y-16694819D02*
X120568571Y-16694819D01*
X121949523Y-16694819D02*
X121378095Y-16694819D01*
X121663809Y-16694819D02*
X121663809Y-15694819D01*
X121663809Y-15694819D02*
X121568571Y-15837676D01*
X121568571Y-15837676D02*
X121473333Y-15932914D01*
X121473333Y-15932914D02*
X121378095Y-15980533D01*
X44773333Y-25064819D02*
X44440000Y-24588628D01*
X44201905Y-25064819D02*
X44201905Y-24064819D01*
X44201905Y-24064819D02*
X44582857Y-24064819D01*
X44582857Y-24064819D02*
X44678095Y-24112438D01*
X44678095Y-24112438D02*
X44725714Y-24160057D01*
X44725714Y-24160057D02*
X44773333Y-24255295D01*
X44773333Y-24255295D02*
X44773333Y-24398152D01*
X44773333Y-24398152D02*
X44725714Y-24493390D01*
X44725714Y-24493390D02*
X44678095Y-24541009D01*
X44678095Y-24541009D02*
X44582857Y-24588628D01*
X44582857Y-24588628D02*
X44201905Y-24588628D01*
X45725714Y-25064819D02*
X45154286Y-25064819D01*
X45440000Y-25064819D02*
X45440000Y-24064819D01*
X45440000Y-24064819D02*
X45344762Y-24207676D01*
X45344762Y-24207676D02*
X45249524Y-24302914D01*
X45249524Y-24302914D02*
X45154286Y-24350533D01*
X94303333Y-27729580D02*
X94255714Y-27777200D01*
X94255714Y-27777200D02*
X94112857Y-27824819D01*
X94112857Y-27824819D02*
X94017619Y-27824819D01*
X94017619Y-27824819D02*
X93874762Y-27777200D01*
X93874762Y-27777200D02*
X93779524Y-27681961D01*
X93779524Y-27681961D02*
X93731905Y-27586723D01*
X93731905Y-27586723D02*
X93684286Y-27396247D01*
X93684286Y-27396247D02*
X93684286Y-27253390D01*
X93684286Y-27253390D02*
X93731905Y-27062914D01*
X93731905Y-27062914D02*
X93779524Y-26967676D01*
X93779524Y-26967676D02*
X93874762Y-26872438D01*
X93874762Y-26872438D02*
X94017619Y-26824819D01*
X94017619Y-26824819D02*
X94112857Y-26824819D01*
X94112857Y-26824819D02*
X94255714Y-26872438D01*
X94255714Y-26872438D02*
X94303333Y-26920057D01*
X94874762Y-27253390D02*
X94779524Y-27205771D01*
X94779524Y-27205771D02*
X94731905Y-27158152D01*
X94731905Y-27158152D02*
X94684286Y-27062914D01*
X94684286Y-27062914D02*
X94684286Y-27015295D01*
X94684286Y-27015295D02*
X94731905Y-26920057D01*
X94731905Y-26920057D02*
X94779524Y-26872438D01*
X94779524Y-26872438D02*
X94874762Y-26824819D01*
X94874762Y-26824819D02*
X95065238Y-26824819D01*
X95065238Y-26824819D02*
X95160476Y-26872438D01*
X95160476Y-26872438D02*
X95208095Y-26920057D01*
X95208095Y-26920057D02*
X95255714Y-27015295D01*
X95255714Y-27015295D02*
X95255714Y-27062914D01*
X95255714Y-27062914D02*
X95208095Y-27158152D01*
X95208095Y-27158152D02*
X95160476Y-27205771D01*
X95160476Y-27205771D02*
X95065238Y-27253390D01*
X95065238Y-27253390D02*
X94874762Y-27253390D01*
X94874762Y-27253390D02*
X94779524Y-27301009D01*
X94779524Y-27301009D02*
X94731905Y-27348628D01*
X94731905Y-27348628D02*
X94684286Y-27443866D01*
X94684286Y-27443866D02*
X94684286Y-27634342D01*
X94684286Y-27634342D02*
X94731905Y-27729580D01*
X94731905Y-27729580D02*
X94779524Y-27777200D01*
X94779524Y-27777200D02*
X94874762Y-27824819D01*
X94874762Y-27824819D02*
X95065238Y-27824819D01*
X95065238Y-27824819D02*
X95160476Y-27777200D01*
X95160476Y-27777200D02*
X95208095Y-27729580D01*
X95208095Y-27729580D02*
X95255714Y-27634342D01*
X95255714Y-27634342D02*
X95255714Y-27443866D01*
X95255714Y-27443866D02*
X95208095Y-27348628D01*
X95208095Y-27348628D02*
X95160476Y-27301009D01*
X95160476Y-27301009D02*
X95065238Y-27253390D01*
X52431667Y-49487200D02*
X52574524Y-49534819D01*
X52574524Y-49534819D02*
X52812619Y-49534819D01*
X52812619Y-49534819D02*
X52907857Y-49487200D01*
X52907857Y-49487200D02*
X52955476Y-49439580D01*
X52955476Y-49439580D02*
X53003095Y-49344342D01*
X53003095Y-49344342D02*
X53003095Y-49249104D01*
X53003095Y-49249104D02*
X52955476Y-49153866D01*
X52955476Y-49153866D02*
X52907857Y-49106247D01*
X52907857Y-49106247D02*
X52812619Y-49058628D01*
X52812619Y-49058628D02*
X52622143Y-49011009D01*
X52622143Y-49011009D02*
X52526905Y-48963390D01*
X52526905Y-48963390D02*
X52479286Y-48915771D01*
X52479286Y-48915771D02*
X52431667Y-48820533D01*
X52431667Y-48820533D02*
X52431667Y-48725295D01*
X52431667Y-48725295D02*
X52479286Y-48630057D01*
X52479286Y-48630057D02*
X52526905Y-48582438D01*
X52526905Y-48582438D02*
X52622143Y-48534819D01*
X52622143Y-48534819D02*
X52860238Y-48534819D01*
X52860238Y-48534819D02*
X53003095Y-48582438D01*
X53336429Y-48534819D02*
X53574524Y-49534819D01*
X53574524Y-49534819D02*
X53765000Y-48820533D01*
X53765000Y-48820533D02*
X53955476Y-49534819D01*
X53955476Y-49534819D02*
X54193572Y-48534819D01*
X55098333Y-49534819D02*
X54526905Y-49534819D01*
X54812619Y-49534819D02*
X54812619Y-48534819D01*
X54812619Y-48534819D02*
X54717381Y-48677676D01*
X54717381Y-48677676D02*
X54622143Y-48772914D01*
X54622143Y-48772914D02*
X54526905Y-48820533D01*
X21582142Y-20394819D02*
X21248809Y-19918628D01*
X21010714Y-20394819D02*
X21010714Y-19394819D01*
X21010714Y-19394819D02*
X21391666Y-19394819D01*
X21391666Y-19394819D02*
X21486904Y-19442438D01*
X21486904Y-19442438D02*
X21534523Y-19490057D01*
X21534523Y-19490057D02*
X21582142Y-19585295D01*
X21582142Y-19585295D02*
X21582142Y-19728152D01*
X21582142Y-19728152D02*
X21534523Y-19823390D01*
X21534523Y-19823390D02*
X21486904Y-19871009D01*
X21486904Y-19871009D02*
X21391666Y-19918628D01*
X21391666Y-19918628D02*
X21010714Y-19918628D01*
X22534523Y-20394819D02*
X21963095Y-20394819D01*
X22248809Y-20394819D02*
X22248809Y-19394819D01*
X22248809Y-19394819D02*
X22153571Y-19537676D01*
X22153571Y-19537676D02*
X22058333Y-19632914D01*
X22058333Y-19632914D02*
X21963095Y-19680533D01*
X23391666Y-19394819D02*
X23201190Y-19394819D01*
X23201190Y-19394819D02*
X23105952Y-19442438D01*
X23105952Y-19442438D02*
X23058333Y-19490057D01*
X23058333Y-19490057D02*
X22963095Y-19632914D01*
X22963095Y-19632914D02*
X22915476Y-19823390D01*
X22915476Y-19823390D02*
X22915476Y-20204342D01*
X22915476Y-20204342D02*
X22963095Y-20299580D01*
X22963095Y-20299580D02*
X23010714Y-20347200D01*
X23010714Y-20347200D02*
X23105952Y-20394819D01*
X23105952Y-20394819D02*
X23296428Y-20394819D01*
X23296428Y-20394819D02*
X23391666Y-20347200D01*
X23391666Y-20347200D02*
X23439285Y-20299580D01*
X23439285Y-20299580D02*
X23486904Y-20204342D01*
X23486904Y-20204342D02*
X23486904Y-19966247D01*
X23486904Y-19966247D02*
X23439285Y-19871009D01*
X23439285Y-19871009D02*
X23391666Y-19823390D01*
X23391666Y-19823390D02*
X23296428Y-19775771D01*
X23296428Y-19775771D02*
X23105952Y-19775771D01*
X23105952Y-19775771D02*
X23010714Y-19823390D01*
X23010714Y-19823390D02*
X22963095Y-19871009D01*
X22963095Y-19871009D02*
X22915476Y-19966247D01*
X24333333Y-74804819D02*
X24000000Y-74328628D01*
X23761905Y-74804819D02*
X23761905Y-73804819D01*
X23761905Y-73804819D02*
X24142857Y-73804819D01*
X24142857Y-73804819D02*
X24238095Y-73852438D01*
X24238095Y-73852438D02*
X24285714Y-73900057D01*
X24285714Y-73900057D02*
X24333333Y-73995295D01*
X24333333Y-73995295D02*
X24333333Y-74138152D01*
X24333333Y-74138152D02*
X24285714Y-74233390D01*
X24285714Y-74233390D02*
X24238095Y-74281009D01*
X24238095Y-74281009D02*
X24142857Y-74328628D01*
X24142857Y-74328628D02*
X23761905Y-74328628D01*
X25190476Y-73804819D02*
X25000000Y-73804819D01*
X25000000Y-73804819D02*
X24904762Y-73852438D01*
X24904762Y-73852438D02*
X24857143Y-73900057D01*
X24857143Y-73900057D02*
X24761905Y-74042914D01*
X24761905Y-74042914D02*
X24714286Y-74233390D01*
X24714286Y-74233390D02*
X24714286Y-74614342D01*
X24714286Y-74614342D02*
X24761905Y-74709580D01*
X24761905Y-74709580D02*
X24809524Y-74757200D01*
X24809524Y-74757200D02*
X24904762Y-74804819D01*
X24904762Y-74804819D02*
X25095238Y-74804819D01*
X25095238Y-74804819D02*
X25190476Y-74757200D01*
X25190476Y-74757200D02*
X25238095Y-74709580D01*
X25238095Y-74709580D02*
X25285714Y-74614342D01*
X25285714Y-74614342D02*
X25285714Y-74376247D01*
X25285714Y-74376247D02*
X25238095Y-74281009D01*
X25238095Y-74281009D02*
X25190476Y-74233390D01*
X25190476Y-74233390D02*
X25095238Y-74185771D01*
X25095238Y-74185771D02*
X24904762Y-74185771D01*
X24904762Y-74185771D02*
X24809524Y-74233390D01*
X24809524Y-74233390D02*
X24761905Y-74281009D01*
X24761905Y-74281009D02*
X24714286Y-74376247D01*
X118592142Y-23159819D02*
X118258809Y-22683628D01*
X118020714Y-23159819D02*
X118020714Y-22159819D01*
X118020714Y-22159819D02*
X118401666Y-22159819D01*
X118401666Y-22159819D02*
X118496904Y-22207438D01*
X118496904Y-22207438D02*
X118544523Y-22255057D01*
X118544523Y-22255057D02*
X118592142Y-22350295D01*
X118592142Y-22350295D02*
X118592142Y-22493152D01*
X118592142Y-22493152D02*
X118544523Y-22588390D01*
X118544523Y-22588390D02*
X118496904Y-22636009D01*
X118496904Y-22636009D02*
X118401666Y-22683628D01*
X118401666Y-22683628D02*
X118020714Y-22683628D01*
X119544523Y-23159819D02*
X118973095Y-23159819D01*
X119258809Y-23159819D02*
X119258809Y-22159819D01*
X119258809Y-22159819D02*
X119163571Y-22302676D01*
X119163571Y-22302676D02*
X119068333Y-22397914D01*
X119068333Y-22397914D02*
X118973095Y-22445533D01*
X120449285Y-22159819D02*
X119973095Y-22159819D01*
X119973095Y-22159819D02*
X119925476Y-22636009D01*
X119925476Y-22636009D02*
X119973095Y-22588390D01*
X119973095Y-22588390D02*
X120068333Y-22540771D01*
X120068333Y-22540771D02*
X120306428Y-22540771D01*
X120306428Y-22540771D02*
X120401666Y-22588390D01*
X120401666Y-22588390D02*
X120449285Y-22636009D01*
X120449285Y-22636009D02*
X120496904Y-22731247D01*
X120496904Y-22731247D02*
X120496904Y-22969342D01*
X120496904Y-22969342D02*
X120449285Y-23064580D01*
X120449285Y-23064580D02*
X120401666Y-23112200D01*
X120401666Y-23112200D02*
X120306428Y-23159819D01*
X120306428Y-23159819D02*
X120068333Y-23159819D01*
X120068333Y-23159819D02*
X119973095Y-23112200D01*
X119973095Y-23112200D02*
X119925476Y-23064580D01*
X81436666Y-23334819D02*
X81436666Y-24049104D01*
X81436666Y-24049104D02*
X81389047Y-24191961D01*
X81389047Y-24191961D02*
X81293809Y-24287200D01*
X81293809Y-24287200D02*
X81150952Y-24334819D01*
X81150952Y-24334819D02*
X81055714Y-24334819D01*
X82341428Y-23334819D02*
X82150952Y-23334819D01*
X82150952Y-23334819D02*
X82055714Y-23382438D01*
X82055714Y-23382438D02*
X82008095Y-23430057D01*
X82008095Y-23430057D02*
X81912857Y-23572914D01*
X81912857Y-23572914D02*
X81865238Y-23763390D01*
X81865238Y-23763390D02*
X81865238Y-24144342D01*
X81865238Y-24144342D02*
X81912857Y-24239580D01*
X81912857Y-24239580D02*
X81960476Y-24287200D01*
X81960476Y-24287200D02*
X82055714Y-24334819D01*
X82055714Y-24334819D02*
X82246190Y-24334819D01*
X82246190Y-24334819D02*
X82341428Y-24287200D01*
X82341428Y-24287200D02*
X82389047Y-24239580D01*
X82389047Y-24239580D02*
X82436666Y-24144342D01*
X82436666Y-24144342D02*
X82436666Y-23906247D01*
X82436666Y-23906247D02*
X82389047Y-23811009D01*
X82389047Y-23811009D02*
X82341428Y-23763390D01*
X82341428Y-23763390D02*
X82246190Y-23715771D01*
X82246190Y-23715771D02*
X82055714Y-23715771D01*
X82055714Y-23715771D02*
X81960476Y-23763390D01*
X81960476Y-23763390D02*
X81912857Y-23811009D01*
X81912857Y-23811009D02*
X81865238Y-23906247D01*
X24598333Y-14914819D02*
X24122143Y-14914819D01*
X24122143Y-14914819D02*
X24122143Y-13914819D01*
X25455476Y-14914819D02*
X24884048Y-14914819D01*
X25169762Y-14914819D02*
X25169762Y-13914819D01*
X25169762Y-13914819D02*
X25074524Y-14057676D01*
X25074524Y-14057676D02*
X24979286Y-14152914D01*
X24979286Y-14152914D02*
X24884048Y-14200533D01*
X70967142Y-27729580D02*
X70919523Y-27777200D01*
X70919523Y-27777200D02*
X70776666Y-27824819D01*
X70776666Y-27824819D02*
X70681428Y-27824819D01*
X70681428Y-27824819D02*
X70538571Y-27777200D01*
X70538571Y-27777200D02*
X70443333Y-27681961D01*
X70443333Y-27681961D02*
X70395714Y-27586723D01*
X70395714Y-27586723D02*
X70348095Y-27396247D01*
X70348095Y-27396247D02*
X70348095Y-27253390D01*
X70348095Y-27253390D02*
X70395714Y-27062914D01*
X70395714Y-27062914D02*
X70443333Y-26967676D01*
X70443333Y-26967676D02*
X70538571Y-26872438D01*
X70538571Y-26872438D02*
X70681428Y-26824819D01*
X70681428Y-26824819D02*
X70776666Y-26824819D01*
X70776666Y-26824819D02*
X70919523Y-26872438D01*
X70919523Y-26872438D02*
X70967142Y-26920057D01*
X71919523Y-27824819D02*
X71348095Y-27824819D01*
X71633809Y-27824819D02*
X71633809Y-26824819D01*
X71633809Y-26824819D02*
X71538571Y-26967676D01*
X71538571Y-26967676D02*
X71443333Y-27062914D01*
X71443333Y-27062914D02*
X71348095Y-27110533D01*
X72395714Y-27824819D02*
X72586190Y-27824819D01*
X72586190Y-27824819D02*
X72681428Y-27777200D01*
X72681428Y-27777200D02*
X72729047Y-27729580D01*
X72729047Y-27729580D02*
X72824285Y-27586723D01*
X72824285Y-27586723D02*
X72871904Y-27396247D01*
X72871904Y-27396247D02*
X72871904Y-27015295D01*
X72871904Y-27015295D02*
X72824285Y-26920057D01*
X72824285Y-26920057D02*
X72776666Y-26872438D01*
X72776666Y-26872438D02*
X72681428Y-26824819D01*
X72681428Y-26824819D02*
X72490952Y-26824819D01*
X72490952Y-26824819D02*
X72395714Y-26872438D01*
X72395714Y-26872438D02*
X72348095Y-26920057D01*
X72348095Y-26920057D02*
X72300476Y-27015295D01*
X72300476Y-27015295D02*
X72300476Y-27253390D01*
X72300476Y-27253390D02*
X72348095Y-27348628D01*
X72348095Y-27348628D02*
X72395714Y-27396247D01*
X72395714Y-27396247D02*
X72490952Y-27443866D01*
X72490952Y-27443866D02*
X72681428Y-27443866D01*
X72681428Y-27443866D02*
X72776666Y-27396247D01*
X72776666Y-27396247D02*
X72824285Y-27348628D01*
X72824285Y-27348628D02*
X72871904Y-27253390D01*
X151554819Y-38769523D02*
X152269104Y-38769523D01*
X152269104Y-38769523D02*
X152411961Y-38817142D01*
X152411961Y-38817142D02*
X152507200Y-38912380D01*
X152507200Y-38912380D02*
X152554819Y-39055237D01*
X152554819Y-39055237D02*
X152554819Y-39150475D01*
X152554819Y-37769523D02*
X152554819Y-38340951D01*
X152554819Y-38055237D02*
X151554819Y-38055237D01*
X151554819Y-38055237D02*
X151697676Y-38150475D01*
X151697676Y-38150475D02*
X151792914Y-38245713D01*
X151792914Y-38245713D02*
X151840533Y-38340951D01*
X151554819Y-37150475D02*
X151554819Y-37055237D01*
X151554819Y-37055237D02*
X151602438Y-36959999D01*
X151602438Y-36959999D02*
X151650057Y-36912380D01*
X151650057Y-36912380D02*
X151745295Y-36864761D01*
X151745295Y-36864761D02*
X151935771Y-36817142D01*
X151935771Y-36817142D02*
X152173866Y-36817142D01*
X152173866Y-36817142D02*
X152364342Y-36864761D01*
X152364342Y-36864761D02*
X152459580Y-36912380D01*
X152459580Y-36912380D02*
X152507200Y-36959999D01*
X152507200Y-36959999D02*
X152554819Y-37055237D01*
X152554819Y-37055237D02*
X152554819Y-37150475D01*
X152554819Y-37150475D02*
X152507200Y-37245713D01*
X152507200Y-37245713D02*
X152459580Y-37293332D01*
X152459580Y-37293332D02*
X152364342Y-37340951D01*
X152364342Y-37340951D02*
X152173866Y-37388570D01*
X152173866Y-37388570D02*
X151935771Y-37388570D01*
X151935771Y-37388570D02*
X151745295Y-37340951D01*
X151745295Y-37340951D02*
X151650057Y-37293332D01*
X151650057Y-37293332D02*
X151602438Y-37245713D01*
X151602438Y-37245713D02*
X151554819Y-37150475D01*
X85572142Y-26334819D02*
X85238809Y-25858628D01*
X85000714Y-26334819D02*
X85000714Y-25334819D01*
X85000714Y-25334819D02*
X85381666Y-25334819D01*
X85381666Y-25334819D02*
X85476904Y-25382438D01*
X85476904Y-25382438D02*
X85524523Y-25430057D01*
X85524523Y-25430057D02*
X85572142Y-25525295D01*
X85572142Y-25525295D02*
X85572142Y-25668152D01*
X85572142Y-25668152D02*
X85524523Y-25763390D01*
X85524523Y-25763390D02*
X85476904Y-25811009D01*
X85476904Y-25811009D02*
X85381666Y-25858628D01*
X85381666Y-25858628D02*
X85000714Y-25858628D01*
X86524523Y-26334819D02*
X85953095Y-26334819D01*
X86238809Y-26334819D02*
X86238809Y-25334819D01*
X86238809Y-25334819D02*
X86143571Y-25477676D01*
X86143571Y-25477676D02*
X86048333Y-25572914D01*
X86048333Y-25572914D02*
X85953095Y-25620533D01*
X86857857Y-25334819D02*
X87476904Y-25334819D01*
X87476904Y-25334819D02*
X87143571Y-25715771D01*
X87143571Y-25715771D02*
X87286428Y-25715771D01*
X87286428Y-25715771D02*
X87381666Y-25763390D01*
X87381666Y-25763390D02*
X87429285Y-25811009D01*
X87429285Y-25811009D02*
X87476904Y-25906247D01*
X87476904Y-25906247D02*
X87476904Y-26144342D01*
X87476904Y-26144342D02*
X87429285Y-26239580D01*
X87429285Y-26239580D02*
X87381666Y-26287200D01*
X87381666Y-26287200D02*
X87286428Y-26334819D01*
X87286428Y-26334819D02*
X87000714Y-26334819D01*
X87000714Y-26334819D02*
X86905476Y-26287200D01*
X86905476Y-26287200D02*
X86857857Y-26239580D01*
X133429819Y-57642857D02*
X132953628Y-57976190D01*
X133429819Y-58214285D02*
X132429819Y-58214285D01*
X132429819Y-58214285D02*
X132429819Y-57833333D01*
X132429819Y-57833333D02*
X132477438Y-57738095D01*
X132477438Y-57738095D02*
X132525057Y-57690476D01*
X132525057Y-57690476D02*
X132620295Y-57642857D01*
X132620295Y-57642857D02*
X132763152Y-57642857D01*
X132763152Y-57642857D02*
X132858390Y-57690476D01*
X132858390Y-57690476D02*
X132906009Y-57738095D01*
X132906009Y-57738095D02*
X132953628Y-57833333D01*
X132953628Y-57833333D02*
X132953628Y-58214285D01*
X132525057Y-57261904D02*
X132477438Y-57214285D01*
X132477438Y-57214285D02*
X132429819Y-57119047D01*
X132429819Y-57119047D02*
X132429819Y-56880952D01*
X132429819Y-56880952D02*
X132477438Y-56785714D01*
X132477438Y-56785714D02*
X132525057Y-56738095D01*
X132525057Y-56738095D02*
X132620295Y-56690476D01*
X132620295Y-56690476D02*
X132715533Y-56690476D01*
X132715533Y-56690476D02*
X132858390Y-56738095D01*
X132858390Y-56738095D02*
X133429819Y-57309523D01*
X133429819Y-57309523D02*
X133429819Y-56690476D01*
X132429819Y-56071428D02*
X132429819Y-55976190D01*
X132429819Y-55976190D02*
X132477438Y-55880952D01*
X132477438Y-55880952D02*
X132525057Y-55833333D01*
X132525057Y-55833333D02*
X132620295Y-55785714D01*
X132620295Y-55785714D02*
X132810771Y-55738095D01*
X132810771Y-55738095D02*
X133048866Y-55738095D01*
X133048866Y-55738095D02*
X133239342Y-55785714D01*
X133239342Y-55785714D02*
X133334580Y-55833333D01*
X133334580Y-55833333D02*
X133382200Y-55880952D01*
X133382200Y-55880952D02*
X133429819Y-55976190D01*
X133429819Y-55976190D02*
X133429819Y-56071428D01*
X133429819Y-56071428D02*
X133382200Y-56166666D01*
X133382200Y-56166666D02*
X133334580Y-56214285D01*
X133334580Y-56214285D02*
X133239342Y-56261904D01*
X133239342Y-56261904D02*
X133048866Y-56309523D01*
X133048866Y-56309523D02*
X132810771Y-56309523D01*
X132810771Y-56309523D02*
X132620295Y-56261904D01*
X132620295Y-56261904D02*
X132525057Y-56214285D01*
X132525057Y-56214285D02*
X132477438Y-56166666D01*
X132477438Y-56166666D02*
X132429819Y-56071428D01*
X151554819Y-64269523D02*
X152269104Y-64269523D01*
X152269104Y-64269523D02*
X152411961Y-64317142D01*
X152411961Y-64317142D02*
X152507200Y-64412380D01*
X152507200Y-64412380D02*
X152554819Y-64555237D01*
X152554819Y-64555237D02*
X152554819Y-64650475D01*
X152554819Y-63269523D02*
X152554819Y-63840951D01*
X152554819Y-63555237D02*
X151554819Y-63555237D01*
X151554819Y-63555237D02*
X151697676Y-63650475D01*
X151697676Y-63650475D02*
X151792914Y-63745713D01*
X151792914Y-63745713D02*
X151840533Y-63840951D01*
X151650057Y-62888570D02*
X151602438Y-62840951D01*
X151602438Y-62840951D02*
X151554819Y-62745713D01*
X151554819Y-62745713D02*
X151554819Y-62507618D01*
X151554819Y-62507618D02*
X151602438Y-62412380D01*
X151602438Y-62412380D02*
X151650057Y-62364761D01*
X151650057Y-62364761D02*
X151745295Y-62317142D01*
X151745295Y-62317142D02*
X151840533Y-62317142D01*
X151840533Y-62317142D02*
X151983390Y-62364761D01*
X151983390Y-62364761D02*
X152554819Y-62936189D01*
X152554819Y-62936189D02*
X152554819Y-62317142D01*
X29043333Y-21789580D02*
X28995714Y-21837200D01*
X28995714Y-21837200D02*
X28852857Y-21884819D01*
X28852857Y-21884819D02*
X28757619Y-21884819D01*
X28757619Y-21884819D02*
X28614762Y-21837200D01*
X28614762Y-21837200D02*
X28519524Y-21741961D01*
X28519524Y-21741961D02*
X28471905Y-21646723D01*
X28471905Y-21646723D02*
X28424286Y-21456247D01*
X28424286Y-21456247D02*
X28424286Y-21313390D01*
X28424286Y-21313390D02*
X28471905Y-21122914D01*
X28471905Y-21122914D02*
X28519524Y-21027676D01*
X28519524Y-21027676D02*
X28614762Y-20932438D01*
X28614762Y-20932438D02*
X28757619Y-20884819D01*
X28757619Y-20884819D02*
X28852857Y-20884819D01*
X28852857Y-20884819D02*
X28995714Y-20932438D01*
X28995714Y-20932438D02*
X29043333Y-20980057D01*
X29376667Y-20884819D02*
X29995714Y-20884819D01*
X29995714Y-20884819D02*
X29662381Y-21265771D01*
X29662381Y-21265771D02*
X29805238Y-21265771D01*
X29805238Y-21265771D02*
X29900476Y-21313390D01*
X29900476Y-21313390D02*
X29948095Y-21361009D01*
X29948095Y-21361009D02*
X29995714Y-21456247D01*
X29995714Y-21456247D02*
X29995714Y-21694342D01*
X29995714Y-21694342D02*
X29948095Y-21789580D01*
X29948095Y-21789580D02*
X29900476Y-21837200D01*
X29900476Y-21837200D02*
X29805238Y-21884819D01*
X29805238Y-21884819D02*
X29519524Y-21884819D01*
X29519524Y-21884819D02*
X29424286Y-21837200D01*
X29424286Y-21837200D02*
X29376667Y-21789580D01*
X123584761Y-23140057D02*
X123489523Y-23092438D01*
X123489523Y-23092438D02*
X123394285Y-22997200D01*
X123394285Y-22997200D02*
X123251428Y-22854342D01*
X123251428Y-22854342D02*
X123156190Y-22806723D01*
X123156190Y-22806723D02*
X123060952Y-22806723D01*
X123108571Y-23044819D02*
X123013333Y-22997200D01*
X123013333Y-22997200D02*
X122918095Y-22901961D01*
X122918095Y-22901961D02*
X122870476Y-22711485D01*
X122870476Y-22711485D02*
X122870476Y-22378152D01*
X122870476Y-22378152D02*
X122918095Y-22187676D01*
X122918095Y-22187676D02*
X123013333Y-22092438D01*
X123013333Y-22092438D02*
X123108571Y-22044819D01*
X123108571Y-22044819D02*
X123299047Y-22044819D01*
X123299047Y-22044819D02*
X123394285Y-22092438D01*
X123394285Y-22092438D02*
X123489523Y-22187676D01*
X123489523Y-22187676D02*
X123537142Y-22378152D01*
X123537142Y-22378152D02*
X123537142Y-22711485D01*
X123537142Y-22711485D02*
X123489523Y-22901961D01*
X123489523Y-22901961D02*
X123394285Y-22997200D01*
X123394285Y-22997200D02*
X123299047Y-23044819D01*
X123299047Y-23044819D02*
X123108571Y-23044819D01*
X123918095Y-22140057D02*
X123965714Y-22092438D01*
X123965714Y-22092438D02*
X124060952Y-22044819D01*
X124060952Y-22044819D02*
X124299047Y-22044819D01*
X124299047Y-22044819D02*
X124394285Y-22092438D01*
X124394285Y-22092438D02*
X124441904Y-22140057D01*
X124441904Y-22140057D02*
X124489523Y-22235295D01*
X124489523Y-22235295D02*
X124489523Y-22330533D01*
X124489523Y-22330533D02*
X124441904Y-22473390D01*
X124441904Y-22473390D02*
X123870476Y-23044819D01*
X123870476Y-23044819D02*
X124489523Y-23044819D01*
X118592142Y-19984819D02*
X118258809Y-19508628D01*
X118020714Y-19984819D02*
X118020714Y-18984819D01*
X118020714Y-18984819D02*
X118401666Y-18984819D01*
X118401666Y-18984819D02*
X118496904Y-19032438D01*
X118496904Y-19032438D02*
X118544523Y-19080057D01*
X118544523Y-19080057D02*
X118592142Y-19175295D01*
X118592142Y-19175295D02*
X118592142Y-19318152D01*
X118592142Y-19318152D02*
X118544523Y-19413390D01*
X118544523Y-19413390D02*
X118496904Y-19461009D01*
X118496904Y-19461009D02*
X118401666Y-19508628D01*
X118401666Y-19508628D02*
X118020714Y-19508628D01*
X119544523Y-19984819D02*
X118973095Y-19984819D01*
X119258809Y-19984819D02*
X119258809Y-18984819D01*
X119258809Y-18984819D02*
X119163571Y-19127676D01*
X119163571Y-19127676D02*
X119068333Y-19222914D01*
X119068333Y-19222914D02*
X118973095Y-19270533D01*
X120496904Y-19984819D02*
X119925476Y-19984819D01*
X120211190Y-19984819D02*
X120211190Y-18984819D01*
X120211190Y-18984819D02*
X120115952Y-19127676D01*
X120115952Y-19127676D02*
X120020714Y-19222914D01*
X120020714Y-19222914D02*
X119925476Y-19270533D01*
X151554819Y-25793333D02*
X152269104Y-25793333D01*
X152269104Y-25793333D02*
X152411961Y-25840952D01*
X152411961Y-25840952D02*
X152507200Y-25936190D01*
X152507200Y-25936190D02*
X152554819Y-26079047D01*
X152554819Y-26079047D02*
X152554819Y-26174285D01*
X151554819Y-24840952D02*
X151554819Y-25317142D01*
X151554819Y-25317142D02*
X152031009Y-25364761D01*
X152031009Y-25364761D02*
X151983390Y-25317142D01*
X151983390Y-25317142D02*
X151935771Y-25221904D01*
X151935771Y-25221904D02*
X151935771Y-24983809D01*
X151935771Y-24983809D02*
X151983390Y-24888571D01*
X151983390Y-24888571D02*
X152031009Y-24840952D01*
X152031009Y-24840952D02*
X152126247Y-24793333D01*
X152126247Y-24793333D02*
X152364342Y-24793333D01*
X152364342Y-24793333D02*
X152459580Y-24840952D01*
X152459580Y-24840952D02*
X152507200Y-24888571D01*
X152507200Y-24888571D02*
X152554819Y-24983809D01*
X152554819Y-24983809D02*
X152554819Y-25221904D01*
X152554819Y-25221904D02*
X152507200Y-25317142D01*
X152507200Y-25317142D02*
X152459580Y-25364761D01*
X115893333Y-17444819D02*
X115560000Y-16968628D01*
X115321905Y-17444819D02*
X115321905Y-16444819D01*
X115321905Y-16444819D02*
X115702857Y-16444819D01*
X115702857Y-16444819D02*
X115798095Y-16492438D01*
X115798095Y-16492438D02*
X115845714Y-16540057D01*
X115845714Y-16540057D02*
X115893333Y-16635295D01*
X115893333Y-16635295D02*
X115893333Y-16778152D01*
X115893333Y-16778152D02*
X115845714Y-16873390D01*
X115845714Y-16873390D02*
X115798095Y-16921009D01*
X115798095Y-16921009D02*
X115702857Y-16968628D01*
X115702857Y-16968628D02*
X115321905Y-16968628D01*
X116464762Y-16873390D02*
X116369524Y-16825771D01*
X116369524Y-16825771D02*
X116321905Y-16778152D01*
X116321905Y-16778152D02*
X116274286Y-16682914D01*
X116274286Y-16682914D02*
X116274286Y-16635295D01*
X116274286Y-16635295D02*
X116321905Y-16540057D01*
X116321905Y-16540057D02*
X116369524Y-16492438D01*
X116369524Y-16492438D02*
X116464762Y-16444819D01*
X116464762Y-16444819D02*
X116655238Y-16444819D01*
X116655238Y-16444819D02*
X116750476Y-16492438D01*
X116750476Y-16492438D02*
X116798095Y-16540057D01*
X116798095Y-16540057D02*
X116845714Y-16635295D01*
X116845714Y-16635295D02*
X116845714Y-16682914D01*
X116845714Y-16682914D02*
X116798095Y-16778152D01*
X116798095Y-16778152D02*
X116750476Y-16825771D01*
X116750476Y-16825771D02*
X116655238Y-16873390D01*
X116655238Y-16873390D02*
X116464762Y-16873390D01*
X116464762Y-16873390D02*
X116369524Y-16921009D01*
X116369524Y-16921009D02*
X116321905Y-16968628D01*
X116321905Y-16968628D02*
X116274286Y-17063866D01*
X116274286Y-17063866D02*
X116274286Y-17254342D01*
X116274286Y-17254342D02*
X116321905Y-17349580D01*
X116321905Y-17349580D02*
X116369524Y-17397200D01*
X116369524Y-17397200D02*
X116464762Y-17444819D01*
X116464762Y-17444819D02*
X116655238Y-17444819D01*
X116655238Y-17444819D02*
X116750476Y-17397200D01*
X116750476Y-17397200D02*
X116798095Y-17349580D01*
X116798095Y-17349580D02*
X116845714Y-17254342D01*
X116845714Y-17254342D02*
X116845714Y-17063866D01*
X116845714Y-17063866D02*
X116798095Y-16968628D01*
X116798095Y-16968628D02*
X116750476Y-16921009D01*
X116750476Y-16921009D02*
X116655238Y-16873390D01*
X122940476Y-74504819D02*
X122940476Y-75219104D01*
X122940476Y-75219104D02*
X122892857Y-75361961D01*
X122892857Y-75361961D02*
X122797619Y-75457200D01*
X122797619Y-75457200D02*
X122654762Y-75504819D01*
X122654762Y-75504819D02*
X122559524Y-75504819D01*
X123940476Y-75504819D02*
X123369048Y-75504819D01*
X123654762Y-75504819D02*
X123654762Y-74504819D01*
X123654762Y-74504819D02*
X123559524Y-74647676D01*
X123559524Y-74647676D02*
X123464286Y-74742914D01*
X123464286Y-74742914D02*
X123369048Y-74790533D01*
X124797619Y-74504819D02*
X124607143Y-74504819D01*
X124607143Y-74504819D02*
X124511905Y-74552438D01*
X124511905Y-74552438D02*
X124464286Y-74600057D01*
X124464286Y-74600057D02*
X124369048Y-74742914D01*
X124369048Y-74742914D02*
X124321429Y-74933390D01*
X124321429Y-74933390D02*
X124321429Y-75314342D01*
X124321429Y-75314342D02*
X124369048Y-75409580D01*
X124369048Y-75409580D02*
X124416667Y-75457200D01*
X124416667Y-75457200D02*
X124511905Y-75504819D01*
X124511905Y-75504819D02*
X124702381Y-75504819D01*
X124702381Y-75504819D02*
X124797619Y-75457200D01*
X124797619Y-75457200D02*
X124845238Y-75409580D01*
X124845238Y-75409580D02*
X124892857Y-75314342D01*
X124892857Y-75314342D02*
X124892857Y-75076247D01*
X124892857Y-75076247D02*
X124845238Y-74981009D01*
X124845238Y-74981009D02*
X124797619Y-74933390D01*
X124797619Y-74933390D02*
X124702381Y-74885771D01*
X124702381Y-74885771D02*
X124511905Y-74885771D01*
X124511905Y-74885771D02*
X124416667Y-74933390D01*
X124416667Y-74933390D02*
X124369048Y-74981009D01*
X124369048Y-74981009D02*
X124321429Y-75076247D01*
X102263333Y-59929580D02*
X102215714Y-59977200D01*
X102215714Y-59977200D02*
X102072857Y-60024819D01*
X102072857Y-60024819D02*
X101977619Y-60024819D01*
X101977619Y-60024819D02*
X101834762Y-59977200D01*
X101834762Y-59977200D02*
X101739524Y-59881961D01*
X101739524Y-59881961D02*
X101691905Y-59786723D01*
X101691905Y-59786723D02*
X101644286Y-59596247D01*
X101644286Y-59596247D02*
X101644286Y-59453390D01*
X101644286Y-59453390D02*
X101691905Y-59262914D01*
X101691905Y-59262914D02*
X101739524Y-59167676D01*
X101739524Y-59167676D02*
X101834762Y-59072438D01*
X101834762Y-59072438D02*
X101977619Y-59024819D01*
X101977619Y-59024819D02*
X102072857Y-59024819D01*
X102072857Y-59024819D02*
X102215714Y-59072438D01*
X102215714Y-59072438D02*
X102263333Y-59120057D01*
X103168095Y-59024819D02*
X102691905Y-59024819D01*
X102691905Y-59024819D02*
X102644286Y-59501009D01*
X102644286Y-59501009D02*
X102691905Y-59453390D01*
X102691905Y-59453390D02*
X102787143Y-59405771D01*
X102787143Y-59405771D02*
X103025238Y-59405771D01*
X103025238Y-59405771D02*
X103120476Y-59453390D01*
X103120476Y-59453390D02*
X103168095Y-59501009D01*
X103168095Y-59501009D02*
X103215714Y-59596247D01*
X103215714Y-59596247D02*
X103215714Y-59834342D01*
X103215714Y-59834342D02*
X103168095Y-59929580D01*
X103168095Y-59929580D02*
X103120476Y-59977200D01*
X103120476Y-59977200D02*
X103025238Y-60024819D01*
X103025238Y-60024819D02*
X102787143Y-60024819D01*
X102787143Y-60024819D02*
X102691905Y-59977200D01*
X102691905Y-59977200D02*
X102644286Y-59929580D01*
%TO.C,J11*%
D11*
X153015000Y-55660000D02*
X153015000Y-45260000D01*
X156035000Y-55660000D02*
X156035000Y-45260000D01*
X160935000Y-55660000D02*
X160935000Y-45260000D01*
X162435000Y-55660000D02*
X162435000Y-45260000D01*
X163055000Y-55660000D02*
X153015000Y-55660000D01*
X163055000Y-53300000D02*
X163055000Y-55660000D01*
X153015000Y-45260000D02*
X163055000Y-45260000D01*
X163055000Y-45260000D02*
X163055000Y-52700000D01*
X163665000Y-53440000D02*
X163055000Y-53000000D01*
X163665000Y-52560000D01*
X163665000Y-53440000D01*
G36*
X163665000Y-53440000D02*
G01*
X163055000Y-53000000D01*
X163665000Y-52560000D01*
X163665000Y-53440000D01*
G37*
%TO.C,J15*%
X129450000Y-73200000D02*
X131250000Y-73200000D01*
X131250000Y-73950000D01*
X129450000Y-73950000D01*
X129450000Y-73200000D01*
X132750000Y-73200000D02*
X133750000Y-73200000D01*
X133750000Y-73950000D01*
X132750000Y-73950000D01*
X132750000Y-73200000D01*
X135250000Y-73200000D02*
X137050000Y-73200000D01*
X137050000Y-73950000D01*
X135250000Y-73950000D01*
X135250000Y-73200000D01*
X129440000Y-67990000D02*
X137060000Y-67990000D01*
X137060000Y-73960000D01*
X129440000Y-73960000D01*
X129440000Y-67990000D01*
X129450000Y-71700000D02*
X130200000Y-71700000D01*
X130200000Y-68750000D02*
X133250000Y-68750000D01*
X130200000Y-71700000D02*
X130200000Y-68750000D01*
X136100000Y-74250000D02*
X137350000Y-74250000D01*
X136300000Y-68750000D02*
X133250000Y-68750000D01*
X136300000Y-71700000D02*
X136300000Y-68750000D01*
X137050000Y-71700000D02*
X136300000Y-71700000D01*
X137350000Y-74250000D02*
X137350000Y-73000000D01*
%TO.C,R7*%
X65667936Y-26995000D02*
X66122064Y-26995000D01*
X65667936Y-25525000D02*
X66122064Y-25525000D01*
%TO.C,C2*%
X75914420Y-35025000D02*
X76195580Y-35025000D01*
X75914420Y-34005000D02*
X76195580Y-34005000D01*
%TO.C,J14*%
X13200000Y-50000000D02*
X12590000Y-50440000D01*
X12590000Y-49560000D01*
X13200000Y-50000000D01*
G36*
X13200000Y-50000000D02*
G01*
X12590000Y-50440000D01*
X12590000Y-49560000D01*
X13200000Y-50000000D01*
G37*
X13200000Y-57740000D02*
X13200000Y-50300000D01*
X23240000Y-57740000D02*
X13200000Y-57740000D01*
X13200000Y-49700000D02*
X13200000Y-47340000D01*
X13200000Y-47340000D02*
X23240000Y-47340000D01*
X13820000Y-47340000D02*
X13820000Y-57740000D01*
X15320000Y-47340000D02*
X15320000Y-57740000D01*
X20220000Y-47340000D02*
X20220000Y-57740000D01*
X23240000Y-47340000D02*
X23240000Y-57740000D01*
%TO.C,C17*%
X113084420Y-61510000D02*
X113365580Y-61510000D01*
X113084420Y-60490000D02*
X113365580Y-60490000D01*
%TO.C,C12*%
X96869420Y-29310000D02*
X97150580Y-29310000D01*
X96869420Y-28290000D02*
X97150580Y-28290000D01*
%TO.C,C7*%
X31464420Y-30580000D02*
X31745580Y-30580000D01*
X31464420Y-29560000D02*
X31745580Y-29560000D01*
%TO.C,U2*%
X66060000Y-56100000D02*
X65730000Y-56340000D01*
X65730000Y-55860000D01*
X66060000Y-56100000D01*
G36*
X66060000Y-56100000D02*
G01*
X65730000Y-56340000D01*
X65730000Y-55860000D01*
X66060000Y-56100000D01*
G37*
X73810000Y-62310000D02*
X73160000Y-62310000D01*
X73810000Y-61660000D02*
X73810000Y-62310000D01*
X73810000Y-55090000D02*
X73810000Y-55740000D01*
X73160000Y-55090000D02*
X73810000Y-55090000D01*
X67240000Y-62310000D02*
X66590000Y-62310000D01*
X66590000Y-62310000D02*
X66590000Y-61660000D01*
X66590000Y-55740000D02*
X66590000Y-55090000D01*
X66590000Y-55090000D02*
X67240000Y-55090000D01*
%TO.C,R10*%
X85987936Y-26995000D02*
X86442064Y-26995000D01*
X85987936Y-25525000D02*
X86442064Y-25525000D01*
%TO.C,C10*%
X52419420Y-40105000D02*
X52700580Y-40105000D01*
X52419420Y-39085000D02*
X52700580Y-39085000D01*
%TO.C,C16*%
X55334420Y-64100000D02*
X55615580Y-64100000D01*
X55334420Y-63080000D02*
X55615580Y-63080000D01*
%TO.C,R2*%
X115197936Y-27625000D02*
X115652064Y-27625000D01*
X115197936Y-26155000D02*
X115652064Y-26155000D01*
%TO.C,R21*%
X43272936Y-56235000D02*
X43727064Y-56235000D01*
X43272936Y-54765000D02*
X43727064Y-54765000D01*
%TO.C,R4*%
X24272936Y-71735000D02*
X24727064Y-71735000D01*
X24272936Y-70265000D02*
X24727064Y-70265000D01*
%TO.C,J4*%
X47470000Y-13650000D02*
X49270000Y-13650000D01*
X49270000Y-14400000D01*
X47470000Y-14400000D01*
X47470000Y-13650000D01*
X39970000Y-13650000D02*
X45970000Y-13650000D01*
X45970000Y-14400000D01*
X39970000Y-14400000D01*
X39970000Y-13650000D01*
X36670000Y-13650000D02*
X38470000Y-13650000D01*
X38470000Y-14400000D01*
X36670000Y-14400000D01*
X36670000Y-13650000D01*
X36660000Y-13640000D02*
X49280000Y-13640000D01*
X49280000Y-19610000D01*
X36660000Y-19610000D01*
X36660000Y-13640000D01*
X49270000Y-15900000D02*
X48520000Y-15900000D01*
X48520000Y-18850000D02*
X42970000Y-18850000D01*
X48520000Y-15900000D02*
X48520000Y-18850000D01*
X37620000Y-13350000D02*
X36370000Y-13350000D01*
X37420000Y-18850000D02*
X42970000Y-18850000D01*
X37420000Y-15900000D02*
X37420000Y-18850000D01*
X36670000Y-15900000D02*
X37420000Y-15900000D01*
X36370000Y-13350000D02*
X36370000Y-14600000D01*
%TO.C,R5*%
X21997936Y-27405000D02*
X22452064Y-27405000D01*
X21997936Y-25935000D02*
X22452064Y-25935000D01*
%TO.C,R14*%
X110752936Y-26360000D02*
X111207064Y-26360000D01*
X110752936Y-24890000D02*
X111207064Y-24890000D01*
%TO.C,JP1*%
X33880000Y-75995000D02*
X33880000Y-78645000D01*
X31120000Y-78645000D02*
X33880000Y-78645000D01*
X31120000Y-75995000D02*
X33880000Y-75995000D01*
X31120000Y-75995000D02*
X31120000Y-78645000D01*
X31120000Y-74725000D02*
X31120000Y-73345000D01*
X31120000Y-73345000D02*
X32500000Y-73345000D01*
%TO.C,R18*%
X133765000Y-56772936D02*
X133765000Y-57227064D01*
X135235000Y-56772936D02*
X135235000Y-57227064D01*
%TO.C,C13*%
X108639420Y-61510000D02*
X108920580Y-61510000D01*
X108639420Y-60490000D02*
X108920580Y-60490000D01*
%TO.C,J3*%
X68430000Y-13650000D02*
X70230000Y-13650000D01*
X70230000Y-14400000D01*
X68430000Y-14400000D01*
X68430000Y-13650000D01*
X60930000Y-13650000D02*
X66930000Y-13650000D01*
X66930000Y-14400000D01*
X60930000Y-14400000D01*
X60930000Y-13650000D01*
X57630000Y-13650000D02*
X59430000Y-13650000D01*
X59430000Y-14400000D01*
X57630000Y-14400000D01*
X57630000Y-13650000D01*
X57620000Y-13640000D02*
X70240000Y-13640000D01*
X70240000Y-19610000D01*
X57620000Y-19610000D01*
X57620000Y-13640000D01*
X70230000Y-15900000D02*
X69480000Y-15900000D01*
X69480000Y-18850000D02*
X63930000Y-18850000D01*
X69480000Y-15900000D02*
X69480000Y-18850000D01*
X58580000Y-13350000D02*
X57330000Y-13350000D01*
X58380000Y-18850000D02*
X63930000Y-18850000D01*
X58380000Y-15900000D02*
X58380000Y-18850000D01*
X57630000Y-15900000D02*
X58380000Y-15900000D01*
X57330000Y-13350000D02*
X57330000Y-14600000D01*
%TO.C,C4*%
X74644420Y-29310000D02*
X74925580Y-29310000D01*
X74644420Y-28290000D02*
X74925580Y-28290000D01*
%TO.C,Y1*%
X59765000Y-61880000D02*
X59765000Y-65300000D01*
X59765000Y-65300000D02*
X63885000Y-65300000D01*
%TO.C,J19*%
X110950000Y-73200000D02*
X112750000Y-73200000D01*
X112750000Y-73950000D01*
X110950000Y-73950000D01*
X110950000Y-73200000D01*
X114250000Y-73200000D02*
X115250000Y-73200000D01*
X115250000Y-73950000D01*
X114250000Y-73950000D01*
X114250000Y-73200000D01*
X116750000Y-73200000D02*
X118550000Y-73200000D01*
X118550000Y-73950000D01*
X116750000Y-73950000D01*
X116750000Y-73200000D01*
X110940000Y-67990000D02*
X118560000Y-67990000D01*
X118560000Y-73960000D01*
X110940000Y-73960000D01*
X110940000Y-67990000D01*
X110950000Y-71700000D02*
X111700000Y-71700000D01*
X111700000Y-68750000D02*
X114750000Y-68750000D01*
X111700000Y-71700000D02*
X111700000Y-68750000D01*
X117600000Y-74250000D02*
X118850000Y-74250000D01*
X117800000Y-68750000D02*
X114750000Y-68750000D01*
X117800000Y-71700000D02*
X117800000Y-68750000D01*
X118550000Y-71700000D02*
X117800000Y-71700000D01*
X118850000Y-74250000D02*
X118850000Y-73000000D01*
%TO.C,C6*%
X80359420Y-35025000D02*
X80640580Y-35025000D01*
X80359420Y-34005000D02*
X80640580Y-34005000D01*
%TO.C,J18*%
X83015000Y-62254000D02*
X82380000Y-62254000D01*
X82380000Y-62254000D02*
X82380000Y-61619000D01*
%TO.C,C20*%
X62319420Y-69180000D02*
X62600580Y-69180000D01*
X62319420Y-68160000D02*
X62600580Y-68160000D01*
%TO.C,R19*%
X120912936Y-28265000D02*
X121367064Y-28265000D01*
X120912936Y-26795000D02*
X121367064Y-26795000D01*
%TO.C,J17*%
X15130000Y-81180000D02*
X15760000Y-81180000D01*
X18230000Y-81180000D02*
X18525000Y-81180000D01*
X18525000Y-81180000D02*
X18525000Y-71220000D01*
X15130000Y-71220000D02*
X15760000Y-71220000D01*
X18525000Y-71220000D02*
X18230000Y-71220000D01*
%TO.C,R3*%
X44712936Y-28265000D02*
X45167064Y-28265000D01*
X44712936Y-26795000D02*
X45167064Y-26795000D01*
%TO.C,J7*%
X109185000Y-24245000D02*
X109185000Y-44785000D01*
X106535000Y-26895000D02*
X106535000Y-24245000D01*
X106535000Y-24245000D02*
X109185000Y-24245000D01*
X103885000Y-44785000D02*
X109185000Y-44785000D01*
X103885000Y-26895000D02*
X106535000Y-26895000D01*
X103885000Y-26895000D02*
X103885000Y-44785000D01*
X103885000Y-25625000D02*
X103885000Y-24245000D01*
X103885000Y-24245000D02*
X105265000Y-24245000D01*
%TO.C,R9*%
X124240000Y-56772936D02*
X124240000Y-57227064D01*
X125710000Y-56772936D02*
X125710000Y-57227064D01*
%TO.C,J9*%
X43140000Y-24880000D02*
X43140000Y-45420000D01*
X40490000Y-27530000D02*
X40490000Y-24880000D01*
X40490000Y-24880000D02*
X43140000Y-24880000D01*
X37840000Y-45420000D02*
X43140000Y-45420000D01*
X37840000Y-27530000D02*
X40490000Y-27530000D01*
X37840000Y-27530000D02*
X37840000Y-45420000D01*
X37840000Y-26260000D02*
X37840000Y-24880000D01*
X37840000Y-24880000D02*
X39220000Y-24880000D01*
%TO.C,U3*%
X130725000Y-38400000D02*
X130485000Y-38070000D01*
X130965000Y-38070000D01*
X130725000Y-38400000D01*
G36*
X130725000Y-38400000D02*
G01*
X130485000Y-38070000D01*
X130965000Y-38070000D01*
X130725000Y-38400000D01*
G37*
X135765000Y-45120000D02*
X135765000Y-43860000D01*
X135765000Y-38300000D02*
X135765000Y-39560000D01*
X132005000Y-45120000D02*
X135765000Y-45120000D01*
X132005000Y-38300000D02*
X135765000Y-38300000D01*
%TO.C,J1*%
X88750000Y-13650000D02*
X90550000Y-13650000D01*
X90550000Y-14400000D01*
X88750000Y-14400000D01*
X88750000Y-13650000D01*
X81250000Y-13650000D02*
X87250000Y-13650000D01*
X87250000Y-14400000D01*
X81250000Y-14400000D01*
X81250000Y-13650000D01*
X77950000Y-13650000D02*
X79750000Y-13650000D01*
X79750000Y-14400000D01*
X77950000Y-14400000D01*
X77950000Y-13650000D01*
X77940000Y-13640000D02*
X90560000Y-13640000D01*
X90560000Y-19610000D01*
X77940000Y-19610000D01*
X77940000Y-13640000D01*
X90550000Y-15900000D02*
X89800000Y-15900000D01*
X89800000Y-18850000D02*
X84250000Y-18850000D01*
X89800000Y-15900000D02*
X89800000Y-18850000D01*
X78900000Y-13350000D02*
X77650000Y-13350000D01*
X78700000Y-18850000D02*
X84250000Y-18850000D01*
X78700000Y-15900000D02*
X78700000Y-18850000D01*
X77950000Y-15900000D02*
X78700000Y-15900000D01*
X77650000Y-13350000D02*
X77650000Y-14600000D01*
%TO.C,C14*%
X18584420Y-39225000D02*
X18865580Y-39225000D01*
X18584420Y-38205000D02*
X18865580Y-38205000D01*
%TO.C,U1*%
X81235000Y-50090000D02*
X80895000Y-49620000D01*
X81575000Y-49620000D01*
X81235000Y-50090000D01*
G36*
X81235000Y-50090000D02*
G01*
X80895000Y-49620000D01*
X81575000Y-49620000D01*
X81235000Y-50090000D01*
G37*
X87585000Y-55350000D02*
X82065000Y-55350000D01*
X87585000Y-55080000D02*
X87585000Y-55350000D01*
X87585000Y-49830000D02*
X87585000Y-50100000D01*
X82065000Y-55350000D02*
X82065000Y-55080000D01*
X82065000Y-50100000D02*
X82065000Y-49830000D01*
X82065000Y-49830000D02*
X87585000Y-49830000D01*
%TO.C,R17*%
X65667936Y-28265000D02*
X66122064Y-28265000D01*
X65667936Y-26795000D02*
X66122064Y-26795000D01*
%TO.C,C1*%
X116894420Y-61510000D02*
X117175580Y-61510000D01*
X116894420Y-60490000D02*
X117175580Y-60490000D01*
%TO.C,C18*%
X18584420Y-33510000D02*
X18865580Y-33510000D01*
X18584420Y-32490000D02*
X18865580Y-32490000D01*
%TO.C,C9*%
X105464420Y-61510000D02*
X105745580Y-61510000D01*
X105464420Y-60490000D02*
X105745580Y-60490000D01*
%TO.C,C15*%
X51149420Y-29945000D02*
X51430580Y-29945000D01*
X51149420Y-28925000D02*
X51430580Y-28925000D01*
%TO.C,U4*%
X16340000Y-16060000D02*
X16100000Y-15730000D01*
X16580000Y-15730000D01*
X16340000Y-16060000D01*
G36*
X16340000Y-16060000D02*
G01*
X16100000Y-15730000D01*
X16580000Y-15730000D01*
X16340000Y-16060000D01*
G37*
X20110000Y-19110000D02*
X16890000Y-19110000D01*
X20110000Y-18935000D02*
X20110000Y-19110000D01*
X20110000Y-15890000D02*
X20110000Y-16065000D01*
X16890000Y-19110000D02*
X16890000Y-18935000D01*
X16890000Y-16065000D02*
X16890000Y-15890000D01*
X16890000Y-15890000D02*
X20110000Y-15890000D01*
%TO.C,C11*%
X48609420Y-29945000D02*
X48890580Y-29945000D01*
X48609420Y-28925000D02*
X48890580Y-28925000D01*
%TO.C,J2*%
X113515000Y-13650000D02*
X115315000Y-13650000D01*
X115315000Y-14400000D01*
X113515000Y-14400000D01*
X113515000Y-13650000D01*
X106015000Y-13650000D02*
X112015000Y-13650000D01*
X112015000Y-14400000D01*
X106015000Y-14400000D01*
X106015000Y-13650000D01*
X102715000Y-13650000D02*
X104515000Y-13650000D01*
X104515000Y-14400000D01*
X102715000Y-14400000D01*
X102715000Y-13650000D01*
X102705000Y-13640000D02*
X115325000Y-13640000D01*
X115325000Y-19610000D01*
X102705000Y-19610000D01*
X102705000Y-13640000D01*
X115315000Y-15900000D02*
X114565000Y-15900000D01*
X114565000Y-18850000D02*
X109015000Y-18850000D01*
X114565000Y-15900000D02*
X114565000Y-18850000D01*
X103665000Y-13350000D02*
X102415000Y-13350000D01*
X103465000Y-18850000D02*
X109015000Y-18850000D01*
X103465000Y-15900000D02*
X103465000Y-18850000D01*
X102715000Y-15900000D02*
X103465000Y-15900000D01*
X102415000Y-13350000D02*
X102415000Y-14600000D01*
%TO.C,J8*%
X64100000Y-24880000D02*
X64100000Y-45420000D01*
X61450000Y-27530000D02*
X61450000Y-24880000D01*
X61450000Y-24880000D02*
X64100000Y-24880000D01*
X58800000Y-45420000D02*
X64100000Y-45420000D01*
X58800000Y-27530000D02*
X61450000Y-27530000D01*
X58800000Y-27530000D02*
X58800000Y-45420000D01*
X58800000Y-26260000D02*
X58800000Y-24880000D01*
X58800000Y-24880000D02*
X60180000Y-24880000D01*
%TO.C,J13*%
X138950000Y-73200000D02*
X140750000Y-73200000D01*
X140750000Y-73950000D01*
X138950000Y-73950000D01*
X138950000Y-73200000D01*
X142250000Y-73200000D02*
X143250000Y-73200000D01*
X143250000Y-73950000D01*
X142250000Y-73950000D01*
X142250000Y-73200000D01*
X144750000Y-73200000D02*
X146550000Y-73200000D01*
X146550000Y-73950000D01*
X144750000Y-73950000D01*
X144750000Y-73200000D01*
X138940000Y-67990000D02*
X146560000Y-67990000D01*
X146560000Y-73960000D01*
X138940000Y-73960000D01*
X138940000Y-67990000D01*
X138950000Y-71700000D02*
X139700000Y-71700000D01*
X139700000Y-68750000D02*
X142750000Y-68750000D01*
X139700000Y-71700000D02*
X139700000Y-68750000D01*
X145600000Y-74250000D02*
X146850000Y-74250000D01*
X145800000Y-68750000D02*
X142750000Y-68750000D01*
X145800000Y-71700000D02*
X145800000Y-68750000D01*
X146550000Y-71700000D02*
X145800000Y-71700000D01*
X146850000Y-74250000D02*
X146850000Y-73000000D01*
%TO.C,R12*%
X127415000Y-56772936D02*
X127415000Y-57227064D01*
X128885000Y-56772936D02*
X128885000Y-57227064D01*
%TO.C,Q1*%
X120080000Y-18590000D02*
X119600000Y-18590000D01*
X119840000Y-18260000D01*
X120080000Y-18590000D01*
G36*
X120080000Y-18590000D02*
G01*
X119600000Y-18590000D01*
X119840000Y-18260000D01*
X120080000Y-18590000D01*
G37*
X121900000Y-20200000D02*
X120380000Y-20200000D01*
X121900000Y-19200000D02*
X121900000Y-20200000D01*
X121900000Y-17080000D02*
X121900000Y-18080000D01*
X120380000Y-20200000D02*
X120380000Y-20150000D01*
X120380000Y-19030000D02*
X120380000Y-18250000D01*
X120380000Y-17130000D02*
X120380000Y-17080000D01*
X120380000Y-17080000D02*
X121900000Y-17080000D01*
%TO.C,R1*%
X44712936Y-26995000D02*
X45167064Y-26995000D01*
X44712936Y-25525000D02*
X45167064Y-25525000D01*
%TO.C,C8*%
X94329420Y-29310000D02*
X94610580Y-29310000D01*
X94329420Y-28290000D02*
X94610580Y-28290000D01*
%TO.C,SW1*%
X50265000Y-52580000D02*
X50265000Y-54080000D01*
X51515000Y-56580000D02*
X56015000Y-56580000D01*
X56015000Y-50080000D02*
X51515000Y-50080000D01*
X57265000Y-54080000D02*
X57265000Y-52580000D01*
%TO.C,R16*%
X21997936Y-22325000D02*
X22452064Y-22325000D01*
X21997936Y-20855000D02*
X22452064Y-20855000D01*
%TO.C,R6*%
X24272936Y-76735000D02*
X24727064Y-76735000D01*
X24272936Y-75265000D02*
X24727064Y-75265000D01*
%TO.C,R15*%
X119007936Y-25090000D02*
X119462064Y-25090000D01*
X119007936Y-23620000D02*
X119462064Y-23620000D01*
%TO.C,J6*%
X84420000Y-24880000D02*
X84420000Y-45420000D01*
X81770000Y-27530000D02*
X81770000Y-24880000D01*
X81770000Y-24880000D02*
X84420000Y-24880000D01*
X79120000Y-45420000D02*
X84420000Y-45420000D01*
X79120000Y-27530000D02*
X81770000Y-27530000D01*
X79120000Y-27530000D02*
X79120000Y-45420000D01*
X79120000Y-26260000D02*
X79120000Y-24880000D01*
X79120000Y-24880000D02*
X80500000Y-24880000D01*
%TO.C,L1*%
X24503748Y-15400000D02*
X25026252Y-15400000D01*
X24503748Y-17620000D02*
X25026252Y-17620000D01*
%TO.C,C19*%
X71469420Y-29310000D02*
X71750580Y-29310000D01*
X71469420Y-28290000D02*
X71750580Y-28290000D01*
%TO.C,J10*%
X163750000Y-40940000D02*
X163140000Y-40500000D01*
X163750000Y-40060000D01*
X163750000Y-40940000D01*
G36*
X163750000Y-40940000D02*
G01*
X163140000Y-40500000D01*
X163750000Y-40060000D01*
X163750000Y-40940000D01*
G37*
X163140000Y-32760000D02*
X163140000Y-40200000D01*
X153100000Y-32760000D02*
X163140000Y-32760000D01*
X163140000Y-40800000D02*
X163140000Y-43160000D01*
X163140000Y-43160000D02*
X153100000Y-43160000D01*
X162520000Y-43160000D02*
X162520000Y-32760000D01*
X161020000Y-43160000D02*
X161020000Y-32760000D01*
X156120000Y-43160000D02*
X156120000Y-32760000D01*
X153100000Y-43160000D02*
X153100000Y-32760000D01*
%TO.C,R13*%
X85987936Y-28265000D02*
X86442064Y-28265000D01*
X85987936Y-26795000D02*
X86442064Y-26795000D01*
%TO.C,R20*%
X130590000Y-56772936D02*
X130590000Y-57227064D01*
X132060000Y-56772936D02*
X132060000Y-57227064D01*
%TO.C,J12*%
X163750000Y-66440000D02*
X163140000Y-66000000D01*
X163750000Y-65560000D01*
X163750000Y-66440000D01*
G36*
X163750000Y-66440000D02*
G01*
X163140000Y-66000000D01*
X163750000Y-65560000D01*
X163750000Y-66440000D01*
G37*
X163140000Y-58260000D02*
X163140000Y-65700000D01*
X153100000Y-58260000D02*
X163140000Y-58260000D01*
X163140000Y-66300000D02*
X163140000Y-68660000D01*
X163140000Y-68660000D02*
X153100000Y-68660000D01*
X162520000Y-68660000D02*
X162520000Y-58260000D01*
X161020000Y-68660000D02*
X161020000Y-58260000D01*
X156120000Y-68660000D02*
X156120000Y-58260000D01*
X153100000Y-68660000D02*
X153100000Y-58260000D01*
%TO.C,C3*%
X29069420Y-23370000D02*
X29350580Y-23370000D01*
X29069420Y-22350000D02*
X29350580Y-22350000D01*
%TO.C,Q2*%
X122620000Y-24940000D02*
X122140000Y-24940000D01*
X122380000Y-24610000D01*
X122620000Y-24940000D01*
G36*
X122620000Y-24940000D02*
G01*
X122140000Y-24940000D01*
X122380000Y-24610000D01*
X122620000Y-24940000D01*
G37*
X124440000Y-26550000D02*
X122920000Y-26550000D01*
X124440000Y-25550000D02*
X124440000Y-26550000D01*
X124440000Y-23430000D02*
X124440000Y-24430000D01*
X122920000Y-26550000D02*
X122920000Y-26500000D01*
X122920000Y-25380000D02*
X122920000Y-24600000D01*
X122920000Y-23480000D02*
X122920000Y-23430000D01*
X122920000Y-23430000D02*
X124440000Y-23430000D01*
%TO.C,R11*%
X119007936Y-21915000D02*
X119462064Y-21915000D01*
X119007936Y-20445000D02*
X119462064Y-20445000D01*
%TO.C,J5*%
X163750000Y-28440000D02*
X163140000Y-28000000D01*
X163750000Y-27560000D01*
X163750000Y-28440000D01*
G36*
X163750000Y-28440000D02*
G01*
X163140000Y-28000000D01*
X163750000Y-27560000D01*
X163750000Y-28440000D01*
G37*
X163140000Y-20260000D02*
X163140000Y-27700000D01*
X153100000Y-20260000D02*
X163140000Y-20260000D01*
X163140000Y-28300000D02*
X163140000Y-30660000D01*
X163140000Y-30660000D02*
X153100000Y-30660000D01*
X162520000Y-30660000D02*
X162520000Y-20260000D01*
X161020000Y-30660000D02*
X161020000Y-20260000D01*
X156120000Y-30660000D02*
X156120000Y-20260000D01*
X153100000Y-30660000D02*
X153100000Y-20260000D01*
%TO.C,R8*%
X115832936Y-19375000D02*
X116287064Y-19375000D01*
X115832936Y-17905000D02*
X116287064Y-17905000D01*
%TO.C,J16*%
X119950000Y-73200000D02*
X121750000Y-73200000D01*
X121750000Y-73950000D01*
X119950000Y-73950000D01*
X119950000Y-73200000D01*
X123250000Y-73200000D02*
X124250000Y-73200000D01*
X124250000Y-73950000D01*
X123250000Y-73950000D01*
X123250000Y-73200000D01*
X125750000Y-73200000D02*
X127550000Y-73200000D01*
X127550000Y-73950000D01*
X125750000Y-73950000D01*
X125750000Y-73200000D01*
X119940000Y-67990000D02*
X127560000Y-67990000D01*
X127560000Y-73960000D01*
X119940000Y-73960000D01*
X119940000Y-67990000D01*
X119950000Y-71700000D02*
X120700000Y-71700000D01*
X120700000Y-68750000D02*
X123750000Y-68750000D01*
X120700000Y-71700000D02*
X120700000Y-68750000D01*
X126600000Y-74250000D02*
X127850000Y-74250000D01*
X126800000Y-68750000D02*
X123750000Y-68750000D01*
X126800000Y-71700000D02*
X126800000Y-68750000D01*
X127550000Y-71700000D02*
X126800000Y-71700000D01*
X127850000Y-74250000D02*
X127850000Y-73000000D01*
%TO.C,C5*%
X102289420Y-61510000D02*
X102570580Y-61510000D01*
X102289420Y-60490000D02*
X102570580Y-60490000D01*
%TD*%
M02*
