%TF.GenerationSoftware,KiCad,Pcbnew,10.0.0*%
%TF.CreationDate,2026-04-08T17:06:55+02:00*%
%TF.ProjectId,rp_2040_extruder_board,72705f32-3034-4305-9f65-787472756465,rev?*%
%TF.SameCoordinates,Original*%
%TF.FileFunction,Copper,L2,Bot*%
%TF.FilePolarity,Positive*%
%FSLAX46Y46*%
G04 Gerber Fmt 4.6, Leading zero omitted, Abs format (unit mm)*
G04 Created by KiCad (PCBNEW 10.0.0) date 2026-04-08 17:06:55*
%MOMM*%
%LPD*%
G01*
G04 APERTURE LIST*
G04 Aperture macros list*
%AMRoundRect*
0 Rectangle with rounded corners*
0 $1 Rounding radius*
0 $2 $3 $4 $5 $6 $7 $8 $9 X,Y pos of 4 corners*
0 Add a 4 corners polygon primitive as box body*
4,1,4,$2,$3,$4,$5,$6,$7,$8,$9,$2,$3,0*
0 Add four circle primitives for the rounded corners*
1,1,$1+$1,$2,$3*
1,1,$1+$1,$4,$5*
1,1,$1+$1,$6,$7*
1,1,$1+$1,$8,$9*
0 Add four rect primitives between the rounded corners*
20,1,$1+$1,$2,$3,$4,$5,0*
20,1,$1+$1,$4,$5,$6,$7,0*
20,1,$1+$1,$6,$7,$8,$9,0*
20,1,$1+$1,$8,$9,$2,$3,0*%
G04 Aperture macros list end*
%TA.AperFunction,ComponentPad*%
%ADD10RoundRect,0.250000X1.050000X-1.050000X1.050000X1.050000X-1.050000X1.050000X-1.050000X-1.050000X0*%
%TD*%
%TA.AperFunction,ComponentPad*%
%ADD11C,2.600000*%
%TD*%
%TA.AperFunction,ComponentPad*%
%ADD12O,1.700000X2.000000*%
%TD*%
%TA.AperFunction,ComponentPad*%
%ADD13RoundRect,0.250000X0.600000X0.750000X-0.600000X0.750000X-0.600000X-0.750000X0.600000X-0.750000X0*%
%TD*%
%TA.AperFunction,ComponentPad*%
%ADD14RoundRect,0.250000X-1.050000X1.050000X-1.050000X-1.050000X1.050000X-1.050000X1.050000X1.050000X0*%
%TD*%
%TA.AperFunction,ComponentPad*%
%ADD15O,1.700000X1.950000*%
%TD*%
%TA.AperFunction,ComponentPad*%
%ADD16RoundRect,0.250000X-0.600000X-0.725000X0.600000X-0.725000X0.600000X0.725000X-0.600000X0.725000X0*%
%TD*%
%TA.AperFunction,ComponentPad*%
%ADD17C,1.700000*%
%TD*%
%TA.AperFunction,ComponentPad*%
%ADD18R,1.700000X1.700000*%
%TD*%
%TA.AperFunction,ComponentPad*%
%ADD19O,2.150000X0.950000*%
%TD*%
%TA.AperFunction,ComponentPad*%
%ADD20O,1.950000X0.950000*%
%TD*%
%TA.AperFunction,ComponentPad*%
%ADD21C,2.000000*%
%TD*%
G04 APERTURE END LIST*
D10*
%TO.P,J11,1,Pin_1_1*%
%TO.N,+12V*%
X158335000Y-53000000D03*
D11*
%TO.P,J11,2,Pin_2_2*%
%TO.N,GND*%
X158335000Y-47920000D03*
%TD*%
D12*
%TO.P,J15,2,Pin_2_2*%
%TO.N,Net-(J13-Pin_2)*%
X132000000Y-71500000D03*
D13*
%TO.P,J15,1,Pin_1_1*%
%TO.N,GND*%
X134500000Y-71500000D03*
%TD*%
D11*
%TO.P,J14,2,Pin_2_2*%
%TO.N,GND*%
X17920000Y-55080000D03*
D14*
%TO.P,J14,1,Pin_1_1*%
%TO.N,+12V*%
X17920000Y-50000000D03*
%TD*%
D15*
%TO.P,J4,4,Pin_4_4*%
%TO.N,Net-(J1-Pin_7)*%
X46720000Y-16100000D03*
%TO.P,J4,3,Pin_3_3*%
%TO.N,Net-(J1-Pin_9)*%
X44220000Y-16100000D03*
%TO.P,J4,2,Pin_2_2*%
%TO.N,Net-(J1-Pin_11)*%
X41720000Y-16100000D03*
D16*
%TO.P,J4,1,Pin_1_1*%
%TO.N,Net-(J1-Pin_5)*%
X39220000Y-16100000D03*
%TD*%
D17*
%TO.P,JP1,2,B_2*%
%TO.N,/5V_MAIN*%
X32500000Y-77265000D03*
D18*
%TO.P,JP1,1,A_1*%
%TO.N,/VBUS_USB*%
X32500000Y-74725000D03*
%TD*%
D15*
%TO.P,J3,4,Pin_4_4*%
%TO.N,Net-(J2-Pin_7)*%
X67680000Y-16100000D03*
%TO.P,J3,3,Pin_3_3*%
%TO.N,Net-(J2-Pin_9)*%
X65180000Y-16100000D03*
%TO.P,J3,2,Pin_2_2*%
%TO.N,Net-(J2-Pin_11)*%
X62680000Y-16100000D03*
D16*
%TO.P,J3,1,Pin_1_1*%
%TO.N,Net-(J2-Pin_5)*%
X60180000Y-16100000D03*
%TD*%
D12*
%TO.P,J19,2,Pin_2_2*%
%TO.N,Net-(J15-Pin_2)*%
X113500000Y-71500000D03*
D13*
%TO.P,J19,1,Pin_1_1*%
%TO.N,GND*%
X116000000Y-71500000D03*
%TD*%
D19*
%TO.P,J17,SH,SHIELD_SH*%
%TO.N,GND*%
X13795000Y-80650000D03*
D20*
X16995000Y-80650000D03*
D19*
X13795000Y-71750000D03*
D20*
X16995000Y-71750000D03*
%TD*%
D17*
%TO.P,J7,16,Pin_16_16*%
%TO.N,Net-(J1-Pin_16)*%
X107805000Y-43405000D03*
%TO.P,J7,15,Pin_15_15*%
%TO.N,+12V*%
X105265000Y-43405000D03*
%TO.P,J7,14,Pin_14_14*%
%TO.N,GND*%
X107805000Y-40865000D03*
%TO.P,J7,13,Pin_13_13*%
X105265000Y-40865000D03*
%TO.P,J7,12,Pin_12_12*%
X107805000Y-38325000D03*
%TO.P,J7,11,Pin_11_11*%
%TO.N,Net-(J10-Pin_2)*%
X105265000Y-38325000D03*
%TO.P,J7,10,Pin_10_10*%
%TO.N,Net-(J4-Pin_10)*%
X107805000Y-35785000D03*
%TO.P,J7,9,Pin_9_9*%
%TO.N,Net-(J10-Pin_3)*%
X105265000Y-35785000D03*
%TO.P,J7,8,Pin_8_8*%
%TO.N,Net-(J4-Pin_8)*%
X107805000Y-33245000D03*
%TO.P,J7,7,Pin_7_7*%
%TO.N,Net-(J10-Pin_4)*%
X105265000Y-33245000D03*
%TO.P,J7,6,Pin_6_6*%
%TO.N,unconnected-(J4-Pin_6-Pad6)*%
X107805000Y-30705000D03*
%TO.P,J7,5,Pin_5_5*%
%TO.N,Net-(J10-Pin_1)*%
X105265000Y-30705000D03*
%TO.P,J7,4,Pin_4_4*%
%TO.N,Net-(J4-Pin_4)*%
X107805000Y-28165000D03*
%TO.P,J7,3,Pin_3_3*%
%TO.N,+3.3V*%
X105265000Y-28165000D03*
%TO.P,J7,2,Pin_2_2*%
%TO.N,Net-(J4-Pin_2)*%
X107805000Y-25625000D03*
D18*
%TO.P,J7,1,Pin_1_1*%
%TO.N,GND*%
X105265000Y-25625000D03*
%TD*%
D17*
%TO.P,J9,16,Pin_16_16*%
%TO.N,Net-(J1-Pin_16)*%
X41760000Y-44040000D03*
%TO.P,J9,15,Pin_15_15*%
%TO.N,+12V*%
X39220000Y-44040000D03*
%TO.P,J9,14,Pin_14_14*%
%TO.N,GND*%
X41760000Y-41500000D03*
%TO.P,J9,13,Pin_13_13*%
X39220000Y-41500000D03*
%TO.P,J9,12,Pin_12_12*%
X41760000Y-38960000D03*
%TO.P,J9,11,Pin_11_11*%
%TO.N,Net-(J1-Pin_11)*%
X39220000Y-38960000D03*
%TO.P,J9,10,Pin_10_10*%
%TO.N,Net-(J1-Pin_10)*%
X41760000Y-36420000D03*
%TO.P,J9,9,Pin_9_9*%
%TO.N,Net-(J1-Pin_9)*%
X39220000Y-36420000D03*
%TO.P,J9,8,Pin_8_8*%
%TO.N,Net-(J1-Pin_8)*%
X41760000Y-33880000D03*
%TO.P,J9,7,Pin_7_7*%
%TO.N,Net-(J1-Pin_7)*%
X39220000Y-33880000D03*
%TO.P,J9,6,Pin_6_6*%
%TO.N,unconnected-(J1-Pin_6-Pad6)*%
X41760000Y-31340000D03*
%TO.P,J9,5,Pin_5_5*%
%TO.N,Net-(J1-Pin_5)*%
X39220000Y-31340000D03*
%TO.P,J9,4,Pin_4_4*%
%TO.N,Net-(J1-Pin_4)*%
X41760000Y-28800000D03*
%TO.P,J9,3,Pin_3_3*%
%TO.N,+3.3V*%
X39220000Y-28800000D03*
%TO.P,J9,2,Pin_2_2*%
%TO.N,Net-(J1-Pin_2)*%
X41760000Y-26260000D03*
D18*
%TO.P,J9,1,Pin_1_1*%
%TO.N,GND*%
X39220000Y-26260000D03*
%TD*%
D15*
%TO.P,J1,4,Pin_4_4*%
%TO.N,Net-(J3-Pin_7)*%
X88000000Y-16100000D03*
%TO.P,J1,3,Pin_3_3*%
%TO.N,Net-(J3-Pin_9)*%
X85500000Y-16100000D03*
%TO.P,J1,2,Pin_2_2*%
%TO.N,Net-(J3-Pin_11)*%
X83000000Y-16100000D03*
D16*
%TO.P,J1,1,Pin_1_1*%
%TO.N,Net-(J3-Pin_5)*%
X80500000Y-16100000D03*
%TD*%
D15*
%TO.P,J2,4,Pin_4_4*%
%TO.N,Net-(J10-Pin_4)*%
X112765000Y-16100000D03*
%TO.P,J2,3,Pin_3_3*%
%TO.N,Net-(J10-Pin_3)*%
X110265000Y-16100000D03*
%TO.P,J2,2,Pin_2_2*%
%TO.N,Net-(J10-Pin_2)*%
X107765000Y-16100000D03*
D16*
%TO.P,J2,1,Pin_1_1*%
%TO.N,Net-(J10-Pin_1)*%
X105265000Y-16100000D03*
%TD*%
D17*
%TO.P,J8,16,Pin_16_16*%
%TO.N,Net-(J1-Pin_16)*%
X62720000Y-44040000D03*
%TO.P,J8,15,Pin_15_15*%
%TO.N,+12V*%
X60180000Y-44040000D03*
%TO.P,J8,14,Pin_14_14*%
%TO.N,GND*%
X62720000Y-41500000D03*
%TO.P,J8,13,Pin_13_13*%
X60180000Y-41500000D03*
%TO.P,J8,12,Pin_12_12*%
X62720000Y-38960000D03*
%TO.P,J8,11,Pin_11_11*%
%TO.N,Net-(J2-Pin_11)*%
X60180000Y-38960000D03*
%TO.P,J8,10,Pin_10_10*%
%TO.N,Net-(J2-Pin_10)*%
X62720000Y-36420000D03*
%TO.P,J8,9,Pin_9_9*%
%TO.N,Net-(J2-Pin_9)*%
X60180000Y-36420000D03*
%TO.P,J8,8,Pin_8_8*%
%TO.N,Net-(J2-Pin_8)*%
X62720000Y-33880000D03*
%TO.P,J8,7,Pin_7_7*%
%TO.N,Net-(J2-Pin_7)*%
X60180000Y-33880000D03*
%TO.P,J8,6,Pin_6_6*%
%TO.N,unconnected-(J2-Pin_6-Pad6)*%
X62720000Y-31340000D03*
%TO.P,J8,5,Pin_5_5*%
%TO.N,Net-(J2-Pin_5)*%
X60180000Y-31340000D03*
%TO.P,J8,4,Pin_4_4*%
%TO.N,Net-(J2-Pin_4)*%
X62720000Y-28800000D03*
%TO.P,J8,3,Pin_3_3*%
%TO.N,+3.3V*%
X60180000Y-28800000D03*
%TO.P,J8,2,Pin_2_2*%
%TO.N,Net-(J2-Pin_2)*%
X62720000Y-26260000D03*
D18*
%TO.P,J8,1,Pin_1_1*%
%TO.N,GND*%
X60180000Y-26260000D03*
%TD*%
D12*
%TO.P,J13,2,Pin_2_2*%
%TO.N,Net-(J12-Pin_2)*%
X141500000Y-71500000D03*
D13*
%TO.P,J13,1,Pin_1_1*%
%TO.N,GND*%
X144000000Y-71500000D03*
%TD*%
D21*
%TO.P,SW1,1,1_1*%
%TO.N,Net-(J11-~{RESET})*%
X50515000Y-51080000D03*
X57015000Y-51080000D03*
%TO.P,SW1,2,2_2*%
%TO.N,GND*%
X50515000Y-55580000D03*
X57015000Y-55580000D03*
%TD*%
D17*
%TO.P,J6,16,Pin_16_16*%
%TO.N,Net-(J1-Pin_16)*%
X83040000Y-44040000D03*
%TO.P,J6,15,Pin_15_15*%
%TO.N,+12V*%
X80500000Y-44040000D03*
%TO.P,J6,14,Pin_14_14*%
%TO.N,GND*%
X83040000Y-41500000D03*
%TO.P,J6,13,Pin_13_13*%
X80500000Y-41500000D03*
%TO.P,J6,12,Pin_12_12*%
X83040000Y-38960000D03*
%TO.P,J6,11,Pin_11_11*%
%TO.N,Net-(J3-Pin_11)*%
X80500000Y-38960000D03*
%TO.P,J6,10,Pin_10_10*%
%TO.N,Net-(J3-Pin_10)*%
X83040000Y-36420000D03*
%TO.P,J6,9,Pin_9_9*%
%TO.N,Net-(J3-Pin_9)*%
X80500000Y-36420000D03*
%TO.P,J6,8,Pin_8_8*%
%TO.N,Net-(J3-Pin_8)*%
X83040000Y-33880000D03*
%TO.P,J6,7,Pin_7_7*%
%TO.N,Net-(J3-Pin_7)*%
X80500000Y-33880000D03*
%TO.P,J6,6,Pin_6_6*%
%TO.N,unconnected-(J3-Pin_6-Pad6)*%
X83040000Y-31340000D03*
%TO.P,J6,5,Pin_5_5*%
%TO.N,Net-(J3-Pin_5)*%
X80500000Y-31340000D03*
%TO.P,J6,4,Pin_4_4*%
%TO.N,Net-(J3-Pin_4)*%
X83040000Y-28800000D03*
%TO.P,J6,3,Pin_3_3*%
%TO.N,+3.3V*%
X80500000Y-28800000D03*
%TO.P,J6,2,Pin_2_2*%
%TO.N,Net-(J3-Pin_2)*%
X83040000Y-26260000D03*
D18*
%TO.P,J6,1,Pin_1_1*%
%TO.N,GND*%
X80500000Y-26260000D03*
%TD*%
D11*
%TO.P,J10,2,Pin_2_2*%
%TO.N,GND*%
X158420000Y-35420000D03*
D10*
%TO.P,J10,1,Pin_1_1*%
%TO.N,+12V*%
X158420000Y-40500000D03*
%TD*%
D11*
%TO.P,J12,2,Pin_2_2*%
%TO.N,GND*%
X158420000Y-60920000D03*
D10*
%TO.P,J12,1,Pin_1_1*%
%TO.N,+12V*%
X158420000Y-66000000D03*
%TD*%
D11*
%TO.P,J5,2,Pin_2_2*%
%TO.N,GND*%
X158420000Y-22920000D03*
D10*
%TO.P,J5,1,Pin_1_1*%
%TO.N,+12V*%
X158420000Y-28000000D03*
%TD*%
D12*
%TO.P,J16,2,Pin_2_2*%
%TO.N,Net-(J14-Pin_2)*%
X122500000Y-71500000D03*
D13*
%TO.P,J16,1,Pin_1_1*%
%TO.N,GND*%
X125000000Y-71500000D03*
%TD*%
M02*
