%TF.GenerationSoftware,KiCad,Pcbnew,10.0.0*%
%TF.CreationDate,2026-04-08T17:33:32+02:00*%
%TF.ProjectId,rp_2040_extruder_board,72705f32-3034-4305-9f65-787472756465,rev?*%
%TF.SameCoordinates,Original*%
%TF.FileFunction,Copper,L1,Top*%
%TF.FilePolarity,Positive*%
%FSLAX46Y46*%
G04 Gerber Fmt 4.6, Leading zero omitted, Abs format (unit mm)*
G04 Created by KiCad (PCBNEW 10.0.0) date 2026-04-08 17:33:32*
%MOMM*%
%LPD*%
G01*
G04 APERTURE LIST*
G04 Aperture macros list*
%AMRoundRect*
0 Rectangle with rounded corners*
0 $1 Rounding radius*
0 $2 $3 $4 $5 $6 $7 $8 $9 X,Y pos of 4 corners*
0 Add a 4 corners polygon primitive as box body*
4,1,4,$2,$3,$4,$5,$6,$7,$8,$9,$2,$3,0*
0 Add four circle primitives for the rounded corners*
1,1,$1+$1,$2,$3*
1,1,$1+$1,$4,$5*
1,1,$1+$1,$6,$7*
1,1,$1+$1,$8,$9*
0 Add four rect primitives between the rounded corners*
20,1,$1+$1,$2,$3,$4,$5,0*
20,1,$1+$1,$4,$5,$6,$7,0*
20,1,$1+$1,$6,$7,$8,$9,0*
20,1,$1+$1,$8,$9,$2,$3,0*%
G04 Aperture macros list end*
%TA.AperFunction,ComponentPad*%
%ADD10C,2.000000*%
%TD*%
%TA.AperFunction,SMDPad,CuDef*%
%ADD11RoundRect,0.225000X-0.225000X-0.250000X0.225000X-0.250000X0.225000X0.250000X-0.225000X0.250000X0*%
%TD*%
%TA.AperFunction,ComponentPad*%
%ADD12RoundRect,0.250000X1.050000X-1.050000X1.050000X1.050000X-1.050000X1.050000X-1.050000X-1.050000X0*%
%TD*%
%TA.AperFunction,ComponentPad*%
%ADD13C,2.600000*%
%TD*%
%TA.AperFunction,ComponentPad*%
%ADD14O,1.700000X2.000000*%
%TD*%
%TA.AperFunction,ComponentPad*%
%ADD15RoundRect,0.250000X0.600000X0.750000X-0.600000X0.750000X-0.600000X-0.750000X0.600000X-0.750000X0*%
%TD*%
%TA.AperFunction,SMDPad,CuDef*%
%ADD16RoundRect,0.250000X-0.262500X-0.450000X0.262500X-0.450000X0.262500X0.450000X-0.262500X0.450000X0*%
%TD*%
%TA.AperFunction,ComponentPad*%
%ADD17RoundRect,0.250000X-1.050000X1.050000X-1.050000X-1.050000X1.050000X-1.050000X1.050000X1.050000X0*%
%TD*%
%TA.AperFunction,HeatsinkPad*%
%ADD18R,3.200000X3.200000*%
%TD*%
%TA.AperFunction,SMDPad,CuDef*%
%ADD19RoundRect,0.050000X-0.050000X-0.387500X0.050000X-0.387500X0.050000X0.387500X-0.050000X0.387500X0*%
%TD*%
%TA.AperFunction,SMDPad,CuDef*%
%ADD20RoundRect,0.050000X-0.387500X-0.050000X0.387500X-0.050000X0.387500X0.050000X-0.387500X0.050000X0*%
%TD*%
%TA.AperFunction,ComponentPad*%
%ADD21O,1.700000X1.950000*%
%TD*%
%TA.AperFunction,ComponentPad*%
%ADD22RoundRect,0.250000X-0.600000X-0.725000X0.600000X-0.725000X0.600000X0.725000X-0.600000X0.725000X0*%
%TD*%
%TA.AperFunction,ComponentPad*%
%ADD23C,1.700000*%
%TD*%
%TA.AperFunction,ComponentPad*%
%ADD24R,1.700000X1.700000*%
%TD*%
%TA.AperFunction,SMDPad,CuDef*%
%ADD25RoundRect,0.250000X-0.450000X0.262500X-0.450000X-0.262500X0.450000X-0.262500X0.450000X0.262500X0*%
%TD*%
%TA.AperFunction,SMDPad,CuDef*%
%ADD26RoundRect,0.250000X-0.450000X-0.350000X0.450000X-0.350000X0.450000X0.350000X-0.450000X0.350000X0*%
%TD*%
%TA.AperFunction,ConnectorPad*%
%ADD27C,0.787400*%
%TD*%
%TA.AperFunction,ComponentPad*%
%ADD28O,2.150000X0.950000*%
%TD*%
%TA.AperFunction,ComponentPad*%
%ADD29O,1.950000X0.950000*%
%TD*%
%TA.AperFunction,SMDPad,CuDef*%
%ADD30RoundRect,0.062500X-0.312500X0.062500X-0.312500X-0.062500X0.312500X-0.062500X0.312500X0.062500X0*%
%TD*%
%TA.AperFunction,SMDPad,CuDef*%
%ADD31RoundRect,0.075000X-0.300000X0.075000X-0.300000X-0.075000X0.300000X-0.075000X0.300000X0.075000X0*%
%TD*%
%TA.AperFunction,SMDPad,CuDef*%
%ADD32RoundRect,0.375000X-0.625000X-0.375000X0.625000X-0.375000X0.625000X0.375000X-0.625000X0.375000X0*%
%TD*%
%TA.AperFunction,SMDPad,CuDef*%
%ADD33RoundRect,0.500000X-0.500000X-1.400000X0.500000X-1.400000X0.500000X1.400000X-0.500000X1.400000X0*%
%TD*%
%TA.AperFunction,SMDPad,CuDef*%
%ADD34RoundRect,0.162500X-0.650000X-0.162500X0.650000X-0.162500X0.650000X0.162500X-0.650000X0.162500X0*%
%TD*%
%TA.AperFunction,SMDPad,CuDef*%
%ADD35RoundRect,0.100000X-0.712500X-0.100000X0.712500X-0.100000X0.712500X0.100000X-0.712500X0.100000X0*%
%TD*%
%TA.AperFunction,SMDPad,CuDef*%
%ADD36RoundRect,0.150000X-0.587500X-0.150000X0.587500X-0.150000X0.587500X0.150000X-0.587500X0.150000X0*%
%TD*%
%TA.AperFunction,SMDPad,CuDef*%
%ADD37RoundRect,0.250000X-0.375000X-0.850000X0.375000X-0.850000X0.375000X0.850000X-0.375000X0.850000X0*%
%TD*%
G04 APERTURE END LIST*
D10*
%TO.P,SW1,2,2_2*%
%TO.N,GND*%
X38250000Y-67250000D03*
X31750000Y-67250000D03*
%TO.P,SW1,1,1_1*%
%TO.N,Net-(J11-~{RESET})*%
X38250000Y-62750000D03*
X31750000Y-62750000D03*
%TD*%
D11*
%TO.P,C20,1*%
%TO.N,Net-(U1-XOUT)*%
X48460000Y-66670000D03*
%TO.P,C20,2*%
%TO.N,GND*%
X50010000Y-66670000D03*
%TD*%
D12*
%TO.P,J11,1,Pin_1_1*%
%TO.N,+12V*%
X94000000Y-85045000D03*
D13*
%TO.P,J11,2,Pin_2_2*%
%TO.N,GND*%
X94000000Y-79965000D03*
%TD*%
D14*
%TO.P,J15,2,Pin_2_2*%
%TO.N,Net-(J13-Pin_2)*%
X66000000Y-97000000D03*
D15*
%TO.P,J15,1,Pin_1_1*%
%TO.N,GND*%
X68500000Y-97000000D03*
%TD*%
D16*
%TO.P,R7,2*%
%TO.N,+3.3V*%
X56852500Y-26110000D03*
%TO.P,R7,1*%
%TO.N,Net-(J2-Pin_8)*%
X55027500Y-26110000D03*
%TD*%
D11*
%TO.P,C2,2*%
%TO.N,+3.3V*%
X62330000Y-34095000D03*
%TO.P,C2,1*%
%TO.N,GND*%
X60780000Y-34095000D03*
%TD*%
D13*
%TO.P,J14,2,Pin_2_2*%
%TO.N,GND*%
X5500000Y-41080000D03*
D17*
%TO.P,J14,1,Pin_1_1*%
%TO.N,+12V*%
X5500000Y-36000000D03*
%TD*%
D11*
%TO.P,C17,2*%
%TO.N,+3.3V*%
X67995000Y-85000000D03*
%TO.P,C17,1*%
%TO.N,GND*%
X66445000Y-85000000D03*
%TD*%
%TO.P,C12,2*%
%TO.N,+12V*%
X76785000Y-28760000D03*
%TO.P,C12,1*%
%TO.N,GND*%
X75235000Y-28760000D03*
%TD*%
%TO.P,C7,2*%
%TO.N,+12V*%
X29275000Y-30000000D03*
%TO.P,C7,1*%
%TO.N,GND*%
X27725000Y-30000000D03*
%TD*%
D18*
%TO.P,U2,57,GND_57*%
%TO.N,GND*%
X54172500Y-59370000D03*
D19*
%TO.P,U2,56,~{QSPI_SS}_56*%
%TO.N,Net-(U1-~{QSPI_SS})*%
X51572500Y-55932500D03*
%TO.P,U2,55,QSPI_SD1_55*%
%TO.N,Net-(U1-QSPI_SD1)*%
X51972500Y-55932500D03*
%TO.P,U2,54,QSPI_SD2_54*%
%TO.N,Net-(U1-QSPI_SD2)*%
X52372500Y-55932500D03*
%TO.P,U2,53,QSPI_SD0_53*%
%TO.N,Net-(U1-QSPI_SD0)*%
X52772500Y-55932500D03*
%TO.P,U2,52,QSPI_SCLK_52*%
%TO.N,Net-(U1-QSPI_SCLK)*%
X53172500Y-55932500D03*
%TO.P,U2,51,QSPI_SD3_51*%
%TO.N,Net-(U1-QSPI_SD3)*%
X53572500Y-55932500D03*
%TO.P,U2,50,DVDD_50*%
%TO.N,+3.3V*%
X53972500Y-55932500D03*
%TO.P,U2,49,IOVDD_49*%
X54372500Y-55932500D03*
%TO.P,U2,48,USB_VDD_48*%
X54772500Y-55932500D03*
%TO.P,U2,47,USB_DP_47*%
%TO.N,Net-(U1-USB_DP)*%
X55172500Y-55932500D03*
%TO.P,U2,46,USB_DM_46*%
%TO.N,Net-(U1-USB_DM)*%
X55572500Y-55932500D03*
%TO.P,U2,45,VREG_VOUT_45*%
%TO.N,unconnected-(U1-VREG_VOUT-Pad45)*%
X55972500Y-55932500D03*
%TO.P,U2,44,VREG_VIN_44*%
%TO.N,/5V_MAIN*%
X56372500Y-55932500D03*
%TO.P,U2,43,ADC_AVDD_43*%
%TO.N,+3.3V*%
X56772500Y-55932500D03*
D20*
%TO.P,U2,42,IOVDD_42*%
X57610000Y-56770000D03*
%TO.P,U2,41,GPIO29/ADC3_41*%
%TO.N,Net-(U1-GPIO29{slash}ADC3)*%
X57610000Y-57170000D03*
%TO.P,U2,40,GPIO28/ADC2_40*%
%TO.N,Net-(U1-GPIO28{slash}ADC2)*%
X57610000Y-57570000D03*
%TO.P,U2,39,GPIO27/ADC1_39*%
%TO.N,Net-(U1-GPIO27{slash}ADC1)*%
X57610000Y-57970000D03*
%TO.P,U2,38,GPIO26/ADC0_38*%
%TO.N,Net-(U1-GPIO26{slash}ADC0)*%
X57610000Y-58370000D03*
%TO.P,U2,37,GPIO25_37*%
%TO.N,unconnected-(U1-GPIO25-Pad37)*%
X57610000Y-58770000D03*
%TO.P,U2,36,GPIO24_36*%
%TO.N,unconnected-(U1-GPIO24-Pad36)*%
X57610000Y-59170000D03*
%TO.P,U2,35,GPIO23_35*%
%TO.N,unconnected-(U1-GPIO23-Pad35)*%
X57610000Y-59570000D03*
%TO.P,U2,34,GPIO22_34*%
%TO.N,unconnected-(U1-GPIO22-Pad34)*%
X57610000Y-59970000D03*
%TO.P,U2,33,IOVDD_33*%
%TO.N,+3.3V*%
X57610000Y-60370000D03*
%TO.P,U2,32,GPIO21_32*%
%TO.N,unconnected-(U1-GPIO21-Pad32)*%
X57610000Y-60770000D03*
%TO.P,U2,31,GPIO20_31*%
%TO.N,unconnected-(U1-GPIO20-Pad31)*%
X57610000Y-61170000D03*
%TO.P,U2,30,GPIO19_30*%
%TO.N,unconnected-(U1-GPIO19-Pad30)*%
X57610000Y-61570000D03*
%TO.P,U2,29,GPIO18_29*%
%TO.N,unconnected-(U1-GPIO18-Pad29)*%
X57610000Y-61970000D03*
D19*
%TO.P,U2,28,GPIO17_28*%
%TO.N,unconnected-(U1-GPIO17-Pad28)*%
X56772500Y-62807500D03*
%TO.P,U2,27,GPIO16_27*%
%TO.N,unconnected-(U1-GPIO16-Pad27)*%
X56372500Y-62807500D03*
%TO.P,U2,26,RUN_26*%
%TO.N,Net-(J11-~{RESET})*%
X55972500Y-62807500D03*
%TO.P,U2,25,SWDIO_25*%
%TO.N,Net-(J11-SWDIO)*%
X55572500Y-62807500D03*
%TO.P,U2,24,SWCLK_24*%
%TO.N,Net-(J11-SWCLK)*%
X55172500Y-62807500D03*
%TO.P,U2,23,DVDD_23*%
%TO.N,+3.3V*%
X54772500Y-62807500D03*
%TO.P,U2,22,IOVDD_22*%
X54372500Y-62807500D03*
%TO.P,U2,21,XOUT_21*%
%TO.N,Net-(U1-XOUT)*%
X53972500Y-62807500D03*
%TO.P,U2,20,XIN_20*%
%TO.N,Net-(U1-XIN)*%
X53572500Y-62807500D03*
%TO.P,U2,19,TESTEN_19*%
%TO.N,GND*%
X53172500Y-62807500D03*
%TO.P,U2,18,GPIO15_18*%
%TO.N,unconnected-(U1-GPIO15-Pad18)*%
X52772500Y-62807500D03*
%TO.P,U2,17,GPIO14_17*%
%TO.N,/RX PIN*%
X52372500Y-62807500D03*
%TO.P,U2,16,GPIO13_16*%
%TO.N,unconnected-(U1-GPIO13-Pad16)*%
X51972500Y-62807500D03*
%TO.P,U2,15,GPIO12_15*%
%TO.N,unconnected-(U1-GPIO12-Pad15)*%
X51572500Y-62807500D03*
D20*
%TO.P,U2,14,GPIO11_14*%
%TO.N,unconnected-(U1-GPIO11-Pad14)*%
X50735000Y-61970000D03*
%TO.P,U2,13,GPIO10_13*%
%TO.N,Net-(U1-GPIO10)*%
X50735000Y-61570000D03*
%TO.P,U2,12,GPIO9_12*%
%TO.N,Net-(J4-Pin_4)*%
X50735000Y-61170000D03*
%TO.P,U2,11,GPIO8_11*%
%TO.N,Net-(J1-Pin_16)*%
X50735000Y-60770000D03*
%TO.P,U2,10,IOVDD_10*%
%TO.N,+3.3V*%
X50735000Y-60370000D03*
%TO.P,U2,9,GPIO7_9*%
%TO.N,Net-(J4-Pin_2)*%
X50735000Y-59970000D03*
%TO.P,U2,8,GPIO6_8*%
%TO.N,Net-(J4-Pin_4)*%
X50735000Y-59570000D03*
%TO.P,U2,7,GPIO5_7*%
%TO.N,Net-(J3-Pin_2)*%
X50735000Y-59170000D03*
%TO.P,U2,6,GPIO4_6*%
%TO.N,Net-(J3-Pin_4)*%
X50735000Y-58770000D03*
%TO.P,U2,5,GPIO3_5*%
%TO.N,Net-(J2-Pin_2)*%
X50735000Y-58370000D03*
%TO.P,U2,4,GPIO2_4*%
%TO.N,Net-(J2-Pin_4)*%
X50735000Y-57970000D03*
%TO.P,U2,3,GPIO1_3*%
%TO.N,Net-(J1-Pin_2)*%
X50735000Y-57570000D03*
%TO.P,U2,2,GPIO0_2*%
%TO.N,Net-(J1-Pin_4)*%
X50735000Y-57170000D03*
%TO.P,U2,1,IOVDD_1*%
%TO.N,+3.3V*%
X50735000Y-56770000D03*
%TD*%
D16*
%TO.P,R10,2*%
%TO.N,+3.3V*%
X72627500Y-25840000D03*
%TO.P,R10,1*%
%TO.N,Net-(J3-Pin_8)*%
X70802500Y-25840000D03*
%TD*%
D11*
%TO.P,C10,2*%
%TO.N,GND*%
X45320000Y-39350000D03*
%TO.P,C10,1*%
%TO.N,+3.3V*%
X43770000Y-39350000D03*
%TD*%
%TO.P,C16,2*%
%TO.N,GND*%
X47510000Y-55170000D03*
%TO.P,C16,1*%
%TO.N,Net-(U1-XIN)*%
X45960000Y-55170000D03*
%TD*%
D16*
%TO.P,R2,2*%
%TO.N,/RX PIN*%
X90602500Y-41035000D03*
%TO.P,R2,1*%
%TO.N,Net-(J4-Pin_10)*%
X88777500Y-41035000D03*
%TD*%
%TO.P,R21,2*%
%TO.N,Net-(J11-~{RESET})*%
X32412500Y-96500000D03*
%TO.P,R21,1*%
%TO.N,GND*%
X30587500Y-96500000D03*
%TD*%
%TO.P,R4,2*%
%TO.N,GND*%
X17442500Y-89800000D03*
%TO.P,R4,1*%
%TO.N,Net-(J5-CC1)*%
X15617500Y-89800000D03*
%TD*%
D21*
%TO.P,J4,4,Pin_4_4*%
%TO.N,Net-(J1-Pin_7)*%
X39500000Y-16100000D03*
%TO.P,J4,3,Pin_3_3*%
%TO.N,Net-(J1-Pin_9)*%
X37000000Y-16100000D03*
%TO.P,J4,2,Pin_2_2*%
%TO.N,Net-(J1-Pin_11)*%
X34500000Y-16100000D03*
D22*
%TO.P,J4,1,Pin_1_1*%
%TO.N,Net-(J1-Pin_5)*%
X32000000Y-16100000D03*
%TD*%
D16*
%TO.P,R5,2*%
%TO.N,GND*%
X23137500Y-26670000D03*
%TO.P,R5,1*%
%TO.N,Net-(U4-FB)*%
X21312500Y-26670000D03*
%TD*%
%TO.P,R14,2*%
%TO.N,+3.3V*%
X88157500Y-26730000D03*
%TO.P,R14,1*%
%TO.N,Net-(J4-Pin_8)*%
X86332500Y-26730000D03*
%TD*%
D23*
%TO.P,JP1,2,B_2*%
%TO.N,/5V_MAIN*%
X24530000Y-96065000D03*
D24*
%TO.P,JP1,1,A_1*%
%TO.N,/VBUS_USB*%
X24530000Y-93525000D03*
%TD*%
D25*
%TO.P,R18,2*%
%TO.N,Net-(J12-Pin_2)*%
X69850000Y-76412500D03*
%TO.P,R18,1*%
%TO.N,Net-(U1-GPIO26{slash}ADC0)*%
X69850000Y-74587500D03*
%TD*%
D11*
%TO.P,C13,2*%
%TO.N,+3.3V*%
X63550000Y-85000000D03*
%TO.P,C13,1*%
%TO.N,GND*%
X62000000Y-85000000D03*
%TD*%
D21*
%TO.P,J3,4,Pin_4_4*%
%TO.N,Net-(J2-Pin_7)*%
X55500000Y-16000000D03*
%TO.P,J3,3,Pin_3_3*%
%TO.N,Net-(J2-Pin_9)*%
X53000000Y-16000000D03*
%TO.P,J3,2,Pin_2_2*%
%TO.N,Net-(J2-Pin_11)*%
X50500000Y-16000000D03*
D22*
%TO.P,J3,1,Pin_1_1*%
%TO.N,Net-(J2-Pin_5)*%
X48000000Y-16000000D03*
%TD*%
D11*
%TO.P,C4,2*%
%TO.N,+12V*%
X61060000Y-28380000D03*
%TO.P,C4,1*%
%TO.N,GND*%
X59510000Y-28380000D03*
%TD*%
D26*
%TO.P,Y1,1,1_1*%
%TO.N,Net-(U1-XOUT)*%
X61635000Y-62020000D03*
%TO.P,Y1,2,2_2*%
%TO.N,Net-(U1-XIN)*%
X63835000Y-62020000D03*
%TO.P,Y1,3*%
%TO.N,N/C*%
X63835000Y-60320000D03*
%TO.P,Y1,4*%
X61635000Y-60320000D03*
%TD*%
D14*
%TO.P,J19,2,Pin_2_2*%
%TO.N,Net-(J15-Pin_2)*%
X48175000Y-96910000D03*
D15*
%TO.P,J19,1,Pin_1_1*%
%TO.N,GND*%
X50675000Y-96910000D03*
%TD*%
D11*
%TO.P,C6,2*%
%TO.N,+3.3V*%
X66775000Y-34095000D03*
%TO.P,C6,1*%
%TO.N,GND*%
X65225000Y-34095000D03*
%TD*%
D27*
%TO.P,J18,6,SWO_6*%
%TO.N,unconnected-(J11-SWO-Pad6)*%
X70965000Y-65429000D03*
%TO.P,J18,5,GND_5*%
%TO.N,GND*%
X70965000Y-66699000D03*
%TO.P,J18,4,SWCLK_4*%
%TO.N,Net-(J11-SWCLK)*%
X69695000Y-65429000D03*
%TO.P,J18,3,~{RESET}_3*%
%TO.N,Net-(J11-~{RESET})*%
X69695000Y-66699000D03*
%TO.P,J18,2,SWDIO_2*%
%TO.N,Net-(J11-SWDIO)*%
X68425000Y-65429000D03*
%TO.P,J18,1,VCC_1*%
%TO.N,+3.3V*%
X68425000Y-66699000D03*
%TD*%
D16*
%TO.P,R19,2*%
%TO.N,GND*%
X96317500Y-41675000D03*
%TO.P,R19,1*%
%TO.N,Net-(Q2-G)*%
X94492500Y-41675000D03*
%TD*%
D28*
%TO.P,J17,SH,SHIELD_SH*%
%TO.N,GND*%
X5825000Y-99450000D03*
D29*
X9025000Y-99450000D03*
D28*
X5825000Y-90550000D03*
D29*
X9025000Y-90550000D03*
D30*
%TO.P,J17,B12,GND_B12*%
X7950000Y-92000000D03*
%TO.P,J17,B9,VBUS_B9*%
%TO.N,/VBUS_USB*%
X7950000Y-93500000D03*
%TO.P,J17,B8,SBU2_B8*%
%TO.N,Net-(J5-SBU1)*%
X7950000Y-94000000D03*
%TO.P,J17,B7,D-_B7*%
%TO.N,Net-(U1-USB_DM)*%
X7950000Y-94500000D03*
%TO.P,J17,B6,D+_B6*%
%TO.N,Net-(U1-USB_DP)*%
X7950000Y-95500000D03*
%TO.P,J17,B5,CC2_B5*%
%TO.N,Net-(J5-CC2)*%
X7950000Y-96000000D03*
%TO.P,J17,B4,VBUS_B4*%
%TO.N,/VBUS_USB*%
X7950000Y-96500000D03*
%TO.P,J17,B1,GND_B1*%
%TO.N,GND*%
X7950000Y-98000000D03*
%TO.P,J17,A12,GND_A12*%
X9200000Y-98050000D03*
%TO.P,J17,A9,VBUS_A9*%
%TO.N,/VBUS_USB*%
X9200000Y-96250000D03*
%TO.P,J17,A8,SBU1_A8*%
%TO.N,Net-(J5-SBU1)*%
X9200000Y-95750000D03*
%TO.P,J17,A7,D-_A7*%
%TO.N,Net-(U1-USB_DM)*%
X9200000Y-95250000D03*
%TO.P,J17,A6,D+_A6*%
%TO.N,Net-(U1-USB_DP)*%
X9200000Y-94750000D03*
%TO.P,J17,A5,CC1_A5*%
%TO.N,Net-(J5-CC1)*%
X9200000Y-94250000D03*
%TO.P,J17,A4,VBUS_A4*%
%TO.N,/VBUS_USB*%
X9200000Y-93750000D03*
D31*
%TO.P,J17,A1,GND_A1*%
%TO.N,GND*%
X9200000Y-98550000D03*
D30*
X9200000Y-91950000D03*
D31*
X9200000Y-91450000D03*
%TD*%
D16*
%TO.P,R3,2*%
%TO.N,/RX PIN*%
X39632500Y-27190000D03*
%TO.P,R3,1*%
%TO.N,Net-(J1-Pin_10)*%
X37807500Y-27190000D03*
%TD*%
D23*
%TO.P,J7,16,Pin_16_16*%
%TO.N,Net-(J1-Pin_16)*%
X82540000Y-43040000D03*
%TO.P,J7,15,Pin_15_15*%
%TO.N,+12V*%
X80000000Y-43040000D03*
%TO.P,J7,14,Pin_14_14*%
%TO.N,GND*%
X82540000Y-40500000D03*
%TO.P,J7,13,Pin_13_13*%
X80000000Y-40500000D03*
%TO.P,J7,12,Pin_12_12*%
X82540000Y-37960000D03*
%TO.P,J7,11,Pin_11_11*%
%TO.N,Net-(J10-Pin_2)*%
X80000000Y-37960000D03*
%TO.P,J7,10,Pin_10_10*%
%TO.N,Net-(J4-Pin_10)*%
X82540000Y-35420000D03*
%TO.P,J7,9,Pin_9_9*%
%TO.N,Net-(J10-Pin_3)*%
X80000000Y-35420000D03*
%TO.P,J7,8,Pin_8_8*%
%TO.N,Net-(J4-Pin_8)*%
X82540000Y-32880000D03*
%TO.P,J7,7,Pin_7_7*%
%TO.N,Net-(J10-Pin_4)*%
X80000000Y-32880000D03*
%TO.P,J7,6,Pin_6_6*%
%TO.N,unconnected-(J4-Pin_6-Pad6)*%
X82540000Y-30340000D03*
%TO.P,J7,5,Pin_5_5*%
%TO.N,Net-(J10-Pin_1)*%
X80000000Y-30340000D03*
%TO.P,J7,4,Pin_4_4*%
%TO.N,Net-(J4-Pin_4)*%
X82540000Y-27800000D03*
%TO.P,J7,3,Pin_3_3*%
%TO.N,+3.3V*%
X80000000Y-27800000D03*
%TO.P,J7,2,Pin_2_2*%
%TO.N,Net-(J4-Pin_2)*%
X82540000Y-25260000D03*
D24*
%TO.P,J7,1,Pin_1_1*%
%TO.N,GND*%
X80000000Y-25260000D03*
%TD*%
D25*
%TO.P,R9,2*%
%TO.N,Net-(J15-Pin_2)*%
X60325000Y-76412500D03*
%TO.P,R9,1*%
%TO.N,Net-(U1-GPIO29{slash}ADC3)*%
X60325000Y-74587500D03*
%TD*%
D23*
%TO.P,J9,16,Pin_16_16*%
%TO.N,Net-(J1-Pin_16)*%
X35540000Y-43700000D03*
%TO.P,J9,15,Pin_15_15*%
%TO.N,+12V*%
X33000000Y-43700000D03*
%TO.P,J9,14,Pin_14_14*%
%TO.N,GND*%
X35540000Y-41160000D03*
%TO.P,J9,13,Pin_13_13*%
X33000000Y-41160000D03*
%TO.P,J9,12,Pin_12_12*%
X35540000Y-38620000D03*
%TO.P,J9,11,Pin_11_11*%
%TO.N,Net-(J1-Pin_11)*%
X33000000Y-38620000D03*
%TO.P,J9,10,Pin_10_10*%
%TO.N,Net-(J1-Pin_10)*%
X35540000Y-36080000D03*
%TO.P,J9,9,Pin_9_9*%
%TO.N,Net-(J1-Pin_9)*%
X33000000Y-36080000D03*
%TO.P,J9,8,Pin_8_8*%
%TO.N,Net-(J1-Pin_8)*%
X35540000Y-33540000D03*
%TO.P,J9,7,Pin_7_7*%
%TO.N,Net-(J1-Pin_7)*%
X33000000Y-33540000D03*
%TO.P,J9,6,Pin_6_6*%
%TO.N,unconnected-(J1-Pin_6-Pad6)*%
X35540000Y-31000000D03*
%TO.P,J9,5,Pin_5_5*%
%TO.N,Net-(J1-Pin_5)*%
X33000000Y-31000000D03*
%TO.P,J9,4,Pin_4_4*%
%TO.N,Net-(J1-Pin_4)*%
X35540000Y-28460000D03*
%TO.P,J9,3,Pin_3_3*%
%TO.N,+3.3V*%
X33000000Y-28460000D03*
%TO.P,J9,2,Pin_2_2*%
%TO.N,Net-(J1-Pin_2)*%
X35540000Y-25920000D03*
D24*
%TO.P,J9,1,Pin_1_1*%
%TO.N,GND*%
X33000000Y-25920000D03*
%TD*%
D32*
%TO.P,U3,3,VI_3*%
%TO.N,+5V*%
X39350000Y-47800000D03*
D33*
%TO.P,U3,2,VO_2*%
%TO.N,+3.3V*%
X45650000Y-45500000D03*
D32*
X39350000Y-45500000D03*
%TO.P,U3,1,GND_1*%
%TO.N,GND*%
X39350000Y-43200000D03*
%TD*%
D21*
%TO.P,J1,4,Pin_4_4*%
%TO.N,Net-(J3-Pin_7)*%
X70500000Y-16100000D03*
%TO.P,J1,3,Pin_3_3*%
%TO.N,Net-(J3-Pin_9)*%
X68000000Y-16100000D03*
%TO.P,J1,2,Pin_2_2*%
%TO.N,Net-(J3-Pin_11)*%
X65500000Y-16100000D03*
D22*
%TO.P,J1,1,Pin_1_1*%
%TO.N,Net-(J3-Pin_5)*%
X63000000Y-16100000D03*
%TD*%
D11*
%TO.P,C14,2*%
%TO.N,GND*%
X24000000Y-30500000D03*
%TO.P,C14,1*%
%TO.N,+12V*%
X22450000Y-30500000D03*
%TD*%
D34*
%TO.P,U1,8,VCC_8*%
%TO.N,+3.3V*%
X73822500Y-55765000D03*
%TO.P,U1,7,~{HOLD}/~{RESET}/IO_{3}_7*%
%TO.N,Net-(U1-QSPI_SD3)*%
X73822500Y-57035000D03*
%TO.P,U1,6,CLK_6*%
%TO.N,Net-(U1-QSPI_SCLK)*%
X73822500Y-58305000D03*
%TO.P,U1,5,DI/IO_{0}_5*%
%TO.N,Net-(U1-QSPI_SD0)*%
X73822500Y-59575000D03*
%TO.P,U1,4,GND_4*%
%TO.N,GND*%
X66647500Y-59575000D03*
%TO.P,U1,3,~{WP}/IO_{2}_3*%
%TO.N,Net-(U1-QSPI_SD2)*%
X66647500Y-58305000D03*
%TO.P,U1,2,DO/IO_{1}_2*%
%TO.N,Net-(U1-QSPI_SD1)*%
X66647500Y-57035000D03*
%TO.P,U1,1,~{CS}_1*%
%TO.N,Net-(U1-~{QSPI_SS})*%
X66647500Y-55765000D03*
%TD*%
D16*
%TO.P,R17,2*%
%TO.N,/RX PIN*%
X56852500Y-27380000D03*
%TO.P,R17,1*%
%TO.N,Net-(J2-Pin_10)*%
X55027500Y-27380000D03*
%TD*%
D11*
%TO.P,C1,2*%
%TO.N,+3.3V*%
X71805000Y-85000000D03*
%TO.P,C1,1*%
%TO.N,GND*%
X70255000Y-85000000D03*
%TD*%
%TO.P,C18,2*%
%TO.N,GND*%
X17500000Y-27000000D03*
%TO.P,C18,1*%
%TO.N,+12V*%
X15950000Y-27000000D03*
%TD*%
%TO.P,C9,2*%
%TO.N,+3.3V*%
X60375000Y-85000000D03*
%TO.P,C9,1*%
%TO.N,GND*%
X58825000Y-85000000D03*
%TD*%
%TO.P,C15,2*%
%TO.N,+12V*%
X45845000Y-29095000D03*
%TO.P,C15,1*%
%TO.N,GND*%
X44295000Y-29095000D03*
%TD*%
D35*
%TO.P,U4,8,PG_8*%
%TO.N,unconnected-(U4-PG-Pad8)*%
X20612500Y-16525000D03*
%TO.P,U4,7,SW_7*%
%TO.N,Net-(U4-SW)*%
X20612500Y-17175000D03*
%TO.P,U4,6,VOS_6*%
%TO.N,+5V*%
X20612500Y-17825000D03*
%TO.P,U4,5,FB_5*%
%TO.N,Net-(U4-FB)*%
X20612500Y-18475000D03*
%TO.P,U4,4,AGND_4*%
%TO.N,GND*%
X16387500Y-18475000D03*
%TO.P,U4,3,EN_3*%
%TO.N,+12V*%
X16387500Y-17825000D03*
%TO.P,U4,2,VIN_2*%
X16387500Y-17175000D03*
%TO.P,U4,1,PGND_1*%
%TO.N,GND*%
X16387500Y-16525000D03*
%TD*%
D11*
%TO.P,C11,2*%
%TO.N,+12V*%
X43305000Y-29095000D03*
%TO.P,C11,1*%
%TO.N,GND*%
X41755000Y-29095000D03*
%TD*%
D21*
%TO.P,J2,4,Pin_4_4*%
%TO.N,Net-(J10-Pin_4)*%
X86000000Y-16000000D03*
%TO.P,J2,3,Pin_3_3*%
%TO.N,Net-(J10-Pin_3)*%
X83500000Y-16000000D03*
%TO.P,J2,2,Pin_2_2*%
%TO.N,Net-(J10-Pin_2)*%
X81000000Y-16000000D03*
D22*
%TO.P,J2,1,Pin_1_1*%
%TO.N,Net-(J10-Pin_1)*%
X78500000Y-16000000D03*
%TD*%
D23*
%TO.P,J8,16,Pin_16_16*%
%TO.N,Net-(J1-Pin_16)*%
X52765000Y-43890000D03*
%TO.P,J8,15,Pin_15_15*%
%TO.N,+12V*%
X50225000Y-43890000D03*
%TO.P,J8,14,Pin_14_14*%
%TO.N,GND*%
X52765000Y-41350000D03*
%TO.P,J8,13,Pin_13_13*%
X50225000Y-41350000D03*
%TO.P,J8,12,Pin_12_12*%
X52765000Y-38810000D03*
%TO.P,J8,11,Pin_11_11*%
%TO.N,Net-(J2-Pin_11)*%
X50225000Y-38810000D03*
%TO.P,J8,10,Pin_10_10*%
%TO.N,Net-(J2-Pin_10)*%
X52765000Y-36270000D03*
%TO.P,J8,9,Pin_9_9*%
%TO.N,Net-(J2-Pin_9)*%
X50225000Y-36270000D03*
%TO.P,J8,8,Pin_8_8*%
%TO.N,Net-(J2-Pin_8)*%
X52765000Y-33730000D03*
%TO.P,J8,7,Pin_7_7*%
%TO.N,Net-(J2-Pin_7)*%
X50225000Y-33730000D03*
%TO.P,J8,6,Pin_6_6*%
%TO.N,unconnected-(J2-Pin_6-Pad6)*%
X52765000Y-31190000D03*
%TO.P,J8,5,Pin_5_5*%
%TO.N,Net-(J2-Pin_5)*%
X50225000Y-31190000D03*
%TO.P,J8,4,Pin_4_4*%
%TO.N,Net-(J2-Pin_4)*%
X52765000Y-28650000D03*
%TO.P,J8,3,Pin_3_3*%
%TO.N,+3.3V*%
X50225000Y-28650000D03*
%TO.P,J8,2,Pin_2_2*%
%TO.N,Net-(J2-Pin_2)*%
X52765000Y-26110000D03*
D24*
%TO.P,J8,1,Pin_1_1*%
%TO.N,GND*%
X50225000Y-26110000D03*
%TD*%
D14*
%TO.P,J13,2,Pin_2_2*%
%TO.N,Net-(J12-Pin_2)*%
X75000000Y-97000000D03*
D15*
%TO.P,J13,1,Pin_1_1*%
%TO.N,GND*%
X77500000Y-97000000D03*
%TD*%
D25*
%TO.P,R12,2*%
%TO.N,Net-(J14-Pin_2)*%
X63500000Y-76412500D03*
%TO.P,R12,1*%
%TO.N,Net-(U1-GPIO28{slash}ADC2)*%
X63500000Y-74587500D03*
%TD*%
D36*
%TO.P,Q1,3,D_3*%
%TO.N,GND*%
X96342500Y-32785000D03*
%TO.P,Q1,2,S_2*%
X94467500Y-33735000D03*
%TO.P,Q1,1,G_1*%
%TO.N,Net-(Q1-G)*%
X94467500Y-31835000D03*
%TD*%
D16*
%TO.P,R1,2*%
%TO.N,+3.3V*%
X39632500Y-25920000D03*
%TO.P,R1,1*%
%TO.N,Net-(J1-Pin_8)*%
X37807500Y-25920000D03*
%TD*%
D11*
%TO.P,C8,2*%
%TO.N,+12V*%
X74245000Y-28760000D03*
%TO.P,C8,1*%
%TO.N,GND*%
X72695000Y-28760000D03*
%TD*%
D16*
%TO.P,R16,2*%
%TO.N,Net-(U4-FB)*%
X23137500Y-21590000D03*
%TO.P,R16,1*%
%TO.N,+5V*%
X21312500Y-21590000D03*
%TD*%
%TO.P,R6,2*%
%TO.N,GND*%
X17442500Y-94800000D03*
%TO.P,R6,1*%
%TO.N,Net-(J5-CC2)*%
X15617500Y-94800000D03*
%TD*%
%TO.P,R15,2*%
%TO.N,Net-(U1-GPIO10)*%
X94412500Y-38500000D03*
%TO.P,R15,1*%
%TO.N,Net-(Q2-G)*%
X92587500Y-38500000D03*
%TD*%
D23*
%TO.P,J6,16,Pin_16_16*%
%TO.N,Net-(J1-Pin_16)*%
X68540000Y-43620000D03*
%TO.P,J6,15,Pin_15_15*%
%TO.N,+12V*%
X66000000Y-43620000D03*
%TO.P,J6,14,Pin_14_14*%
%TO.N,GND*%
X68540000Y-41080000D03*
%TO.P,J6,13,Pin_13_13*%
X66000000Y-41080000D03*
%TO.P,J6,12,Pin_12_12*%
X68540000Y-38540000D03*
%TO.P,J6,11,Pin_11_11*%
%TO.N,Net-(J3-Pin_11)*%
X66000000Y-38540000D03*
%TO.P,J6,10,Pin_10_10*%
%TO.N,Net-(J3-Pin_10)*%
X68540000Y-36000000D03*
%TO.P,J6,9,Pin_9_9*%
%TO.N,Net-(J3-Pin_9)*%
X66000000Y-36000000D03*
%TO.P,J6,8,Pin_8_8*%
%TO.N,Net-(J3-Pin_8)*%
X68540000Y-33460000D03*
%TO.P,J6,7,Pin_7_7*%
%TO.N,Net-(J3-Pin_7)*%
X66000000Y-33460000D03*
%TO.P,J6,6,Pin_6_6*%
%TO.N,unconnected-(J3-Pin_6-Pad6)*%
X68540000Y-30920000D03*
%TO.P,J6,5,Pin_5_5*%
%TO.N,Net-(J3-Pin_5)*%
X66000000Y-30920000D03*
%TO.P,J6,4,Pin_4_4*%
%TO.N,Net-(J3-Pin_4)*%
X68540000Y-28380000D03*
%TO.P,J6,3,Pin_3_3*%
%TO.N,+3.3V*%
X66000000Y-28380000D03*
%TO.P,J6,2,Pin_2_2*%
%TO.N,Net-(J3-Pin_2)*%
X68540000Y-25840000D03*
D24*
%TO.P,J6,1,Pin_1_1*%
%TO.N,GND*%
X66000000Y-25840000D03*
%TD*%
D37*
%TO.P,L1,1,1_1*%
%TO.N,Net-(U4-SW)*%
X23690000Y-16510000D03*
%TO.P,L1,2,2_2*%
%TO.N,+5V*%
X25840000Y-16510000D03*
%TD*%
D11*
%TO.P,C19,2*%
%TO.N,+12V*%
X60775000Y-30500000D03*
%TO.P,C19,1*%
%TO.N,GND*%
X59225000Y-30500000D03*
%TD*%
D13*
%TO.P,J10,2,Pin_2_2*%
%TO.N,GND*%
X94000000Y-68420000D03*
D12*
%TO.P,J10,1,Pin_1_1*%
%TO.N,+12V*%
X94000000Y-73500000D03*
%TD*%
D16*
%TO.P,R13,2*%
%TO.N,/RX PIN*%
X72627500Y-27110000D03*
%TO.P,R13,1*%
%TO.N,Net-(J3-Pin_10)*%
X70802500Y-27110000D03*
%TD*%
D25*
%TO.P,R20,2*%
%TO.N,Net-(J13-Pin_2)*%
X66675000Y-76412500D03*
%TO.P,R20,1*%
%TO.N,Net-(U1-GPIO27{slash}ADC1)*%
X66675000Y-74587500D03*
%TD*%
D13*
%TO.P,J12,2,Pin_2_2*%
%TO.N,GND*%
X94000000Y-91420000D03*
D12*
%TO.P,J12,1,Pin_1_1*%
%TO.N,+12V*%
X94000000Y-96500000D03*
%TD*%
D11*
%TO.P,C3,2*%
%TO.N,+12V*%
X28275000Y-23000000D03*
%TO.P,C3,1*%
%TO.N,GND*%
X26725000Y-23000000D03*
%TD*%
D36*
%TO.P,Q2,3,D_3*%
%TO.N,GND*%
X98882500Y-39135000D03*
%TO.P,Q2,2,S_2*%
X97007500Y-40085000D03*
%TO.P,Q2,1,G_1*%
%TO.N,Net-(Q2-G)*%
X97007500Y-38185000D03*
%TD*%
D16*
%TO.P,R11,2*%
%TO.N,GND*%
X94412500Y-35325000D03*
%TO.P,R11,1*%
%TO.N,Net-(Q1-G)*%
X92587500Y-35325000D03*
%TD*%
D13*
%TO.P,J5,2,Pin_2_2*%
%TO.N,GND*%
X94000000Y-56920000D03*
D12*
%TO.P,J5,1,Pin_1_1*%
%TO.N,+12V*%
X94000000Y-62000000D03*
%TD*%
D16*
%TO.P,R8,2*%
%TO.N,Net-(J4-Pin_4)*%
X91237500Y-32785000D03*
%TO.P,R8,1*%
%TO.N,Net-(Q1-G)*%
X89412500Y-32785000D03*
%TD*%
D14*
%TO.P,J16,2,Pin_2_2*%
%TO.N,Net-(J14-Pin_2)*%
X57000000Y-97000000D03*
D15*
%TO.P,J16,1,Pin_1_1*%
%TO.N,GND*%
X59500000Y-97000000D03*
%TD*%
D11*
%TO.P,C5,2*%
%TO.N,+3.3V*%
X57200000Y-85000000D03*
%TO.P,C5,1*%
%TO.N,GND*%
X55650000Y-85000000D03*
%TD*%
M02*
