%TF.GenerationSoftware,KiCad,Pcbnew,10.0.0*%
%TF.CreationDate,2026-04-08T17:33:32+02:00*%
%TF.ProjectId,rp_2040_extruder_board,72705f32-3034-4305-9f65-787472756465,rev?*%
%TF.SameCoordinates,Original*%
%TF.FileFunction,Soldermask,Top*%
%TF.FilePolarity,Negative*%
%FSLAX46Y46*%
G04 Gerber Fmt 4.6, Leading zero omitted, Abs format (unit mm)*
G04 Created by KiCad (PCBNEW 10.0.0) date 2026-04-08 17:33:32*
%MOMM*%
%LPD*%
G01*
G04 APERTURE LIST*
G04 Aperture macros list*
%AMRoundRect*
0 Rectangle with rounded corners*
0 $1 Rounding radius*
0 $2 $3 $4 $5 $6 $7 $8 $9 X,Y pos of 4 corners*
0 Add a 4 corners polygon primitive as box body*
4,1,4,$2,$3,$4,$5,$6,$7,$8,$9,$2,$3,0*
0 Add four circle primitives for the rounded corners*
1,1,$1+$1,$2,$3*
1,1,$1+$1,$4,$5*
1,1,$1+$1,$6,$7*
1,1,$1+$1,$8,$9*
0 Add four rect primitives between the rounded corners*
20,1,$1+$1,$2,$3,$4,$5,0*
20,1,$1+$1,$4,$5,$6,$7,0*
20,1,$1+$1,$6,$7,$8,$9,0*
20,1,$1+$1,$8,$9,$2,$3,0*%
G04 Aperture macros list end*
%ADD10C,2.000000*%
%ADD11RoundRect,0.225000X-0.225000X-0.250000X0.225000X-0.250000X0.225000X0.250000X-0.225000X0.250000X0*%
%ADD12RoundRect,0.250000X1.050000X-1.050000X1.050000X1.050000X-1.050000X1.050000X-1.050000X-1.050000X0*%
%ADD13C,2.600000*%
%ADD14O,1.700000X2.000000*%
%ADD15RoundRect,0.250000X0.600000X0.750000X-0.600000X0.750000X-0.600000X-0.750000X0.600000X-0.750000X0*%
%ADD16RoundRect,0.250000X-0.262500X-0.450000X0.262500X-0.450000X0.262500X0.450000X-0.262500X0.450000X0*%
%ADD17RoundRect,0.250000X-1.050000X1.050000X-1.050000X-1.050000X1.050000X-1.050000X1.050000X1.050000X0*%
%ADD18R,3.200000X3.200000*%
%ADD19RoundRect,0.050000X-0.050000X-0.387500X0.050000X-0.387500X0.050000X0.387500X-0.050000X0.387500X0*%
%ADD20RoundRect,0.050000X-0.387500X-0.050000X0.387500X-0.050000X0.387500X0.050000X-0.387500X0.050000X0*%
%ADD21O,1.700000X1.950000*%
%ADD22RoundRect,0.250000X-0.600000X-0.725000X0.600000X-0.725000X0.600000X0.725000X-0.600000X0.725000X0*%
%ADD23C,1.700000*%
%ADD24R,1.700000X1.700000*%
%ADD25RoundRect,0.250000X-0.450000X0.262500X-0.450000X-0.262500X0.450000X-0.262500X0.450000X0.262500X0*%
%ADD26RoundRect,0.250000X-0.450000X-0.350000X0.450000X-0.350000X0.450000X0.350000X-0.450000X0.350000X0*%
%ADD27C,0.787400*%
%ADD28C,0.990600*%
%ADD29C,2.374900*%
%ADD30O,2.150000X0.950000*%
%ADD31O,1.950000X0.950000*%
%ADD32RoundRect,0.062500X-0.312500X0.062500X-0.312500X-0.062500X0.312500X-0.062500X0.312500X0.062500X0*%
%ADD33RoundRect,0.075000X-0.300000X0.075000X-0.300000X-0.075000X0.300000X-0.075000X0.300000X0.075000X0*%
%ADD34RoundRect,0.375000X-0.625000X-0.375000X0.625000X-0.375000X0.625000X0.375000X-0.625000X0.375000X0*%
%ADD35RoundRect,0.500000X-0.500000X-1.400000X0.500000X-1.400000X0.500000X1.400000X-0.500000X1.400000X0*%
%ADD36RoundRect,0.162500X-0.650000X-0.162500X0.650000X-0.162500X0.650000X0.162500X-0.650000X0.162500X0*%
%ADD37RoundRect,0.100000X-0.712500X-0.100000X0.712500X-0.100000X0.712500X0.100000X-0.712500X0.100000X0*%
%ADD38RoundRect,0.150000X-0.587500X-0.150000X0.587500X-0.150000X0.587500X0.150000X-0.587500X0.150000X0*%
%ADD39RoundRect,0.250000X-0.375000X-0.850000X0.375000X-0.850000X0.375000X0.850000X-0.375000X0.850000X0*%
G04 APERTURE END LIST*
D10*
%TO.C,SW1*%
X38250000Y-67250000D03*
X31750000Y-67250000D03*
X38250000Y-62750000D03*
X31750000Y-62750000D03*
%TD*%
D11*
%TO.C,C20*%
X48460000Y-66670000D03*
X50010000Y-66670000D03*
%TD*%
D12*
%TO.C,J11*%
X94000000Y-85045000D03*
D13*
X94000000Y-79965000D03*
%TD*%
D14*
%TO.C,J15*%
X66000000Y-97000000D03*
D15*
X68500000Y-97000000D03*
%TD*%
D16*
%TO.C,R7*%
X56852500Y-26110000D03*
X55027500Y-26110000D03*
%TD*%
D11*
%TO.C,C2*%
X62330000Y-34095000D03*
X60780000Y-34095000D03*
%TD*%
D13*
%TO.C,J14*%
X5500000Y-41080000D03*
D17*
X5500000Y-36000000D03*
%TD*%
D11*
%TO.C,C17*%
X67995000Y-85000000D03*
X66445000Y-85000000D03*
%TD*%
%TO.C,C12*%
X76785000Y-28760000D03*
X75235000Y-28760000D03*
%TD*%
%TO.C,C7*%
X29275000Y-30000000D03*
X27725000Y-30000000D03*
%TD*%
D18*
%TO.C,U2*%
X54172500Y-59370000D03*
D19*
X51572500Y-55932500D03*
X51972500Y-55932500D03*
X52372500Y-55932500D03*
X52772500Y-55932500D03*
X53172500Y-55932500D03*
X53572500Y-55932500D03*
X53972500Y-55932500D03*
X54372500Y-55932500D03*
X54772500Y-55932500D03*
X55172500Y-55932500D03*
X55572500Y-55932500D03*
X55972500Y-55932500D03*
X56372500Y-55932500D03*
X56772500Y-55932500D03*
D20*
X57610000Y-56770000D03*
X57610000Y-57170000D03*
X57610000Y-57570000D03*
X57610000Y-57970000D03*
X57610000Y-58370000D03*
X57610000Y-58770000D03*
X57610000Y-59170000D03*
X57610000Y-59570000D03*
X57610000Y-59970000D03*
X57610000Y-60370000D03*
X57610000Y-60770000D03*
X57610000Y-61170000D03*
X57610000Y-61570000D03*
X57610000Y-61970000D03*
D19*
X56772500Y-62807500D03*
X56372500Y-62807500D03*
X55972500Y-62807500D03*
X55572500Y-62807500D03*
X55172500Y-62807500D03*
X54772500Y-62807500D03*
X54372500Y-62807500D03*
X53972500Y-62807500D03*
X53572500Y-62807500D03*
X53172500Y-62807500D03*
X52772500Y-62807500D03*
X52372500Y-62807500D03*
X51972500Y-62807500D03*
X51572500Y-62807500D03*
D20*
X50735000Y-61970000D03*
X50735000Y-61570000D03*
X50735000Y-61170000D03*
X50735000Y-60770000D03*
X50735000Y-60370000D03*
X50735000Y-59970000D03*
X50735000Y-59570000D03*
X50735000Y-59170000D03*
X50735000Y-58770000D03*
X50735000Y-58370000D03*
X50735000Y-57970000D03*
X50735000Y-57570000D03*
X50735000Y-57170000D03*
X50735000Y-56770000D03*
%TD*%
D16*
%TO.C,R10*%
X72627500Y-25840000D03*
X70802500Y-25840000D03*
%TD*%
D11*
%TO.C,C10*%
X45320000Y-39350000D03*
X43770000Y-39350000D03*
%TD*%
%TO.C,C16*%
X47510000Y-55170000D03*
X45960000Y-55170000D03*
%TD*%
D16*
%TO.C,R2*%
X90602500Y-41035000D03*
X88777500Y-41035000D03*
%TD*%
%TO.C,R21*%
X32412500Y-96500000D03*
X30587500Y-96500000D03*
%TD*%
%TO.C,R4*%
X17442500Y-89800000D03*
X15617500Y-89800000D03*
%TD*%
D21*
%TO.C,J4*%
X39500000Y-16100000D03*
X37000000Y-16100000D03*
X34500000Y-16100000D03*
D22*
X32000000Y-16100000D03*
%TD*%
D16*
%TO.C,R5*%
X23137500Y-26670000D03*
X21312500Y-26670000D03*
%TD*%
%TO.C,R14*%
X88157500Y-26730000D03*
X86332500Y-26730000D03*
%TD*%
D23*
%TO.C,JP1*%
X24530000Y-96065000D03*
D24*
X24530000Y-93525000D03*
%TD*%
D25*
%TO.C,R18*%
X69850000Y-76412500D03*
X69850000Y-74587500D03*
%TD*%
D11*
%TO.C,C13*%
X63550000Y-85000000D03*
X62000000Y-85000000D03*
%TD*%
D21*
%TO.C,J3*%
X55500000Y-16000000D03*
X53000000Y-16000000D03*
X50500000Y-16000000D03*
D22*
X48000000Y-16000000D03*
%TD*%
D11*
%TO.C,C4*%
X61060000Y-28380000D03*
X59510000Y-28380000D03*
%TD*%
D26*
%TO.C,Y1*%
X61635000Y-62020000D03*
X63835000Y-62020000D03*
X63835000Y-60320000D03*
X61635000Y-60320000D03*
%TD*%
D14*
%TO.C,J19*%
X48175000Y-96910000D03*
D15*
X50675000Y-96910000D03*
%TD*%
D11*
%TO.C,C6*%
X66775000Y-34095000D03*
X65225000Y-34095000D03*
%TD*%
D27*
%TO.C,J18*%
X70965000Y-65429000D03*
X70965000Y-66699000D03*
X69695000Y-65429000D03*
X69695000Y-66699000D03*
X68425000Y-65429000D03*
X68425000Y-66699000D03*
D28*
X72235000Y-67080000D03*
X72235000Y-65048000D03*
D29*
X70330000Y-68604000D03*
X70330000Y-63524000D03*
X67155000Y-68604000D03*
D28*
X67155000Y-66064000D03*
D29*
X67155000Y-63524000D03*
%TD*%
D16*
%TO.C,R19*%
X96317500Y-41675000D03*
X94492500Y-41675000D03*
%TD*%
D30*
%TO.C,J17*%
X5825000Y-99450000D03*
D31*
X9025000Y-99450000D03*
D30*
X5825000Y-90550000D03*
D31*
X9025000Y-90550000D03*
D32*
X7950000Y-92000000D03*
X7950000Y-93500000D03*
X7950000Y-94000000D03*
X7950000Y-94500000D03*
X7950000Y-95500000D03*
X7950000Y-96000000D03*
X7950000Y-96500000D03*
X7950000Y-98000000D03*
X9200000Y-98050000D03*
X9200000Y-96250000D03*
X9200000Y-95750000D03*
X9200000Y-95250000D03*
X9200000Y-94750000D03*
X9200000Y-94250000D03*
X9200000Y-93750000D03*
D33*
X9200000Y-98550000D03*
D32*
X9200000Y-91950000D03*
D33*
X9200000Y-91450000D03*
%TD*%
D16*
%TO.C,R3*%
X39632500Y-27190000D03*
X37807500Y-27190000D03*
%TD*%
D23*
%TO.C,J7*%
X82540000Y-43040000D03*
X80000000Y-43040000D03*
X82540000Y-40500000D03*
X80000000Y-40500000D03*
X82540000Y-37960000D03*
X80000000Y-37960000D03*
X82540000Y-35420000D03*
X80000000Y-35420000D03*
X82540000Y-32880000D03*
X80000000Y-32880000D03*
X82540000Y-30340000D03*
X80000000Y-30340000D03*
X82540000Y-27800000D03*
X80000000Y-27800000D03*
X82540000Y-25260000D03*
D24*
X80000000Y-25260000D03*
%TD*%
D25*
%TO.C,R9*%
X60325000Y-76412500D03*
X60325000Y-74587500D03*
%TD*%
D23*
%TO.C,J9*%
X35540000Y-43700000D03*
X33000000Y-43700000D03*
X35540000Y-41160000D03*
X33000000Y-41160000D03*
X35540000Y-38620000D03*
X33000000Y-38620000D03*
X35540000Y-36080000D03*
X33000000Y-36080000D03*
X35540000Y-33540000D03*
X33000000Y-33540000D03*
X35540000Y-31000000D03*
X33000000Y-31000000D03*
X35540000Y-28460000D03*
X33000000Y-28460000D03*
X35540000Y-25920000D03*
D24*
X33000000Y-25920000D03*
%TD*%
D34*
%TO.C,U3*%
X39350000Y-47800000D03*
D35*
X45650000Y-45500000D03*
D34*
X39350000Y-45500000D03*
X39350000Y-43200000D03*
%TD*%
D21*
%TO.C,J1*%
X70500000Y-16100000D03*
X68000000Y-16100000D03*
X65500000Y-16100000D03*
D22*
X63000000Y-16100000D03*
%TD*%
D11*
%TO.C,C14*%
X24000000Y-30500000D03*
X22450000Y-30500000D03*
%TD*%
D36*
%TO.C,U1*%
X73822500Y-55765000D03*
X73822500Y-57035000D03*
X73822500Y-58305000D03*
X73822500Y-59575000D03*
X66647500Y-59575000D03*
X66647500Y-58305000D03*
X66647500Y-57035000D03*
X66647500Y-55765000D03*
%TD*%
D16*
%TO.C,R17*%
X56852500Y-27380000D03*
X55027500Y-27380000D03*
%TD*%
D11*
%TO.C,C1*%
X71805000Y-85000000D03*
X70255000Y-85000000D03*
%TD*%
%TO.C,C18*%
X17500000Y-27000000D03*
X15950000Y-27000000D03*
%TD*%
%TO.C,C9*%
X60375000Y-85000000D03*
X58825000Y-85000000D03*
%TD*%
%TO.C,C15*%
X45845000Y-29095000D03*
X44295000Y-29095000D03*
%TD*%
D37*
%TO.C,U4*%
X20612500Y-16525000D03*
X20612500Y-17175000D03*
X20612500Y-17825000D03*
X20612500Y-18475000D03*
X16387500Y-18475000D03*
X16387500Y-17825000D03*
X16387500Y-17175000D03*
X16387500Y-16525000D03*
%TD*%
D11*
%TO.C,C11*%
X43305000Y-29095000D03*
X41755000Y-29095000D03*
%TD*%
D21*
%TO.C,J2*%
X86000000Y-16000000D03*
X83500000Y-16000000D03*
X81000000Y-16000000D03*
D22*
X78500000Y-16000000D03*
%TD*%
D23*
%TO.C,J8*%
X52765000Y-43890000D03*
X50225000Y-43890000D03*
X52765000Y-41350000D03*
X50225000Y-41350000D03*
X52765000Y-38810000D03*
X50225000Y-38810000D03*
X52765000Y-36270000D03*
X50225000Y-36270000D03*
X52765000Y-33730000D03*
X50225000Y-33730000D03*
X52765000Y-31190000D03*
X50225000Y-31190000D03*
X52765000Y-28650000D03*
X50225000Y-28650000D03*
X52765000Y-26110000D03*
D24*
X50225000Y-26110000D03*
%TD*%
D14*
%TO.C,J13*%
X75000000Y-97000000D03*
D15*
X77500000Y-97000000D03*
%TD*%
D25*
%TO.C,R12*%
X63500000Y-76412500D03*
X63500000Y-74587500D03*
%TD*%
D38*
%TO.C,Q1*%
X96342500Y-32785000D03*
X94467500Y-33735000D03*
X94467500Y-31835000D03*
%TD*%
D16*
%TO.C,R1*%
X39632500Y-25920000D03*
X37807500Y-25920000D03*
%TD*%
D11*
%TO.C,C8*%
X74245000Y-28760000D03*
X72695000Y-28760000D03*
%TD*%
D16*
%TO.C,R16*%
X23137500Y-21590000D03*
X21312500Y-21590000D03*
%TD*%
%TO.C,R6*%
X17442500Y-94800000D03*
X15617500Y-94800000D03*
%TD*%
%TO.C,R15*%
X94412500Y-38500000D03*
X92587500Y-38500000D03*
%TD*%
D23*
%TO.C,J6*%
X68540000Y-43620000D03*
X66000000Y-43620000D03*
X68540000Y-41080000D03*
X66000000Y-41080000D03*
X68540000Y-38540000D03*
X66000000Y-38540000D03*
X68540000Y-36000000D03*
X66000000Y-36000000D03*
X68540000Y-33460000D03*
X66000000Y-33460000D03*
X68540000Y-30920000D03*
X66000000Y-30920000D03*
X68540000Y-28380000D03*
X66000000Y-28380000D03*
X68540000Y-25840000D03*
D24*
X66000000Y-25840000D03*
%TD*%
D39*
%TO.C,L1*%
X23690000Y-16510000D03*
X25840000Y-16510000D03*
%TD*%
D11*
%TO.C,C19*%
X60775000Y-30500000D03*
X59225000Y-30500000D03*
%TD*%
D13*
%TO.C,J10*%
X94000000Y-68420000D03*
D12*
X94000000Y-73500000D03*
%TD*%
D16*
%TO.C,R13*%
X72627500Y-27110000D03*
X70802500Y-27110000D03*
%TD*%
D25*
%TO.C,R20*%
X66675000Y-76412500D03*
X66675000Y-74587500D03*
%TD*%
D13*
%TO.C,J12*%
X94000000Y-91420000D03*
D12*
X94000000Y-96500000D03*
%TD*%
D11*
%TO.C,C3*%
X28275000Y-23000000D03*
X26725000Y-23000000D03*
%TD*%
D38*
%TO.C,Q2*%
X98882500Y-39135000D03*
X97007500Y-40085000D03*
X97007500Y-38185000D03*
%TD*%
D16*
%TO.C,R11*%
X94412500Y-35325000D03*
X92587500Y-35325000D03*
%TD*%
D13*
%TO.C,J5*%
X94000000Y-56920000D03*
D12*
X94000000Y-62000000D03*
%TD*%
D16*
%TO.C,R8*%
X91237500Y-32785000D03*
X89412500Y-32785000D03*
%TD*%
D14*
%TO.C,J16*%
X57000000Y-97000000D03*
D15*
X59500000Y-97000000D03*
%TD*%
D11*
%TO.C,C5*%
X57200000Y-85000000D03*
X55650000Y-85000000D03*
%TD*%
M02*
